<?xml version="1.0" encoding="utf-8" standalone="no"?>
<!DOCTYPE svg PUBLIC "-//W3C//DTD SVG 1.1//EN"
  "http://www.w3.org/Graphics/SVG/1.1/DTD/svg11.dtd">
<svg xmlns:xlink="http://www.w3.org/1999/xlink" width="113.3175pt" height="115.996375pt" viewBox="0 0 113.3175 115.996375" xmlns="http://www.w3.org/2000/svg" version="1.1">
 <metadata>
  <rdf:RDF xmlns:dc="http://purl.org/dc/elements/1.1/" xmlns:cc="http://creativecommons.org/ns#" xmlns:rdf="http://www.w3.org/1999/02/22-rdf-syntax-ns#">
   <cc:Work>
    <dc:type rdf:resource="http://purl.org/dc/dcmitype/StillImage"/>
    <dc:date>2022-04-14T15:32:43.540533</dc:date>
    <dc:format>image/svg+xml</dc:format>
    <dc:creator>
     <cc:Agent>
      <dc:title>Matplotlib v3.5.1, https://matplotlib.org/</dc:title>
     </cc:Agent>
    </dc:creator>
   </cc:Work>
  </rdf:RDF>
 </metadata>
 <defs>
  <style type="text/css">*{stroke-linejoin: round; stroke-linecap: butt}</style>
 </defs>
 <g id="figure_1">
  <g id="patch_1">
   <path d="M 0 115.996375 
L 113.3175 115.996375 
L 113.3175 0 
L 0 0 
z
" style="fill: #ffffff"/>
  </g>
  <g id="axes_1">
   <g id="patch_2">
    <path d="M 31.0325 82.311375 
L 103.5725 82.311375 
L 103.5725 10.239375 
L 31.0325 10.239375 
z
" style="fill: #ffffff"/>
   </g>
   <g id="matplotlib.axis_1">
    <g id="xtick_1">
     <g id="line2d_1">
      <defs>
       <path id="m92e26255be" d="M 0 0 
L 0 3.5 
" style="stroke: #000000; stroke-width: 1.5"/>
      </defs>
      <g>
       <use xlink:href="#m92e26255be" x="31.0325" y="82.311375" style="stroke: #000000; stroke-width: 1.5"/>
      </g>
     </g>
     <g id="text_1">
      <text style="font: 8px 'serif'; text-anchor: middle" x="31.0325" y="95.390125" transform="rotate(-0, 31.0325, 95.390125)">0</text>
     </g>
    </g>
    <g id="xtick_2">
     <g id="line2d_2">
      <g>
       <use xlink:href="#m92e26255be" x="103.5725" y="82.311375" style="stroke: #000000; stroke-width: 1.5"/>
      </g>
     </g>
     <g id="text_2">
      <text style="font: 8px 'serif'; text-anchor: middle" x="103.5725" y="95.390125" transform="rotate(-0, 103.5725, 95.390125)">1</text>
     </g>
    </g>
    <g id="text_3">
     <text style="font: 8px 'serif'; text-anchor: middle" x="67.3025" y="107.132625" transform="rotate(-0, 67.3025, 107.132625)">Confidence level</text>
    </g>
   </g>
   <g id="matplotlib.axis_2">
    <g id="ytick_1">
     <g id="line2d_3">
      <defs>
       <path id="mc182071d0d" d="M 0 0 
L -3.5 0 
" style="stroke: #000000; stroke-width: 1.5"/>
      </defs>
      <g>
       <use xlink:href="#mc182071d0d" x="31.0325" y="82.311375" style="stroke: #000000; stroke-width: 1.5"/>
      </g>
     </g>
     <g id="text_4">
      <text style="font: 8px 'serif'; text-anchor: end" x="24.0325" y="85.35075" transform="rotate(-0, 24.0325, 85.35075)">0</text>
     </g>
    </g>
    <g id="ytick_2">
     <g id="line2d_4">
      <g>
       <use xlink:href="#mc182071d0d" x="31.0325" y="10.239375" style="stroke: #000000; stroke-width: 1.5"/>
      </g>
     </g>
     <g id="text_5">
      <text style="font: 8px 'serif'; text-anchor: end" x="24.0325" y="13.27875" transform="rotate(-0, 24.0325, 13.27875)">1</text>
     </g>
    </g>
    <g id="text_6">
     <text style="font: 8px 'serif'; text-anchor: middle" x="13.27875" y="46.275375" transform="rotate(-90, 13.27875, 46.275375)">Empirical coverage</text>
    </g>
   </g>
   <g id="line2d_5">
    <path d="M 31.0325 82.311375 
L 103.5725 10.239375 
" clip-path="url(#p725e8e9ba4)" style="fill: none; stroke: #808080; stroke-width: 1.5; stroke-linecap: square"/>
   </g>
   <g id="line2d_6">
    <path d="M 31.0325 82.311375 
L 32.512908 80.869935 
L 33.993316 78.707775 
L 35.473725 76.545615 
L 36.954133 73.662735 
L 38.434541 73.662735 
L 39.914949 72.221295 
L 41.395357 71.500575 
L 42.875765 71.500575 
L 44.356174 71.500575 
L 45.836581 70.059135 
L 47.31699 68.617695 
L 48.797398 66.455535 
L 50.277806 65.014095 
L 51.758213 63.572656 
L 53.238621 63.572656 
L 54.71903 63.572656 
L 56.199438 62.131215 
L 57.679847 60.689774 
L 59.160255 57.806895 
L 60.640662 54.924015 
L 62.12107 53.482575 
L 63.601479 52.041136 
L 65.081887 50.599695 
L 66.562296 49.158254 
L 68.042704 46.996094 
L 69.523111 46.275375 
L 71.003519 44.833936 
L 72.48393 41.951055 
L 73.964338 41.230336 
L 75.444745 39.068173 
L 76.925153 36.906015 
L 78.40556 34.023134 
L 79.885968 31.860976 
L 81.366375 29.698814 
L 82.846787 28.978094 
L 84.327194 26.815936 
L 85.807602 24.653774 
L 87.288009 23.933055 
L 88.768417 22.491616 
L 90.248829 22.491616 
L 91.729236 21.050173 
L 93.209643 20.329454 
L 94.690055 18.167296 
L 96.170463 18.167296 
L 97.65087 16.725853 
L 99.131278 16.005134 
L 100.611685 15.284414 
L 102.092093 14.563695 
L 103.5725 13.842976 
" clip-path="url(#p725e8e9ba4)" style="fill: none; stroke: #1f77b4; stroke-width: 1.5; stroke-linecap: square"/>
   </g>
   <g id="patch_3">
    <path d="M 31.0325 82.311375 
L 31.0325 10.239375 
" style="fill: none; stroke: #000000; stroke-width: 1.5; stroke-linejoin: miter; stroke-linecap: square"/>
   </g>
   <g id="patch_4">
    <path d="M 31.0325 82.311375 
L 103.5725 82.311375 
" style="fill: none; stroke: #000000; stroke-width: 1.5; stroke-linejoin: miter; stroke-linecap: square"/>
   </g>
  </g>
 </g>
 <defs>
  <clipPath id="p725e8e9ba4">
   <rect x="31.0325" y="10.239375" width="72.54" height="72.072"/>
  </clipPath>
 </defs>
</svg>
