<?xml version="1.0" encoding="utf-8" standalone="no"?>
<!DOCTYPE svg PUBLIC "-//W3C//DTD SVG 1.1//EN"
  "http://www.w3.org/Graphics/SVG/1.1/DTD/svg11.dtd">
<svg xmlns:xlink="http://www.w3.org/1999/xlink" width="181.8pt" height="55.98pt" viewBox="0 0 181.8 55.98" xmlns="http://www.w3.org/2000/svg" version="1.1">
 <metadata>
  <rdf:RDF xmlns:dc="http://purl.org/dc/elements/1.1/" xmlns:cc="http://creativecommons.org/ns#" xmlns:rdf="http://www.w3.org/1999/02/22-rdf-syntax-ns#">
   <cc:Work>
    <dc:type rdf:resource="http://purl.org/dc/dcmitype/StillImage"/>
    <dc:date>2022-05-01T17:40:33.992574</dc:date>
    <dc:format>image/svg+xml</dc:format>
    <dc:creator>
     <cc:Agent>
      <dc:title>Matplotlib v3.5.1, https://matplotlib.org/</dc:title>
     </cc:Agent>
    </dc:creator>
   </cc:Work>
  </rdf:RDF>
 </metadata>
 <defs>
  <style type="text/css">*{stroke-linejoin: round; stroke-linecap: butt}</style>
 </defs>
 <g id="figure_1">
  <g id="patch_1">
   <path d="M 0 55.98 
L 181.8 55.98 
L 181.8 -0 
L 0 -0 
z
" style="fill: #ffffff"/>
  </g>
  <g id="axes_1">
   <g id="patch_2">
    <path d="M 7.2 48.78 
L 56.435294 48.78 
L 56.435294 7.2 
L 7.2 7.2 
z
" style="fill: #ffffff"/>
   </g>
   <g id="matplotlib.axis_1"/>
   <g id="matplotlib.axis_2"/>
   <g id="line2d_1">
    <path d="M 9.437968 41.355 
L 9.555262 42.570455 
L 9.884754 44.132802 
L 10.245164 44.871252 
L 10.675097 45.215139 
L 11.194565 45.296857 
L 18.135859 45.212083 
L 19.882275 45.112898 
L 20.009138 42.339912 
L 20.323588 36.246318 
L 20.330893 13.027333 
L 20.431084 41.773098 
L 20.654504 44.024873 
L 20.873881 44.513193 
L 21.086546 44.573852 
L 21.305692 44.417645 
L 21.508077 44.062451 
L 21.825187 42.97649 
L 22.707046 38.376103 
L 22.716181 13.491161 
L 22.808842 41.686555 
L 23.005821 44.095029 
L 23.211152 44.510257 
L 23.445704 44.569495 
L 23.699936 44.381968 
L 23.947644 43.880023 
L 24.277921 42.598327 
L 25.100565 38.060433 
L 25.109225 13.472591 
L 25.206638 41.822551 
L 25.406839 44.146482 
L 25.636998 44.552423 
L 25.849293 44.582945 
L 26.073431 44.419774 
L 26.372959 43.793118 
L 26.772328 42.122506 
L 27.522285 37.922737 
L 27.530757 13.45609 
L 27.628393 41.846811 
L 27.827653 44.163278 
L 28.043082 44.559129 
L 28.276952 44.596773 
L 28.483646 44.446806 
L 28.679393 44.111638 
L 29.036526 42.88548 
L 29.971766 38.073412 
L 29.980441 13.430246 
L 30.07663 41.830829 
L 30.282828 44.201293 
L 30.482172 44.568341 
L 30.731965 44.61026 
L 30.959728 44.427307 
L 31.259377 43.769727 
L 31.696088 41.931492 
L 32.334151 39.45523 
L 32.453774 38.673871 
L 32.462122 26.05148 
L 32.463944 13.415295 
L 32.5695 42.07066 
L 32.763956 44.208731 
L 32.990059 44.600066 
L 33.214858 44.623424 
L 33.416895 44.471172 
L 33.65251 44.036819 
L 33.966664 42.931575 
L 34.890159 39.304785 
L 34.966676 38.614048 
L 34.976338 13.407307 
L 35.063478 41.633255 
L 35.27538 44.218631 
L 35.476346 44.594249 
L 35.726204 44.63457 
L 35.935482 44.473076 
L 36.214519 43.909894 
L 36.568444 42.545802 
L 37.229472 39.912588 
L 37.501642 38.71849 
L 37.510019 27.391121 
L 37.512026 13.398213 
L 37.619068 42.130274 
L 37.819851 44.261827 
L 38.023676 44.613013 
L 38.279886 44.636547 
L 38.541742 44.380338 
L 38.803598 43.753774 
L 39.309142 41.626125 
L 39.903634 39.567833 
L 40.064763 38.727145 
L 40.073156 27.2215 
L 40.075124 13.394866 
L 40.179884 42.086474 
L 40.372673 44.233541 
L 40.58487 44.619749 
L 40.840281 44.644481 
L 41.09646 44.398789 
L 41.35615 43.790812 
L 41.845265 41.753348 
L 42.432202 39.709104 
L 42.644134 38.83412 
L 42.650852 33.928342 
L 42.656138 13.386217 
L 42.747756 41.774764 
L 42.95345 44.238928 
L 43.153736 44.617036 
L 43.403076 44.656759 
L 43.585333 44.525973 
L 43.841455 44.067432 
L 44.182951 42.860352 
L 44.97266 39.846798 
L 45.241129 38.858456 
L 45.247058 34.935742 
L 45.253741 13.380813 
L 45.349022 41.872857 
L 45.556728 44.265817 
L 45.78229 44.64255 
L 45.980515 44.666941 
L 46.223017 44.480533 
L 46.481183 43.954991 
L 46.876263 42.436434 
L 47.531849 39.97046 
L 47.848197 38.790877 
L 47.856471 30.020124 
L 47.858961 13.363049 
L 47.963257 42.092805 
L 48.159905 44.260966 
L 48.353642 44.622496 
L 48.589608 44.669099 
L 48.796808 44.52253 
L 49.073076 43.996098 
L 49.419188 42.720949 
L 49.72139 41.396273 
L 49.727533 41.824126 
L 49.90057 43.854223 
L 50.19897 45.075558 
L 50.486904 45.501276 
L 50.807595 45.654854 
L 51.391323 45.631997 
L 53.13557 45.469454 
L 54.197326 45.44615 
L 54.197326 45.44615 
" clip-path="url(#pbe57b5b4ec)" style="fill: none; stroke: #000000; stroke-linecap: square"/>
   </g>
  </g>
  <g id="axes_2">
   <g id="patch_3">
    <path d="M 66.282353 48.78 
L 115.517647 48.78 
L 115.517647 7.2 
L 66.282353 7.2 
z
" style="fill: #ffffff"/>
   </g>
   <g id="matplotlib.axis_3"/>
   <g id="matplotlib.axis_4"/>
   <g id="line2d_2">
    <path d="M 68.520321 41.355 
L 68.63357 42.521234 
L 68.957014 44.113495 
L 69.287639 44.862603 
L 69.69464 45.261123 
L 70.138657 45.384372 
L 71.155169 45.348554 
L 73.960967 45.31579 
L 78.964628 45.212313 
L 79.091503 42.456168 
L 79.387938 36.672286 
L 79.395806 12.612603 
L 79.495171 41.792696 
L 79.69448 43.913897 
L 79.923243 44.367984 
L 80.192236 44.443433 
L 80.553195 44.332232 
L 81.038561 43.968792 
L 81.582719 43.25013 
L 82.327859 41.719355 
L 83.511248 38.747191 
L 83.519369 35.622507 
L 83.526895 13.398087 
L 83.625563 41.646984 
L 83.815397 43.824948 
L 84.034208 44.277713 
L 84.305835 44.314929 
L 84.688582 44.085199 
L 85.181417 43.503094 
L 85.797459 42.355628 
L 87.264509 38.854255 
L 87.279665 37.46729 
L 87.288293 13.425483 
L 87.386334 41.604253 
L 87.564628 43.759435 
L 87.790786 44.268382 
L 88.000109 44.322694 
L 88.313031 44.185009 
L 88.775592 43.722822 
L 89.332236 42.810798 
L 90.863159 39.459555 
L 91.026649 38.69697 
L 91.033629 35.16399 
L 91.04086 13.415225 
L 91.138333 41.58662 
L 91.323866 43.788274 
L 91.551567 44.272492 
L 91.770126 44.317903 
L 92.099803 44.157368 
L 92.533948 43.711215 
L 93.14615 42.683699 
L 94.731457 39.088247 
L 94.780244 38.373297 
L 94.790146 13.418432 
L 94.88024 41.360995 
L 95.069005 43.766604 
L 95.286603 44.260504 
L 95.545508 44.312503 
L 95.868642 44.142736 
L 96.309322 43.678299 
L 96.860173 42.757823 
L 98.417687 39.324142 
L 98.531377 38.597048 
L 98.539712 31.91409 
L 98.543212 13.418332 
L 98.643681 41.654357 
L 98.826319 43.784852 
L 99.033511 44.254375 
L 99.275034 44.316857 
L 99.592933 44.164188 
L 100.066182 43.673257 
L 100.634081 42.717429 
L 102.225506 39.150831 
L 102.288421 38.388566 
L 102.298415 13.422846 
L 102.387889 41.335628 
L 102.565488 43.706047 
L 102.768513 44.235045 
L 103.018259 44.318881 
L 103.356992 44.158004 
L 103.825381 43.668642 
L 104.380207 42.73727 
L 105.949812 39.264002 
L 106.044081 38.486136 
L 106.052841 22.96065 
L 106.054512 13.416873 
L 106.162287 41.834808 
L 106.348336 43.831191 
L 106.550227 44.259499 
L 106.808121 44.313508 
L 107.169174 44.114705 
L 107.618832 43.619241 
L 108.124666 42.763312 
L 108.803743 41.262119 
L 108.807466 41.60355 
L 108.952449 43.694362 
L 109.220455 45.115737 
L 109.523123 45.648506 
L 109.820898 45.774286 
L 110.34346 45.679281 
L 111.555271 45.404579 
L 113.279679 45.334736 
L 113.279679 45.334736 
" clip-path="url(#p04010df0be)" style="fill: none; stroke: #000000; stroke-linecap: square"/>
   </g>
  </g>
  <g id="axes_3">
   <g id="patch_4">
    <path d="M 125.364706 48.78 
L 174.6 48.78 
L 174.6 7.2 
L 125.364706 7.2 
z
" style="fill: #ffffff"/>
   </g>
   <g id="matplotlib.axis_5"/>
   <g id="matplotlib.axis_6"/>
   <g id="line2d_3">
    <path d="M 127.602674 41.355 
L 127.712423 42.534607 
L 128.026709 44.143228 
L 128.3492 44.890123 
L 128.735787 45.261702 
L 129.218504 45.365076 
L 138.046981 45.145609 
L 138.173841 42.35671 
L 138.504776 39.123809 
L 138.591286 37.795463 
L 138.602097 15.526219 
L 138.695559 40.423012 
L 138.758852 40.685084 
L 138.818568 40.558428 
L 139.278468 38.484949 
L 139.298998 37.341864 
L 139.309544 15.881006 
L 139.404371 40.379785 
L 139.478093 40.675459 
L 139.531689 40.589963 
L 140.150753 38.502141 
L 140.183313 37.760981 
L 140.194645 16.03024 
L 140.286962 40.314772 
L 140.372648 40.688637 
L 140.419291 40.644753 
L 140.664163 39.929326 
L 141.037298 39.208074 
L 141.610994 38.66047 
L 141.799951 38.338295 
L 141.823954 37.651758 
L 141.835334 16.284585 
L 141.929885 40.302752 
L 142.031282 40.690346 
L 142.070391 40.66692 
L 142.290507 40.192731 
L 142.630137 39.670511 
L 143.106719 39.360868 
L 144.180629 39.025248 
L 145.324799 38.578725 
L 145.497187 38.310663 
L 145.522768 37.673838 
L 145.534226 16.33923 
L 145.625609 40.200046 
L 145.733605 40.602499 
L 145.760868 40.590769 
L 145.924441 40.285229 
L 146.343663 39.642959 
L 146.800947 39.363269 
L 147.578303 39.114868 
L 149.063299 38.595268 
L 149.270026 38.314922 
L 149.299106 37.754953 
L 149.310736 16.352099 
L 149.40444 40.179092 
L 149.509685 40.540325 
L 149.548033 40.518593 
L 149.769224 40.091241 
L 150.141807 39.589565 
L 150.67833 39.295766 
L 152.966724 38.370781 
L 153.018165 37.94162 
L 153.028814 23.536868 
L 153.030693 16.383593 
L 153.13512 40.240297 
L 153.238672 40.497239 
L 153.272984 40.472138 
L 153.527876 39.98755 
L 153.919701 39.519107 
L 154.481783 39.245697 
L 156.642034 38.376691 
L 156.697949 38.010796 
L 156.707984 30.226408 
L 156.711316 16.376254 
L 156.813173 40.20745 
L 156.909494 40.47838 
L 156.942695 40.462385 
L 157.142438 40.091857 
L 157.547917 39.542475 
L 158.023644 39.278657 
L 159.403677 38.868388 
L 160.183396 38.52152 
L 160.339763 38.239204 
L 160.358438 37.482644 
L 160.369502 16.396881 
L 160.464375 40.131842 
L 160.573206 40.460559 
L 160.609226 40.436829 
L 160.843249 39.997083 
L 161.234954 39.507979 
L 161.819956 39.214651 
L 163.260736 38.792036 
L 163.863032 38.477077 
L 163.988726 38.16913 
L 163.999999 36.936701 
L 164.010442 16.417085 
L 164.105271 40.123321 
L 164.209629 40.449456 
L 164.245704 40.429452 
L 164.450753 40.048178 
L 164.82138 39.542359 
L 165.317117 39.260396 
L 166.586111 38.884271 
L 167.452572 38.514471 
L 167.614461 38.229677 
L 167.635824 37.419692 
L 167.646861 16.445074 
L 167.739855 40.092673 
L 167.843588 40.437816 
L 167.874586 40.4245 
L 167.886096 40.413548 
L 167.886838 40.55526 
L 168.013019 42.765206 
L 168.307884 44.669675 
L 168.63199 45.499366 
L 168.953029 45.76968 
L 169.40972 45.780353 
L 171.340486 45.512183 
L 172.362032 45.471939 
L 172.362032 45.471939 
" clip-path="url(#p3d81dbafac)" style="fill: none; stroke: #000000; stroke-linecap: square"/>
   </g>
  </g>
 </g>
 <defs>
  <clipPath id="pbe57b5b4ec">
   <rect x="7.2" y="7.2" width="49.235294" height="41.58"/>
  </clipPath>
  <clipPath id="p04010df0be">
   <rect x="66.282353" y="7.2" width="49.235294" height="41.58"/>
  </clipPath>
  <clipPath id="p3d81dbafac">
   <rect x="125.364706" y="7.2" width="49.235294" height="41.58"/>
  </clipPath>
 </defs>
</svg>
