<?xml version="1.0" encoding="utf-8" standalone="no"?>
<!DOCTYPE svg PUBLIC "-//W3C//DTD SVG 1.1//EN"
  "http://www.w3.org/Graphics/SVG/1.1/DTD/svg11.dtd">
<svg xmlns:xlink="http://www.w3.org/1999/xlink" width="181.8pt" height="97.56pt" viewBox="0 0 181.8 97.56" xmlns="http://www.w3.org/2000/svg" version="1.1">
 <metadata>
  <rdf:RDF xmlns:dc="http://purl.org/dc/elements/1.1/" xmlns:cc="http://creativecommons.org/ns#" xmlns:rdf="http://www.w3.org/1999/02/22-rdf-syntax-ns#">
   <cc:Work>
    <dc:type rdf:resource="http://purl.org/dc/dcmitype/StillImage"/>
    <dc:date>2022-04-25T16:11:49.167850</dc:date>
    <dc:format>image/svg+xml</dc:format>
    <dc:creator>
     <cc:Agent>
      <dc:title>Matplotlib v3.5.1, https://matplotlib.org/</dc:title>
     </cc:Agent>
    </dc:creator>
   </cc:Work>
  </rdf:RDF>
 </metadata>
 <defs>
  <style type="text/css">*{stroke-linejoin: round; stroke-linecap: butt}</style>
 </defs>
 <g id="figure_1">
  <g id="patch_1">
   <path d="M 0 97.56 
L 181.8 97.56 
L 181.8 0 
L 0 0 
z
" style="fill: #ffffff"/>
  </g>
  <g id="axes_1">
   <g id="patch_2">
    <path d="M 7.2 45 
L 56.435294 45 
L 56.435294 7.2 
L 7.2 7.2 
z
" style="fill: #ffffff"/>
   </g>
   <g id="matplotlib.axis_1"/>
   <g id="matplotlib.axis_2"/>
   <g id="line2d_1">
    <path d="M 9.437968 38.25 
L 9.554385 39.430728 
L 9.859205 40.82937 
L 10.232552 41.552535 
L 10.599594 41.825297 
L 11.150157 41.90205 
L 16.098123 41.826444 
L 19.881818 41.848538 
L 19.882275 41.752519 
L 20.009122 39.264939 
L 20.341484 33.625931 
L 20.348716 12.700693 
L 20.447219 39.925099 
L 20.661367 40.887443 
L 20.892873 41.116533 
L 21.344864 41.182802 
L 23.061136 41.06276 
L 23.545284 40.858246 
L 23.908395 40.484124 
L 24.392543 39.539278 
L 25.391097 37.335483 
L 26.090196 36.219661 
L 26.096589 33.194517 
L 26.103709 13.072847 
L 26.201105 40.058832 
L 26.424543 41.072608 
L 26.645163 41.274528 
L 27.045322 41.310627 
L 28.615272 41.110833 
L 29.056038 40.872611 
L 29.520292 40.280633 
L 30.081364 39.042907 
L 30.77716 37.640018 
L 31.319219 37.044629 
L 31.824107 36.466159 
L 31.845532 35.746552 
L 31.854739 12.99208 
L 31.947795 40.072594 
L 32.160745 41.121712 
L 32.383345 41.339779 
L 32.80065 41.371135 
L 34.393385 41.143469 
L 34.818114 40.902374 
L 35.242844 40.372546 
L 35.773755 39.250755 
L 36.517032 37.766717 
L 37.12758 37.133242 
L 37.763676 36.523976 
L 37.790739 35.951408 
L 37.800237 12.964503 
L 37.892974 40.09264 
L 38.099766 41.139133 
L 38.324673 41.365986 
L 38.687333 41.399917 
L 40.312575 41.168589 
L 40.776929 40.905451 
L 41.163892 40.426707 
L 41.705639 39.306721 
L 42.402171 37.896702 
L 42.943918 37.287257 
L 43.807869 36.469476 
L 43.82181 35.448698 
L 43.83059 12.943149 
L 43.925085 40.119675 
L 44.126529 41.14304 
L 44.345578 41.371689 
L 44.755675 41.404943 
L 46.367193 41.165023 
L 46.810365 40.905957 
L 47.253536 40.330201 
L 47.918294 38.89034 
L 48.472259 37.849605 
L 49.086908 37.208811 
L 49.72139 36.744119 
L 49.722763 36.927774 
L 49.852913 39.168765 
L 50.127574 41.02745 
L 50.467993 41.921071 
L 50.817082 42.216713 
L 51.274332 42.244827 
L 53.433419 42.02735 
L 54.197326 42.010739 
L 54.197326 42.010739 
" clip-path="url(#pefb7d9c73c)" style="fill: none; stroke: #000000; stroke-linecap: square"/>
   </g>
  </g>
  <g id="axes_2">
   <g id="patch_3">
    <path d="M 66.282353 45 
L 115.517647 45 
L 115.517647 7.2 
L 66.282353 7.2 
z
" style="fill: #ffffff"/>
   </g>
   <g id="matplotlib.axis_3"/>
   <g id="matplotlib.axis_4"/>
   <g id="line2d_2">
    <path d="M 68.520321 38.25 
L 68.636738 39.430728 
L 68.941558 40.82937 
L 69.314905 41.552535 
L 69.681947 41.825297 
L 70.23251 41.90205 
L 75.180476 41.826444 
L 78.964171 41.848538 
L 78.964562 41.74198 
L 79.087171 38.75801 
L 79.277293 34.091534 
L 79.284484 12.600834 
L 79.38232 39.67654 
L 79.590746 40.483155 
L 79.862535 40.676374 
L 80.405539 40.72151 
L 82.145472 40.58604 
L 82.607971 40.343406 
L 82.916304 39.981474 
L 83.325305 39.134962 
L 84.528601 35.622673 
L 84.53801 13.453222 
L 84.625608 39.773616 
L 84.831884 40.642791 
L 85.071234 40.845597 
L 85.563711 40.868256 
L 87.02718 40.667902 
L 87.456244 40.420819 
L 87.885308 39.852546 
L 88.457394 38.485665 
L 89.155116 36.89262 
L 89.498776 36.043884 
L 89.507444 34.297228 
L 89.51519 13.361134 
L 89.611603 39.91807 
L 89.813844 40.75204 
L 90.039719 40.939962 
L 90.472772 40.958809 
L 91.888495 40.765405 
L 92.329237 40.56325 
L 92.769979 40.076238 
L 93.210721 39.166449 
L 94.232275 36.847982 
L 94.547679 36.21403 
L 94.566878 35.34147 
L 94.575656 13.306162 
L 94.668114 39.916639 
L 94.878166 40.810868 
L 95.101905 40.991034 
L 95.560964 41.000924 
L 97.131559 40.736586 
L 97.500977 40.507931 
L 97.870394 40.049746 
L 98.424521 38.830673 
L 99.1175 37.247999 
L 99.667502 36.115347 
L 99.67506 33.706578 
L 99.682548 13.258911 
L 99.780211 39.977045 
L 99.990748 40.845662 
L 100.24218 41.023962 
L 100.762515 41.011449 
L 102.316635 40.718514 
L 102.803375 40.31413 
L 103.274859 39.48755 
L 104.572642 36.744807 
L 104.800016 36.211904 
L 104.812921 34.965064 
L 104.821207 13.238009 
L 104.915026 39.952517 
L 105.12582 40.850857 
L 105.35346 41.028075 
L 105.820712 41.030501 
L 107.434067 40.735435 
L 107.895026 40.383849 
L 108.355984 39.624277 
L 108.803743 38.532002 
L 108.806854 38.875397 
L 108.946442 40.915282 
L 109.210436 42.088737 
L 109.458757 42.40789 
L 109.737687 42.477856 
L 110.353551 42.344188 
L 111.449557 42.149431 
L 113.279679 42.066357 
L 113.279679 42.066357 
" clip-path="url(#pbf5c5b0098)" style="fill: none; stroke: #000000; stroke-linecap: square"/>
   </g>
  </g>
  <g id="axes_3">
   <g id="patch_4">
    <path d="M 125.364706 45 
L 174.6 45 
L 174.6 7.2 
L 125.364706 7.2 
z
" style="fill: #ffffff"/>
   </g>
   <g id="matplotlib.axis_5"/>
   <g id="matplotlib.axis_6"/>
   <g id="line2d_3">
    <path d="M 127.602674 38.25 
L 127.719091 39.430728 
L 128.023911 40.82937 
L 128.397258 41.552535 
L 128.7643 41.825297 
L 129.314863 41.90205 
L 134.262829 41.826444 
L 138.046524 41.848538 
L 138.04669 41.748247 
L 138.167513 36.699516 
L 138.191287 32.615779 
L 138.196891 12.183288 
L 138.296386 39.142599 
L 138.421892 39.142175 
L 138.770497 39.043056 
L 140.712367 38.980732 
L 141.290557 38.812125 
L 141.676016 38.463278 
L 142.043704 37.778302 
L 142.583741 36.097253 
L 142.830725 34.862856 
L 142.843235 32.014103 
L 142.849402 15.272393 
L 142.947364 38.783414 
L 143.152297 39.182651 
L 143.460169 39.261485 
L 144.482402 39.17999 
L 145.178898 39.02499 
L 145.527146 38.805957 
L 145.875394 38.362254 
L 146.223642 37.587452 
L 146.927773 35.21807 
L 146.965997 33.901421 
L 146.973605 15.26986 
L 147.067611 38.846907 
L 147.261937 39.310298 
L 147.551858 39.40152 
L 148.403989 39.319512 
L 149.340008 39.101914 
L 149.67371 38.873257 
L 150.007412 38.434318 
L 150.451865 37.40048 
L 151.097757 35.156283 
L 151.12255 33.697691 
L 151.130039 15.157193 
L 151.225741 38.923508 
L 151.428877 39.402344 
L 151.712311 39.483657 
L 152.580656 39.383482 
L 153.451127 39.17889 
L 153.915317 38.842082 
L 154.379507 38.065601 
L 154.998426 36.29901 
L 155.286151 35.030169 
L 155.300469 32.576134 
L 155.307082 15.098731 
L 155.405347 38.97247 
L 155.599043 39.442544 
L 155.839419 39.52674 
L 156.548741 39.453523 
L 157.747389 39.152458 
L 158.198225 38.747346 
L 158.649061 37.884196 
L 159.412455 35.550014 
L 159.488276 34.678438 
L 159.497071 24.159451 
L 159.498747 15.072922 
L 159.606119 39.035464 
L 159.800876 39.475431 
L 160.059112 39.55183 
L 160.886201 39.449726 
L 161.855707 39.211015 
L 162.286598 38.891291 
L 162.71749 38.192513 
L 163.256104 36.714524 
L 163.67439 35.083014 
L 163.689388 32.761329 
L 163.696235 15.030645 
L 163.791135 38.985277 
L 163.991653 39.483279 
L 164.253261 39.56482 
L 165.057867 39.4648 
L 166.063634 39.215848 
L 166.510642 38.872771 
L 166.845897 38.352268 
L 167.292905 37.220292 
L 167.871274 35.192456 
L 167.894795 35.565798 
L 167.899895 33.249438 
L 167.909711 15.394066 
L 168.001333 40.623785 
L 168.19936 42.792965 
L 168.430561 43.245824 
L 168.709943 43.310807 
L 170.981691 43.098924 
L 171.770243 42.866321 
L 172.362032 42.577454 
L 172.362032 42.577454 
" clip-path="url(#p3505aa170b)" style="fill: none; stroke: #000000; stroke-linecap: square"/>
   </g>
  </g>
  <g id="axes_4">
   <g id="patch_5">
    <path d="M 7.2 90.36 
L 56.435294 90.36 
L 56.435294 52.56 
L 7.2 52.56 
z
" style="fill: #ffffff"/>
   </g>
   <g id="matplotlib.axis_7"/>
   <g id="matplotlib.axis_8"/>
   <g id="line2d_4">
    <path d="M 9.437968 83.61 
L 9.554773 83.764724 
L 10.249437 84.27646 
L 11.236247 84.67609 
L 12.410736 84.918623 
L 14.690698 85.113318 
L 19.541094 85.184811 
L 31.444969 85.110895 
L 31.567416 81.463698 
L 31.605324 78.59845 
L 31.629113 56.523672 
L 31.71123 80.8028 
L 31.842525 84.893543 
L 32.034559 85.923103 
L 32.466332 86.833495 
L 32.952768 87.444381 
L 33.515417 87.797779 
L 34.191393 87.971235 
L 35.443141 88.039353 
L 44.1826 87.900407 
L 47.567716 87.7442 
L 50.354316 87.356846 
L 54.197326 86.463302 
L 54.197326 86.463302 
" clip-path="url(#p08d13b50a8)" style="fill: none; stroke: #000000; stroke-linecap: square"/>
   </g>
  </g>
  <g id="axes_5">
   <g id="patch_6">
    <path d="M 66.282353 90.36 
L 115.517647 90.36 
L 115.517647 52.56 
L 66.282353 52.56 
z
" style="fill: #ffffff"/>
   </g>
   <g id="matplotlib.axis_9"/>
   <g id="matplotlib.axis_10"/>
   <g id="line2d_5">
    <path d="M 68.520321 83.61 
L 68.958508 83.613048 
L 70.3186 83.651282 
L 74.465965 83.91425 
L 82.11537 83.927957 
L 90.765533 83.814477 
L 90.844201 83.318363 
L 90.943475 81.012479 
L 91.064186 71.54087 
L 91.109549 68.651938 
L 91.173973 71.674153 
L 91.416139 80.840081 
L 91.661949 82.516274 
L 92.035121 83.491911 
L 92.502544 84.154054 
L 93.126211 84.669538 
L 93.716352 84.916842 
L 94.525494 85.028177 
L 96.14378 84.942316 
L 99.650066 84.738967 
L 112.22327 84.397621 
L 113.279679 84.319722 
L 113.279679 84.319722 
" clip-path="url(#p33e13db1f7)" style="fill: none; stroke: #000000; stroke-linecap: square"/>
   </g>
  </g>
  <g id="axes_6">
   <g id="patch_7">
    <path d="M 125.364706 90.36 
L 174.6 90.36 
L 174.6 52.56 
L 125.364706 52.56 
z
" style="fill: #ffffff"/>
   </g>
   <g id="matplotlib.axis_11"/>
   <g id="matplotlib.axis_12"/>
   <g id="line2d_6">
    <path d="M 127.602674 83.61 
L 128.040861 83.470414 
L 128.808867 83.364557 
L 130.249733 83.43103 
L 133.548318 83.598811 
L 141.197723 83.60806 
L 149.918377 83.497916 
L 150.01467 82.993937 
L 150.131862 80.746336 
L 150.247122 74.159169 
L 150.337788 77.064673 
L 150.538337 80.231715 
L 150.849552 81.736251 
L 151.303572 82.906782 
L 151.775349 83.616025 
L 152.356099 84.11291 
L 153.068419 84.393424 
L 153.877562 84.469349 
L 155.765562 84.322632 
L 158.732419 84.154594 
L 172.362032 83.870164 
L 172.362032 83.870164 
" clip-path="url(#p2a816d2d9c)" style="fill: none; stroke: #000000; stroke-linecap: square"/>
   </g>
  </g>
 </g>
 <defs>
  <clipPath id="pefb7d9c73c">
   <rect x="7.2" y="7.2" width="49.235294" height="37.8"/>
  </clipPath>
  <clipPath id="pbf5c5b0098">
   <rect x="66.282353" y="7.2" width="49.235294" height="37.8"/>
  </clipPath>
  <clipPath id="p3505aa170b">
   <rect x="125.364706" y="7.2" width="49.235294" height="37.8"/>
  </clipPath>
  <clipPath id="p08d13b50a8">
   <rect x="7.2" y="52.56" width="49.235294" height="37.8"/>
  </clipPath>
  <clipPath id="p33e13db1f7">
   <rect x="66.282353" y="52.56" width="49.235294" height="37.8"/>
  </clipPath>
  <clipPath id="p2a816d2d9c">
   <rect x="125.364706" y="52.56" width="49.235294" height="37.8"/>
  </clipPath>
 </defs>
</svg>
