<?xml version="1.0" encoding="utf-8" standalone="no"?>
<!DOCTYPE svg PUBLIC "-//W3C//DTD SVG 1.1//EN"
  "http://www.w3.org/Graphics/SVG/1.1/DTD/svg11.dtd">
<svg xmlns:xlink="http://www.w3.org/1999/xlink" width="181.8pt" height="97.56pt" viewBox="0 0 181.8 97.56" xmlns="http://www.w3.org/2000/svg" version="1.1">
 <metadata>
  <rdf:RDF xmlns:dc="http://purl.org/dc/elements/1.1/" xmlns:cc="http://creativecommons.org/ns#" xmlns:rdf="http://www.w3.org/1999/02/22-rdf-syntax-ns#">
   <cc:Work>
    <dc:type rdf:resource="http://purl.org/dc/dcmitype/StillImage"/>
    <dc:date>2022-05-01T17:41:36.106514</dc:date>
    <dc:format>image/svg+xml</dc:format>
    <dc:creator>
     <cc:Agent>
      <dc:title>Matplotlib v3.5.1, https://matplotlib.org/</dc:title>
     </cc:Agent>
    </dc:creator>
   </cc:Work>
  </rdf:RDF>
 </metadata>
 <defs>
  <style type="text/css">*{stroke-linejoin: round; stroke-linecap: butt}</style>
 </defs>
 <g id="figure_1">
  <g id="patch_1">
   <path d="M 0 97.56 
L 181.8 97.56 
L 181.8 0 
L 0 0 
z
" style="fill: #ffffff"/>
  </g>
  <g id="axes_1">
   <g id="patch_2">
    <path d="M 7.2 45 
L 56.435294 45 
L 56.435294 7.2 
L 7.2 7.2 
z
" style="fill: #ffffff"/>
   </g>
   <g id="matplotlib.axis_1"/>
   <g id="matplotlib.axis_2"/>
   <g id="line2d_1">
    <path d="M 9.437968 38.25 
L 9.554088 39.289311 
L 9.874596 40.668484 
L 10.224481 41.351644 
L 10.58482 41.664514 
L 11.046164 41.786479 
L 12.31145 41.725072 
L 15.004523 41.695168 
L 19.882275 41.602888 
L 20.009159 39.048464 
L 20.345419 33.108845 
L 20.352438 13.157151 
L 20.452614 36.669277 
L 20.577459 37.251693 
L 20.606592 37.218421 
L 20.752255 36.660105 
L 20.956476 35.109546 
L 20.965658 13.619067 
L 21.061368 36.644392 
L 21.186159 37.302716 
L 21.213403 37.288564 
L 21.344491 36.884616 
L 21.644354 35.179424 
L 21.652786 18.603539 
L 21.654205 13.740193 
L 21.760858 36.751612 
L 21.891351 37.370423 
L 21.918803 37.355202 
L 22.061276 36.977861 
L 22.539878 34.950544 
L 22.549184 14.021355 
L 22.64556 36.582359 
L 22.809934 37.394051 
L 22.825718 37.388652 
L 22.951987 37.159137 
L 23.525144 36.026862 
L 23.938924 35.279396 
L 23.963305 34.539956 
L 23.972097 14.328433 
L 24.068494 36.533185 
L 24.258025 37.376281 
L 24.3977 37.179485 
L 24.952174 36.354417 
L 25.994184 35.29378 
L 26.032042 34.713567 
L 26.041196 14.407235 
L 26.137664 36.487747 
L 26.315045 37.336192 
L 26.428018 37.231336 
L 27.090972 36.336679 
L 28.17684 35.276477 
L 28.209527 34.70989 
L 28.218661 14.395844 
L 28.316272 36.45508 
L 28.503172 37.297192 
L 28.621992 37.173832 
L 29.279351 36.3209 
L 30.335076 35.316966 
L 30.379953 34.824898 
L 30.389497 14.394112 
L 30.483364 36.382102 
L 30.671351 37.264218 
L 30.781483 37.16861 
L 31.514832 36.260305 
L 32.473648 35.359152 
L 32.53404 34.912839 
L 32.542484 20.422915 
L 32.544145 14.399073 
L 32.648819 36.464822 
L 32.830363 37.240098 
L 32.957276 37.116535 
L 33.564417 36.33731 
L 34.634792 35.303782 
L 34.676436 34.784876 
L 34.685858 14.394865 
L 34.782204 36.362641 
L 34.975643 37.221482 
L 35.111233 37.083882 
L 35.735648 36.306846 
L 36.756921 35.326808 
L 36.806283 34.826139 
L 36.815867 14.395275 
L 36.909781 36.326688 
L 37.093548 37.207413 
L 37.208821 37.123664 
L 38.006492 36.187065 
L 38.855181 35.392723 
L 38.930721 34.964392 
L 38.938816 26.460971 
L 38.941349 14.396039 
L 39.044374 36.4056 
L 39.236261 37.199985 
L 39.373431 37.057649 
L 39.930706 36.348797 
L 41.004281 35.31541 
L 41.051289 34.844359 
L 41.060959 14.396995 
L 41.155159 36.312231 
L 41.339611 37.190205 
L 41.452946 37.108297 
L 42.170831 36.244556 
L 43.095274 35.374768 
L 43.166769 34.923297 
L 43.175122 22.279122 
L 43.177009 14.404101 
L 43.281396 36.40695 
L 43.476148 37.186259 
L 43.606677 37.049599 
L 44.220272 36.294789 
L 45.218417 35.337279 
L 45.27344 34.889784 
L 45.282306 16.505144 
L 45.283317 14.403562 
L 45.386305 36.38714 
L 45.574752 37.182784 
L 45.700993 37.064979 
L 46.376897 36.251994 
L 47.31944 35.353138 
L 47.384326 34.875857 
L 47.393279 15.904995 
L 47.394182 14.417105 
L 47.49803 36.39201 
L 47.688238 37.177362 
L 47.822523 37.042273 
L 48.333373 36.382721 
L 49.488051 35.190035 
L 49.506001 34.439782 
L 49.51469 14.410354 
L 49.611661 36.328184 
L 50.248914 41.554598 
L 50.55271 42.118992 
L 50.886226 42.31318 
L 51.43053 42.257822 
L 52.927366 41.995103 
L 54.197326 41.91168 
L 54.197326 41.91168 
" clip-path="url(#p60ab0a0190)" style="fill: none; stroke: #000000; stroke-linecap: square"/>
   </g>
  </g>
  <g id="axes_2">
   <g id="patch_3">
    <path d="M 66.282353 45 
L 115.517647 45 
L 115.517647 7.2 
L 66.282353 7.2 
z
" style="fill: #ffffff"/>
   </g>
   <g id="matplotlib.axis_3"/>
   <g id="matplotlib.axis_4"/>
   <g id="line2d_2">
    <path d="M 68.520321 38.25 
L 68.636441 39.289311 
L 68.956949 40.668484 
L 69.306834 41.351644 
L 69.667173 41.664514 
L 70.128517 41.786479 
L 71.393803 41.725072 
L 74.086876 41.695168 
L 78.964562 41.59235 
L 79.087168 38.525384 
L 79.288553 33.273234 
L 79.295426 12.9281 
L 79.397331 36.419948 
L 79.494777 36.702535 
L 79.537848 36.650393 
L 79.668586 36.032336 
L 79.764887 34.685726 
L 79.773474 13.884513 
L 79.869572 36.41962 
L 79.971018 36.87371 
L 80.023031 36.797716 
L 80.201827 35.882781 
L 80.284827 34.644154 
L 80.293397 13.966586 
L 80.389055 36.41843 
L 80.502367 36.937806 
L 80.5419 36.899041 
L 80.691643 36.32424 
L 80.894446 34.78299 
L 80.903538 14.207421 
L 80.998705 36.375004 
L 81.137621 36.965917 
L 81.15404 36.954039 
L 81.285386 36.601674 
L 81.685484 34.779015 
L 81.693346 25.757089 
L 81.695766 14.61808 
L 81.802288 36.44591 
L 81.935185 36.969278 
L 81.954463 36.962874 
L 82.089408 36.687072 
L 82.803816 34.279688 
L 82.812709 14.990845 
L 82.909132 36.316148 
L 83.06543 36.965961 
L 83.084115 36.95794 
L 83.233595 36.684998 
L 83.772385 35.720865 
L 84.291063 34.875056 
L 84.3161 34.148738 
L 84.324981 15.176639 
L 84.421868 36.257837 
L 84.579006 36.926221 
L 84.595075 36.923349 
L 84.739696 36.699815 
L 85.25774 35.844931 
L 85.989894 34.815305 
L 86.007623 33.89598 
L 86.016106 15.191864 
L 86.114292 36.228833 
L 86.282825 36.887087 
L 86.409852 36.71632 
L 86.97441 35.82134 
L 87.680801 34.902468 
L 87.715232 34.318567 
L 87.724402 15.190056 
L 87.819726 36.164255 
L 87.997049 36.852079 
L 88.120636 36.68814 
L 88.680214 35.814743 
L 89.365658 34.948161 
L 89.413422 34.376177 
L 89.422704 15.193001 
L 89.517905 36.132712 
L 89.694153 36.824548 
L 89.816918 36.671409 
L 90.410903 35.770848 
L 91.056226 34.948296 
L 91.104896 34.42959 
L 91.11438 15.207755 
L 91.208132 36.091716 
L 91.379871 36.800829 
L 91.499032 36.670058 
L 92.152819 35.706345 
L 92.71733 34.992461 
L 92.783737 34.490647 
L 92.792096 20.894534 
L 92.79377 15.234703 
L 92.898854 36.173757 
L 93.066906 36.777059 
L 93.190597 36.630876 
L 93.792202 35.740225 
L 94.402172 34.953275 
L 94.454241 34.419232 
L 94.463821 15.214332 
L 94.556206 36.046173 
L 94.736856 36.768242 
L 94.860562 36.6243 
L 95.48267 35.716221 
L 96.065685 34.966087 
L 96.123214 34.428805 
L 96.132755 15.222333 
L 96.222791 36.006805 
L 96.404597 36.754481 
L 96.524021 36.621692 
L 97.301469 35.555869 
L 97.714027 34.993166 
L 97.781975 34.493511 
L 97.79035 20.683124 
L 97.792098 15.231612 
L 97.897743 36.149995 
L 98.067934 36.745653 
L 98.1955 36.594772 
L 98.827832 35.690291 
L 99.395483 34.934103 
L 99.447357 34.301036 
L 99.456479 15.247748 
L 99.552423 36.047912 
L 99.734597 36.735966 
L 99.861211 36.584309 
L 100.488491 35.684869 
L 101.081328 34.777963 
L 101.098245 33.787548 
L 101.106634 15.240456 
L 101.205676 36.073462 
L 101.3742 36.731095 
L 101.494524 36.609403 
L 102.131057 35.689266 
L 102.687756 34.966602 
L 102.747333 34.467947 
L 102.756028 17.692116 
L 102.757134 15.242299 
L 102.859366 36.099113 
L 103.035282 36.726147 
L 103.16886 36.565394 
L 103.748694 35.722386 
L 104.355234 34.892952 
L 104.394494 34.30413 
L 104.40369 15.24265 
L 104.498241 36.020564 
L 104.671715 36.722733 
L 104.792674 36.601006 
L 105.499969 35.61234 
L 105.983382 34.965531 
L 106.046496 34.43416 
L 106.056297 15.260756 
L 106.148737 35.996441 
L 106.327436 36.71871 
L 106.452296 36.586017 
L 107.147169 35.613124 
L 107.628817 34.96537 
L 107.693577 34.41936 
L 107.703261 15.256851 
L 107.796416 36.001883 
L 107.963148 36.714931 
L 108.071445 36.627553 
L 108.803743 35.600616 
L 108.804061 35.693474 
L 108.929246 38.458479 
L 109.208183 40.83843 
L 109.521614 41.896394 
L 109.787956 42.248336 
L 110.147242 42.366086 
L 110.980905 42.206261 
L 112.370342 42.015523 
L 113.279679 41.952877 
L 113.279679 41.952877 
" clip-path="url(#pdda4b6a88e)" style="fill: none; stroke: #000000; stroke-linecap: square"/>
   </g>
  </g>
  <g id="axes_3">
   <g id="patch_4">
    <path d="M 125.364706 45 
L 174.6 45 
L 174.6 7.2 
L 125.364706 7.2 
z
" style="fill: #ffffff"/>
   </g>
   <g id="matplotlib.axis_5"/>
   <g id="matplotlib.axis_6"/>
   <g id="line2d_3">
    <path d="M 127.602674 38.25 
L 127.718794 39.289311 
L 128.039302 40.668484 
L 128.389187 41.351644 
L 128.749526 41.664514 
L 129.21087 41.786479 
L 130.476156 41.725072 
L 133.169229 41.695168 
L 138.04669 41.598639 
L 138.167657 36.366566 
L 138.194868 31.932397 
L 138.200142 12.095972 
L 138.27815 35.955614 
L 138.302336 35.898784 
L 138.450037 34.976672 
L 138.498923 33.364259 
L 138.506469 15.455651 
L 138.607064 35.973256 
L 138.641613 36.043325 
L 138.694562 35.864289 
L 138.82502 34.391174 
L 138.833449 29.952352 
L 138.837912 15.2139 
L 138.938561 35.739835 
L 138.968335 35.793647 
L 139.015031 35.698621 
L 139.141696 34.687285 
L 139.172443 32.795369 
L 139.17952 15.64529 
L 139.278217 35.669578 
L 139.319034 35.753316 
L 139.373301 35.629046 
L 139.515357 34.521066 
L 139.54388 32.642234 
L 139.551015 15.957863 
L 139.650144 35.582626 
L 139.699965 35.693682 
L 139.759295 35.563099 
L 139.917342 34.455957 
L 139.951868 32.750442 
L 139.959336 16.311898 
L 140.059368 35.476846 
L 140.122203 35.616073 
L 140.174062 35.511312 
L 140.340011 34.518908 
L 140.394827 33.033009 
L 140.402832 16.657085 
L 140.502 35.352985 
L 140.566228 35.536076 
L 140.625515 35.442169 
L 140.790949 34.579092 
L 140.869351 33.205615 
L 140.877816 16.963306 
L 140.976397 35.230952 
L 141.054907 35.454834 
L 141.104398 35.380216 
L 141.262062 34.664712 
L 141.369426 33.336102 
L 141.378645 17.228112 
L 141.470765 35.062599 
L 141.559948 35.37839 
L 141.609494 35.317455 
L 141.804419 34.44407 
L 141.890585 33.120401 
L 141.899325 17.398805 
L 141.994539 35.008565 
L 142.087678 35.32378 
L 142.13385 35.26913 
L 142.308905 34.565213 
L 142.42336 33.328401 
L 142.431581 20.569808 
L 142.433219 17.49115 
L 142.53868 35.040906 
L 142.621003 35.286351 
L 142.670767 35.239182 
L 142.852446 34.530163 
L 142.967947 33.381187 
L 142.976185 25.268667 
L 142.979014 17.589618 
L 143.083654 34.978646 
L 143.176556 35.245622 
L 143.219434 35.194576 
L 143.355976 34.737946 
L 143.51877 33.532147 
L 143.5287 29.833623 
L 143.534023 17.654934 
L 143.631129 34.87505 
L 143.728106 35.212905 
L 143.775749 35.168986 
L 143.929373 34.655078 
L 144.082015 33.412888 
L 144.090702 27.813445 
L 144.094633 17.707534 
L 144.197346 34.886411 
L 144.295036 35.183715 
L 144.339137 35.140711 
L 144.495967 34.622753 
L 144.642031 33.559886 
L 144.653283 30.730658 
L 144.659714 17.734976 
L 144.75761 34.814092 
L 144.862277 35.158794 
L 144.903488 35.120463 
L 145.05149 34.659072 
L 145.212429 33.535084 
L 145.223582 30.531507 
L 145.229841 17.787239 
L 145.328441 34.783682 
L 145.438792 35.128377 
L 145.476158 35.091858 
L 145.638077 34.580841 
L 145.787477 33.441236 
L 145.796898 29.271294 
L 145.801694 17.810395 
L 145.902657 34.780055 
L 146.011393 35.110344 
L 146.050276 35.074756 
L 146.225253 34.510264 
L 146.361064 33.442209 
L 146.370679 29.39199 
L 146.375627 17.829459 
L 146.475797 34.749824 
L 146.58331 35.089617 
L 146.622819 35.056496 
L 146.734223 34.759856 
L 146.926884 33.664437 
L 146.945153 31.530356 
L 146.952303 17.845853 
L 147.051292 34.721197 
L 147.162161 35.073811 
L 147.199117 35.044499 
L 147.334287 34.666497 
L 147.51064 33.5343 
L 147.522918 30.575552 
L 147.529278 17.854871 
L 147.628354 34.702746 
L 147.737875 35.054921 
L 147.778631 35.023157 
L 147.919063 34.629485 
L 148.087387 33.55625 
L 148.10047 31.105331 
L 148.107285 17.873833 
L 148.206874 34.687359 
L 148.318651 35.039132 
L 148.351323 35.016809 
L 148.48965 34.649985 
L 148.663263 33.618982 
L 148.679852 31.293594 
L 148.686861 17.885726 
L 148.786626 34.672854 
L 148.897159 35.025014 
L 148.936951 34.99615 
L 149.065169 34.658352 
L 149.242349 33.613007 
L 149.258916 31.444368 
L 149.266001 17.905271 
L 149.365863 34.653018 
L 149.482056 35.007102 
L 149.515946 34.980962 
L 149.647695 34.636632 
L 149.82345 33.573083 
L 149.837743 31.200223 
L 149.844573 17.899196 
L 149.943908 34.641022 
L 150.056456 35.000531 
L 150.093973 34.975147 
L 150.241358 34.576225 
L 150.40121 33.604419 
L 150.41873 31.345191 
L 150.425979 17.956038 
L 150.524456 34.601701 
L 150.636874 34.974268 
L 150.67388 34.951969 
L 150.81728 34.581754 
L 150.983214 33.555206 
L 150.997571 31.026668 
L 151.004478 17.93248 
L 151.103614 34.607204 
L 151.221677 34.972959 
L 151.255027 34.94688 
L 151.383663 34.623696 
L 151.560212 33.606616 
L 151.577374 31.350764 
L 151.584599 17.945731 
L 151.68421 34.598283 
L 151.803168 34.959356 
L 151.834402 34.936323 
L 151.945953 34.676371 
L 152.11551 33.87015 
L 152.154411 32.562094 
L 152.162735 17.912451 
L 152.261582 34.599014 
L 152.38039 34.96394 
L 152.413433 34.940986 
L 152.559768 34.559558 
L 152.725391 33.504401 
L 152.73762 30.475081 
L 152.743819 17.936231 
L 152.843803 34.589602 
L 152.963355 34.947131 
L 153.000109 34.918631 
L 153.13556 34.567229 
L 153.300487 33.586724 
L 153.316285 31.382102 
L 153.323454 17.932875 
L 153.422155 34.571382 
L 153.542341 34.940128 
L 153.576345 34.916331 
L 153.693592 34.637513 
L 153.876468 33.640724 
L 153.895392 31.651716 
L 153.902851 17.931181 
L 154.003324 34.582253 
L 154.124671 34.935083 
L 154.15484 34.913242 
L 154.299649 34.543474 
L 154.457086 33.62471 
L 154.475865 31.632741 
L 154.483273 17.963891 
L 154.582826 34.553722 
L 154.700342 34.921701 
L 154.734512 34.90033 
L 154.85411 34.624243 
L 155.038561 33.583462 
L 155.054727 31.363135 
L 155.061774 17.965855 
L 155.161773 34.551996 
L 155.276148 34.916836 
L 155.312634 34.895391 
L 155.443982 34.584138 
L 155.621896 33.526637 
L 155.635234 30.977132 
L 155.642125 17.964473 
L 155.742184 34.552073 
L 155.862424 34.914274 
L 155.895217 34.89227 
L 156.026388 34.573396 
L 156.187418 33.731216 
L 156.214432 32.072827 
L 156.222209 17.963857 
L 156.322421 34.547155 
L 156.44267 34.907949 
L 156.476409 34.885396 
L 156.60036 34.590884 
L 156.775475 33.629646 
L 156.794337 31.75498 
L 156.801843 17.960371 
L 156.900519 34.529843 
L 157.022513 34.90295 
L 157.054944 34.881983 
L 157.172827 34.610181 
L 157.352263 33.661601 
L 157.373863 31.893682 
L 157.381356 17.97954 
L 157.481365 34.527789 
L 157.605544 34.893573 
L 157.634423 34.873994 
L 157.775929 34.527054 
L 157.940929 33.515294 
L 157.953833 30.952415 
L 157.960634 17.96514 
L 158.059965 34.527502 
L 158.187235 34.89332 
L 158.210396 34.878436 
L 158.343575 34.568648 
L 158.514911 33.613753 
L 158.53322 31.753029 
L 158.540742 17.978302 
L 158.639954 34.515941 
L 158.763888 34.888199 
L 158.793177 34.867582 
L 158.929636 34.543147 
L 159.099899 33.528451 
L 159.113821 31.119357 
L 159.120771 17.990507 
L 159.22154 34.519136 
L 159.342432 34.880002 
L 159.371186 34.863159 
L 159.500581 34.567749 
L 159.672783 33.631873 
L 159.692832 31.801252 
L 159.700315 18.000752 
L 159.797606 34.485405 
L 159.922219 34.8778 
L 159.950357 34.862789 
L 160.074971 34.582986 
L 160.255671 33.590822 
L 160.272777 31.669902 
L 160.280182 17.992946 
L 160.380364 34.510427 
L 160.494343 34.877341 
L 160.533602 34.857984 
L 160.656988 34.575688 
L 160.8266 33.701842 
L 160.852125 32.094764 
L 160.859901 18.007138 
L 160.959837 34.495806 
L 161.086475 34.865851 
L 161.111145 34.850377 
L 161.235921 34.572897 
L 161.41548 33.620658 
L 161.435127 31.789525 
L 161.442634 18.026676 
L 161.543725 34.495053 
L 161.657367 34.860278 
L 161.699194 34.839634 
L 161.826908 34.539278 
L 161.997204 33.580863 
L 162.014091 31.501025 
L 162.02144 18.005402 
L 162.122323 34.505084 
L 162.246182 34.865428 
L 162.273901 34.848969 
L 162.392698 34.58622 
L 162.563219 33.748334 
L 162.593437 32.27722 
L 162.601419 18.006938 
L 162.700778 34.487777 
L 162.822417 34.861365 
L 162.853607 34.842977 
L 162.983711 34.547349 
L 163.146397 33.711992 
L 163.173364 32.148007 
L 163.18133 18.021505 
L 163.282035 34.493974 
L 163.401378 34.857256 
L 163.432234 34.84204 
L 163.546871 34.59824 
L 163.72968 33.676263 
L 163.753836 31.987958 
L 163.761521 18.019272 
L 163.861118 34.480456 
L 163.979871 34.853745 
L 164.012925 34.836694 
L 164.139635 34.556536 
L 164.315928 33.595756 
L 164.333651 31.812992 
L 164.341135 18.00956 
L 164.439996 34.479862 
L 164.562469 34.857204 
L 164.592524 34.840989 
L 164.721199 34.553386 
L 164.896595 33.588501 
L 164.914144 31.625246 
L 164.921478 18.009485 
L 165.021913 34.487968 
L 165.148632 34.853809 
L 165.176575 34.834709 
L 165.299526 34.556318 
L 165.47677 33.582258 
L 165.493728 31.694628 
L 165.50117 18.008244 
L 165.601845 34.492124 
L 165.724471 34.853856 
L 165.754211 34.83704 
L 165.878388 34.559579 
L 166.055669 33.597296 
L 166.074553 31.511435 
L 166.08184 18.034035 
L 166.181812 34.471551 
L 166.31019 34.842386 
L 166.335866 34.826539 
L 166.451406 34.576068 
L 166.630273 33.687041 
L 166.655262 32.088237 
L 166.663128 18.02051 
L 166.764058 34.487608 
L 166.888953 34.847226 
L 166.913754 34.833303 
L 167.050984 34.51963 
L 167.220294 33.550903 
L 167.235911 31.328567 
L 167.243132 18.025295 
L 167.344061 34.48348 
L 167.465619 34.844762 
L 167.495003 34.829542 
L 167.634291 34.507541 
L 167.802196 33.516959 
L 167.816275 31.188134 
L 167.82318 18.047107 
L 167.919463 36.288257 
L 168.119535 40.239001 
L 168.384683 41.898185 
L 168.677531 42.555931 
L 168.984322 42.74202 
L 169.51594 42.683321 
L 170.761978 42.51785 
L 172.362032 42.464825 
L 172.362032 42.464825 
" clip-path="url(#pd3c2483628)" style="fill: none; stroke: #000000; stroke-linecap: square"/>
   </g>
  </g>
  <g id="axes_4">
   <g id="patch_5">
    <path d="M 7.2 90.36 
L 56.435294 90.36 
L 56.435294 52.56 
L 7.2 52.56 
z
" style="fill: #ffffff"/>
   </g>
   <g id="matplotlib.axis_7"/>
   <g id="matplotlib.axis_8"/>
   <g id="line2d_4">
    <path d="M 9.437968 83.61 
L 9.578031 83.719867 
L 10.414022 84.138339 
L 11.618519 84.450835 
L 13.387953 84.657839 
L 16.55009 84.795232 
L 24.039919 84.827916 
L 31.444969 84.730416 
L 31.57236 80.871002 
L 31.590961 77.426528 
L 31.613136 56.080486 
L 31.705796 76.188341 
L 31.850484 82.19276 
L 32.047504 83.518881 
L 32.403852 84.439513 
L 32.784358 84.869672 
L 33.350089 85.149689 
L 34.241469 85.303173 
L 35.519932 85.296348 
L 43.435584 84.88089 
L 54.197326 84.863066 
L 54.197326 84.863066 
" clip-path="url(#peb7db7934b)" style="fill: none; stroke: #000000; stroke-linecap: square"/>
   </g>
  </g>
  <g id="axes_5">
   <g id="patch_6">
    <path d="M 66.282353 90.36 
L 115.517647 90.36 
L 115.517647 52.56 
L 66.282353 52.56 
z
" style="fill: #ffffff"/>
   </g>
   <g id="matplotlib.axis_9"/>
   <g id="matplotlib.axis_10"/>
   <g id="line2d_5">
    <path d="M 68.520321 83.61 
L 68.990716 83.552992 
L 70.057471 83.455199 
L 72.470306 83.575575 
L 76.381425 83.704073 
L 90.639703 83.698697 
L 90.767915 83.541019 
L 90.845736 82.705464 
L 90.930747 78.721755 
L 91.035821 65.481051 
L 91.136823 70.44529 
L 91.329109 74.252403 
L 91.626217 79.033164 
L 91.987351 82.686002 
L 92.291505 83.92675 
L 92.573379 84.376373 
L 92.894998 84.547043 
L 93.431028 84.54781 
L 95.203302 84.157151 
L 97.006352 83.88399 
L 99.511618 83.745828 
L 106.02531 83.718606 
L 113.279679 83.71954 
L 113.279679 83.71954 
" clip-path="url(#p0134a36cea)" style="fill: none; stroke: #000000; stroke-linecap: square"/>
   </g>
  </g>
  <g id="axes_6">
   <g id="patch_7">
    <path d="M 125.364706 90.36 
L 174.6 90.36 
L 174.6 52.56 
L 125.364706 52.56 
z
" style="fill: #ffffff"/>
   </g>
   <g id="matplotlib.axis_11"/>
   <g id="matplotlib.axis_12"/>
   <g id="line2d_6">
    <path d="M 127.602674 83.61 
L 128.073069 83.40628 
L 128.76576 83.234558 
L 129.783225 83.189645 
L 139.957676 83.414867 
L 149.903186 83.293125 
L 149.985244 82.735864 
L 150.069528 80.192874 
L 150.33155 69.91349 
L 150.350071 69.864997 
L 150.391676 70.131583 
L 150.520562 73.098704 
L 150.893283 80.345264 
L 151.162453 82.75996 
L 151.444327 83.865298 
L 151.762938 84.299726 
L 152.084557 84.39426 
L 152.727794 84.287574 
L 155.18718 83.678271 
L 157.090811 83.484757 
L 160.598184 83.413243 
L 172.362032 83.419087 
L 172.362032 83.419087 
" clip-path="url(#p2b16e5a040)" style="fill: none; stroke: #000000; stroke-linecap: square"/>
   </g>
  </g>
 </g>
 <defs>
  <clipPath id="p60ab0a0190">
   <rect x="7.2" y="7.2" width="49.235294" height="37.8"/>
  </clipPath>
  <clipPath id="pdda4b6a88e">
   <rect x="66.282353" y="7.2" width="49.235294" height="37.8"/>
  </clipPath>
  <clipPath id="pd3c2483628">
   <rect x="125.364706" y="7.2" width="49.235294" height="37.8"/>
  </clipPath>
  <clipPath id="peb7db7934b">
   <rect x="7.2" y="52.56" width="49.235294" height="37.8"/>
  </clipPath>
  <clipPath id="p0134a36cea">
   <rect x="66.282353" y="52.56" width="49.235294" height="37.8"/>
  </clipPath>
  <clipPath id="p2b16e5a040">
   <rect x="125.364706" y="52.56" width="49.235294" height="37.8"/>
  </clipPath>
 </defs>
</svg>
