<?xml version="1.0" encoding="utf-8" standalone="no"?>
<!DOCTYPE svg PUBLIC "-//W3C//DTD SVG 1.1//EN"
  "http://www.w3.org/Graphics/SVG/1.1/DTD/svg11.dtd">
<svg xmlns:xlink="http://www.w3.org/1999/xlink" width="181.8pt" height="55.98pt" viewBox="0 0 181.8 55.98" xmlns="http://www.w3.org/2000/svg" version="1.1">
 <metadata>
  <rdf:RDF xmlns:dc="http://purl.org/dc/elements/1.1/" xmlns:cc="http://creativecommons.org/ns#" xmlns:rdf="http://www.w3.org/1999/02/22-rdf-syntax-ns#">
   <cc:Work>
    <dc:type rdf:resource="http://purl.org/dc/dcmitype/StillImage"/>
    <dc:date>2022-04-25T16:11:40.913271</dc:date>
    <dc:format>image/svg+xml</dc:format>
    <dc:creator>
     <cc:Agent>
      <dc:title>Matplotlib v3.5.1, https://matplotlib.org/</dc:title>
     </cc:Agent>
    </dc:creator>
   </cc:Work>
  </rdf:RDF>
 </metadata>
 <defs>
  <style type="text/css">*{stroke-linejoin: round; stroke-linecap: butt}</style>
 </defs>
 <g id="figure_1">
  <g id="patch_1">
   <path d="M 0 55.98 
L 181.8 55.98 
L 181.8 -0 
L 0 -0 
z
" style="fill: #ffffff"/>
  </g>
  <g id="axes_1">
   <g id="patch_2">
    <path d="M 7.2 48.78 
L 56.435294 48.78 
L 56.435294 7.2 
L 7.2 7.2 
z
" style="fill: #ffffff"/>
   </g>
   <g id="matplotlib.axis_1"/>
   <g id="matplotlib.axis_2"/>
   <g id="line2d_1">
    <path d="M 9.437968 41.355 
L 9.549392 42.543349 
L 9.829606 43.969843 
L 10.178223 44.782497 
L 10.554149 45.157282 
L 11.029421 45.29324 
L 12.178659 45.234118 
L 14.764443 45.203997 
L 19.882275 45.106751 
L 20.009132 42.339191 
L 20.293205 36.819087 
L 20.300674 14.575081 
L 20.400426 42.65008 
L 20.601498 44.540086 
L 20.81331 44.910884 
L 21.131165 44.988978 
L 21.540687 44.896224 
L 21.942712 44.5632 
L 22.244231 44.028651 
L 22.646257 42.825057 
L 23.732631 38.36267 
L 23.74163 15.336399 
L 23.835783 42.614414 
L 24.035144 44.521877 
L 24.254171 44.900481 
L 24.526825 44.931932 
L 24.88922 44.716512 
L 25.257896 44.159662 
L 25.632855 43.167582 
L 26.836712 38.779854 
L 26.842874 34.538177 
L 26.84919 15.363684 
L 26.941005 42.560269 
L 27.146457 44.530113 
L 27.358599 44.894152 
L 27.629577 44.92794 
L 27.962762 44.740338 
L 28.26409 44.341056 
L 28.66586 43.382196 
L 29.906504 39.146976 
L 29.946801 38.240342 
L 29.955659 15.384616 
L 30.04979 42.596157 
L 30.249607 44.514315 
L 30.46624 44.892706 
L 30.733894 44.926458 
L 31.094088 44.71458 
L 31.429223 44.227611 
L 31.876521 43.053856 
L 33.047906 38.821525 
L 33.054887 35.70128 
L 33.0621 15.375894 
L 33.161153 42.687195 
L 33.373941 44.575166 
L 33.585643 44.89914 
L 33.862918 44.919636 
L 34.173357 44.738085 
L 34.483796 44.321191 
L 34.914312 43.267483 
L 36.149432 38.875814 
L 36.158623 36.768956 
L 36.166361 15.372195 
L 36.264024 42.659884 
L 36.472642 44.555762 
L 36.676821 44.890967 
L 36.943731 44.92517 
L 37.303565 44.71354 
L 37.651807 44.201126 
L 38.118162 42.949294 
L 39.262716 38.617296 
L 39.271434 21.526959 
L 39.272658 15.374024 
L 39.376227 42.765637 
L 39.579825 44.558565 
L 39.81126 44.90609 
L 40.099872 44.911329 
L 40.4212 44.70159 
L 40.742528 44.230987 
L 41.148723 43.195772 
L 42.363358 38.848913 
L 42.371331 36.370605 
L 42.378812 15.381889 
L 42.47788 42.682665 
L 42.683942 44.551339 
L 42.913543 44.904064 
L 43.199717 44.913253 
L 43.518036 44.711047 
L 43.836356 44.254861 
L 44.240602 43.240736 
L 45.467177 38.908317 
L 45.478359 37.1937 
L 45.486327 15.382623 
L 45.584109 42.659653 
L 45.785796 44.531734 
L 45.999832 44.89227 
L 46.273227 44.922314 
L 46.607395 44.72833 
L 46.941563 44.258824 
L 47.319412 43.328505 
L 48.557664 39.06019 
L 48.583565 38.029879 
L 48.592219 15.372252 
L 48.685869 42.584439 
L 48.890056 44.526236 
L 49.102668 44.890506 
L 49.374207 44.923675 
L 49.72139 44.721239 
L 49.722764 44.918876 
L 49.852086 46.294754 
L 50.036132 46.64461 
L 50.272757 46.648758 
L 50.678056 46.395393 
L 51.883952 45.474037 
L 52.574661 45.292729 
L 54.042697 45.240992 
L 54.197326 45.240357 
L 54.197326 45.240357 
" clip-path="url(#pcb9f7d144d)" style="fill: none; stroke: #000000; stroke-linecap: square"/>
   </g>
  </g>
  <g id="axes_2">
   <g id="patch_3">
    <path d="M 66.282353 48.78 
L 115.517647 48.78 
L 115.517647 7.2 
L 66.282353 7.2 
z
" style="fill: #ffffff"/>
   </g>
   <g id="matplotlib.axis_3"/>
   <g id="matplotlib.axis_4"/>
   <g id="line2d_2">
    <path d="M 68.520321 41.355 
L 68.638962 42.539301 
L 68.934493 44.016781 
L 69.25485 44.784504 
L 69.649071 45.193114 
L 70.126415 45.319521 
L 71.439114 45.237121 
L 74.303183 45.209599 
L 78.964628 45.106771 
L 79.091507 42.299494 
L 79.443621 35.501981 
L 79.452083 13.87222 
L 79.54449 42.973501 
L 79.712674 45.547377 
L 79.888171 45.821256 
L 80.115632 45.767845 
L 80.65405 45.316013 
L 81.149507 45.020816 
L 81.870217 44.898749 
L 84.851934 44.838831 
L 90.160622 44.639685 
L 93.47705 44.324595 
L 96.4384 43.822342 
L 99.133983 43.131305 
L 102.213376 42.096081 
L 107.440084 40.304659 
L 108.803743 39.943405 
L 108.80403 40.021551 
L 108.916377 42.330291 
L 109.196708 44.600832 
L 109.501752 45.549335 
L 109.775691 45.858132 
L 110.107114 45.935086 
L 111.101384 45.749308 
L 112.648026 45.607035 
L 113.279679 45.57679 
L 113.279679 45.57679 
" clip-path="url(#p952d8cc6cf)" style="fill: none; stroke: #000000; stroke-linecap: square"/>
   </g>
  </g>
  <g id="axes_3">
   <g id="patch_4">
    <path d="M 125.364706 48.78 
L 174.6 48.78 
L 174.6 7.2 
L 125.364706 7.2 
z
" style="fill: #ffffff"/>
   </g>
   <g id="matplotlib.axis_5"/>
   <g id="matplotlib.axis_6"/>
   <g id="line2d_3">
    <path d="M 127.602674 41.355 
L 127.717704 42.584838 
L 128.043183 44.176955 
L 128.375776 44.892344 
L 128.780848 45.245165 
L 129.228519 45.333651 
L 138.046595 45.190531 
L 138.15933 42.556636 
L 138.471785 39.41945 
L 138.791914 36.966078 
L 138.800765 15.452194 
L 138.898122 41.001196 
L 139.014221 41.007224 
L 139.027449 40.997812 
L 140.350892 40.018457 
L 143.39477 37.943032 
L 143.424017 37.482685 
L 143.434247 15.894535 
L 143.525011 40.890789 
L 143.679462 41.00518 
L 143.929204 40.831557 
L 146.479579 38.924168 
L 147.880588 37.92577 
L 147.904141 37.410698 
L 147.914154 15.888201 
L 148.007066 40.880539 
L 148.163718 40.99582 
L 148.40984 40.849596 
L 149.272943 40.186531 
L 151.029204 38.85696 
L 152.301659 37.960458 
L 152.323674 37.45924 
L 152.333659 15.801165 
L 152.422793 40.882147 
L 152.577972 40.987858 
L 152.827249 40.842385 
L 156.683133 37.830553 
L 156.689489 35.304497 
L 156.69734 15.800228 
L 156.791563 40.88463 
L 156.951927 40.968666 
L 157.225063 40.800005 
L 158.635303 39.652021 
L 159.783827 38.835396 
L 160.996487 38.002336 
L 161.034891 37.628721 
L 161.045578 15.821574 
L 161.128417 40.841103 
L 161.276716 40.95268 
L 161.498221 40.838112 
L 162.339601 40.179582 
L 164.048394 38.871972 
L 165.361241 37.9592 
L 165.389548 37.470184 
L 165.399639 15.849251 
L 165.490735 40.847614 
L 165.649161 40.935403 
L 165.911716 40.778116 
L 167.886096 39.197656 
L 167.887469 39.40078 
L 168.022496 41.858435 
L 168.314066 44.012267 
L 168.631853 45.010226 
L 168.965371 45.422909 
L 169.271869 45.524634 
L 169.970564 45.432335 
L 171.238971 45.27467 
L 172.362032 45.2453 
L 172.362032 45.2453 
" clip-path="url(#p5f03ed57e0)" style="fill: none; stroke: #000000; stroke-linecap: square"/>
   </g>
  </g>
 </g>
 <defs>
  <clipPath id="pcb9f7d144d">
   <rect x="7.2" y="7.2" width="49.235294" height="41.58"/>
  </clipPath>
  <clipPath id="p952d8cc6cf">
   <rect x="66.282353" y="7.2" width="49.235294" height="41.58"/>
  </clipPath>
  <clipPath id="p5f03ed57e0">
   <rect x="125.364706" y="7.2" width="49.235294" height="41.58"/>
  </clipPath>
 </defs>
</svg>
