<?xml version='1.0' encoding='ASCII' standalone='yes'?>
<svg xmlns="http://www.w3.org/2000/svg" xmlns:xlink="http://www.w3.org/1999/xlink" version="1.1" width="15.7cm" viewBox="0 0 15.7cm 3.8cm" height="3.8cm">
  <g>
    <g transform="translate(-5, 5) scale(1) ">
      <g transform="translate(0, 0) scale(1) translate(0, 0) scale(1.25) "><metadata>
  <rdf:RDF xmlns:dc="http://purl.org/dc/elements/1.1/" xmlns:cc="http://creativecommons.org/ns#" xmlns:rdf="http://www.w3.org/1999/02/22-rdf-syntax-ns#">
   <cc:Work>
    <dc:type rdf:resource="http://purl.org/dc/dcmitype/StillImage"/>
    <dc:date>2022-04-13T18:54:35.759102</dc:date>
    <dc:format>image/svg+xml</dc:format>
    <dc:creator>
     <cc:Agent>
      <dc:title>Matplotlib v3.5.1, https://matplotlib.org/</dc:title>
     </cc:Agent>
    </dc:creator>
   </cc:Work>
  </rdf:RDF>
 </metadata>
 <defs>
  <style type="text/css">*{stroke-linejoin: round; stroke-linecap: butt}</style>
 </defs>
 <g id="figure_1">
  <g id="patch_1">
   <path d="M 0 103.7585  L 153.9 103.7585  L 153.9 0  L 0 0  z " style="fill: #ffffff"/>
  </g>
  <g id="axes_1">
   <g id="patch_2">
    <path d="M 7.2 84.816  L 146.7 84.816  L 146.7 7.2  L 7.2 7.2  z " style="fill: #ffffff"/>
   </g>
   <g id="PolyCollection_1">
    <defs>
     <path id="mb77c9dabbb" d="M 40.226273 -37.817725  L 40.226273 -20.629804  L 40.483401 -20.629804  L 40.74053 -20.629804  L 40.997659 -20.629804  L 41.254788 -20.629804  L 41.511916 -20.629804  L 41.769045 -20.629804  L 42.026174 -20.629804  L 42.283302 -20.629804  L 42.540431 -20.629804  L 42.79756 -20.629804  L 43.054688 -20.629804  L 43.311817 -20.629804  L 43.568946 -20.629804  L 43.826075 -20.629804  L 44.083203 -20.629804  L 44.340332 -20.629804  L 44.597461 -20.629804  L 44.854589 -20.629804  L 45.111718 -20.629804  L 45.368847 -20.629804  L 45.625975 -20.629804  L 45.883104 -20.629804  L 46.140233 -20.629804  L 46.397361 -20.629804  L 46.65449 -20.629804  L 46.911619 -20.629804  L 47.168748 -20.629804  L 47.425876 -20.629804  L 47.683005 -20.629804  L 47.940134 -20.629804  L 48.197262 -20.629804  L 48.454391 -20.629804  L 48.71152 -20.629804  L 48.968648 -20.629804  L 49.225777 -20.629804  L 49.482906 -20.629804  L 49.740035 -20.629804  L 49.997163 -20.629804  L 50.254292 -20.629804  L 50.511421 -20.629804  L 50.768549 -20.629804  L 51.025678 -20.629804  L 51.282807 -20.629804  L 51.539935 -20.629804  L 51.797064 -20.629804  L 52.054193 -20.629804  L 52.311322 -20.629804  L 52.56845 -20.629804  L 52.825579 -20.629804  L 53.082708 -20.629804  L 53.339836 -20.629804  L 53.596965 -20.629804  L 53.854094 -20.629804  L 54.111222 -20.629804  L 54.368351 -20.629804  L 54.62548 -20.629804  L 54.882609 -20.629804  L 55.139737 -20.629804  L 55.396866 -20.629804  L 55.653995 -20.629804  L 55.911123 -20.629804  L 56.168252 -20.629804  L 56.425381 -20.629804  L 56.682509 -20.629804  L 56.939638 -20.629804  L 57.196767 -20.629804  L 57.453896 -20.629804  L 57.711024 -20.629804  L 57.968153 -20.629804  L 58.225282 -20.629804  L 58.48241 -20.629804  L 58.739539 -20.629804  L 58.996668 -20.629804  L 59.253796 -20.629804  L 59.510925 -20.629804  L 59.768054 -20.629804  L 60.025183 -20.629804  L 60.282311 -20.629804  L 60.53944 -20.629804  L 60.796569 -20.629804  L 61.053697 -20.629804  L 61.310826 -20.629804  L 61.567955 -20.629804  L 61.825083 -20.629804  L 62.082212 -20.629804  L 62.082212 -38.237301  L 62.082212 -38.237301  L 61.825083 -38.777189  L 61.567955 -39.320612  L 61.310826 -39.86682  L 61.053697 -40.415042  L 60.796569 -40.964482  L 60.53944 -41.514318  L 60.282311 -42.063719  L 60.025183 -42.611825  L 59.768054 -43.157768  L 59.510925 -43.700651  L 59.253796 -44.239582  L 58.996668 -44.773645  L 58.739539 -45.301925  L 58.48241 -45.823497  L 58.225282 -46.337426  L 57.968153 -46.842789  L 57.711024 -47.338653  L 57.453896 -47.824102  L 57.196767 -48.298212  L 56.939638 -48.760078  L 56.682509 -49.208811  L 56.425381 -49.643525  L 56.168252 -50.06336  L 55.911123 -50.467477  L 55.653995 -50.855058  L 55.396866 -51.225326  L 55.139737 -51.577494  L 54.882609 -51.910855  L 54.62548 -52.224699  L 54.368351 -52.518367  L 54.111222 -52.79124  L 53.854094 -53.042735  L 53.596965 -53.272314  L 53.339836 -53.479483  L 53.082708 -53.663795  L 52.825579 -53.824847  L 52.56845 -53.962285  L 52.311322 -54.075818  L 52.054193 -54.165188  L 51.797064 -54.230202  L 51.539935 -54.270714  L 51.282807 -54.286642  L 51.025678 -54.277946  L 50.768549 -54.244639  L 50.511421 -54.1868  L 50.254292 -54.104553  L 49.997163 -53.998081  L 49.740035 -53.867613  L 49.482906 -53.713429  L 49.225777 -53.535874  L 48.968648 -53.335322  L 48.71152 -53.112212  L 48.454391 -52.867025  L 48.197262 -52.600278  L 47.940134 -52.312543  L 47.683005 -52.004423  L 47.425876 -51.676569  L 47.168748 -51.329669  L 46.911619 -50.964422  L 46.65449 -50.5816  L 46.397361 -50.181971  L 46.140233 -49.76634  L 45.883104 -49.335536  L 45.625975 -48.89041  L 45.368847 -48.431831  L 45.111718 -47.960683  L 44.854589 -47.477858  L 44.597461 -46.984265  L 44.340332 -46.480826  L 44.083203 -45.968446  L 43.826075 -45.44805  L 43.568946 -44.920559  L 43.311817 -44.386883  L 43.054688 -43.847933  L 42.79756 -43.304604  L 42.540431 -42.757789  L 42.283302 -42.208363  L 42.026174 -41.657181  L 41.769045 -41.105083  L 41.511916 -40.552899  L 41.254788 -40.00142  L 40.997659 -39.451425  L 40.74053 -38.903663  L 40.483401 -38.358865  L 40.226273 -37.817725  z " style="stroke: #808080; stroke-opacity: 0.5"/>
    </defs>
    <g clip-path="url(#p9edb60ccd6)">
     <use xlink:href="#mb77c9dabbb" x="0" y="103.7585" style="fill: #808080; fill-opacity: 0.5; stroke: #808080; stroke-opacity: 0.5"/>
    </g>
   </g>
   <g id="PolyCollection_2">
    <defs>
     <path id="mad519085d7" d="M 82.668091 -38.253851  L 82.668091 -20.629804  L 82.924336 -20.629804  L 83.180581 -20.629804  L 83.436826 -20.629804  L 83.693071 -20.629804  L 83.949316 -20.629804  L 84.20556 -20.629804  L 84.461805 -20.629804  L 84.71805 -20.629804  L 84.974295 -20.629804  L 85.23054 -20.629804  L 85.486785 -20.629804  L 85.74303 -20.629804  L 85.999275 -20.629804  L 86.25552 -20.629804  L 86.511765 -20.629804  L 86.76801 -20.629804  L 87.024255 -20.629804  L 87.2805 -20.629804  L 87.536745 -20.629804  L 87.792989 -20.629804  L 88.049234 -20.629804  L 88.305479 -20.629804  L 88.561724 -20.629804  L 88.817969 -20.629804  L 89.074214 -20.629804  L 89.330459 -20.629804  L 89.586704 -20.629804  L 89.842949 -20.629804  L 90.099194 -20.629804  L 90.355439 -20.629804  L 90.611684 -20.629804  L 90.867929 -20.629804  L 91.124174 -20.629804  L 91.380418 -20.629804  L 91.636663 -20.629804  L 91.892908 -20.629804  L 92.149153 -20.629804  L 92.405398 -20.629804  L 92.661643 -20.629804  L 92.917888 -20.629804  L 93.174133 -20.629804  L 93.430378 -20.629804  L 93.686623 -20.629804  L 93.942868 -20.629804  L 94.199113 -20.629804  L 94.455358 -20.629804  L 94.711603 -20.629804  L 94.967847 -20.629804  L 95.224092 -20.629804  L 95.480337 -20.629804  L 95.736582 -20.629804  L 95.992827 -20.629804  L 96.249072 -20.629804  L 96.505317 -20.629804  L 96.761562 -20.629804  L 97.017807 -20.629804  L 97.274052 -20.629804  L 97.530297 -20.629804  L 97.786542 -20.629804  L 98.042787 -20.629804  L 98.299032 -20.629804  L 98.555276 -20.629804  L 98.811521 -20.629804  L 99.067766 -20.629804  L 99.324011 -20.629804  L 99.580256 -20.629804  L 99.836501 -20.629804  L 100.092746 -20.629804  L 100.348991 -20.629804  L 100.605236 -20.629804  L 100.861481 -20.629804  L 101.117726 -20.629804  L 101.373971 -20.629804  L 101.630216 -20.629804  L 101.886461 -20.629804  L 102.142705 -20.629804  L 102.39895 -20.629804  L 102.655195 -20.629804  L 102.91144 -20.629804  L 103.167685 -20.629804  L 103.42393 -20.629804  L 103.680175 -20.629804  L 103.93642 -20.629804  L 104.192665 -20.629804  L 104.44891 -20.629804  L 104.705155 -20.629804  L 104.9614 -20.629804  L 105.217645 -20.629804  L 105.47389 -20.629804  L 105.730134 -20.629804  L 105.986379 -20.629804  L 106.242624 -20.629804  L 106.498869 -20.629804  L 106.755114 -20.629804  L 107.011359 -20.629804  L 107.267604 -20.629804  L 107.523849 -20.629804  L 107.780094 -20.629804  L 108.036339 -20.629804  L 108.292584 -20.629804  L 108.548829 -20.629804  L 108.805074 -20.629804  L 109.061319 -20.629804  L 109.317563 -20.629804  L 109.573808 -20.629804  L 109.830053 -20.629804  L 110.086298 -20.629804  L 110.342543 -20.629804  L 110.598788 -20.629804  L 110.855033 -20.629804  L 111.111278 -20.629804  L 111.367523 -20.629804  L 111.623768 -20.629804  L 111.880013 -20.629804  L 112.136258 -20.629804  L 112.392503 -20.629804  L 112.648748 -20.629804  L 112.904992 -20.629804  L 113.161237 -20.629804  L 113.417482 -20.629804  L 113.673727 -20.629804  L 113.673727 -38.394621  L 113.673727 -38.394621  L 113.417482 -39.189896  L 113.161237 -40.006574  L 112.904992 -40.844401  L 112.648748 -41.703003  L 112.392503 -42.582028  L 112.136258 -43.480961  L 111.880013 -44.399324  L 111.623768 -45.336487  L 111.367523 -46.291825  L 111.111278 -47.264602  L 110.855033 -48.254026  L 110.598788 -49.259228  L 110.342543 -50.279314  L 110.086298 -51.313263  L 109.830053 -52.360061  L 109.573808 -53.418537  L 109.317563 -54.487551  L 109.061319 -55.565822  L 108.805074 -56.652074  L 108.548829 -57.744926  L 108.292584 -58.842937  L 108.036339 -59.944664  L 107.780094 -61.04854  L 107.523849 -62.153026  L 107.267604 -63.256475  L 107.011359 -64.357237  L 106.755114 -65.453598  L 106.498869 -66.54383  L 106.242624 -67.626167  L 105.986379 -68.698829  L 105.730134 -69.759996  L 105.47389 -70.807842  L 105.217645 -71.840547  L 104.9614 -72.856275  L 104.705155 -73.853167  L 104.44891 -74.829406  L 104.192665 -75.783173  L 103.93642 -76.712657  L 103.680175 -77.616078  L 103.42393 -78.491691  L 103.167685 -79.337771  L 102.91144 -80.152644  L 102.655195 -80.93466  L 102.39895 -81.682261  L 102.142705 -82.393903  L 101.886461 -83.068127  L 101.630216 -83.703525  L 101.373971 -84.298771  L 101.117726 -84.852611  L 100.861481 -85.363875  L 100.605236 -85.831466  L 100.348991 -86.254393  L 100.092746 -86.631726  L 99.836501 -86.96267  L 99.580256 -87.246497  L 99.324011 -87.482588  L 99.067766 -87.670435  L 98.811521 -87.809615  L 98.555276 -87.899838  L 98.299032 -87.940896  L 98.042787 -87.932699  L 97.786542 -87.875273  L 97.530297 -87.768743  L 97.274052 -87.613336  L 97.017807 -87.409397  L 96.761562 -87.157371  L 96.505317 -86.85781  L 96.249072 -86.511367  L 95.992827 -86.118793  L 95.736582 -85.680931  L 95.480337 -85.198732  L 95.224092 -84.673223  L 94.967847 -84.105529  L 94.711603 -83.496847  L 94.455358 -82.848459  L 94.199113 -82.161724  L 93.942868 -81.438054  L 93.686623 -80.678943  L 93.430378 -79.885954  L 93.174133 -79.060677  L 92.917888 -78.204761  L 92.661643 -77.319916  L 92.405398 -76.407861  L 92.149153 -75.470367  L 91.892908 -74.509223  L 91.636663 -73.52624  L 91.380418 -72.523254  L 91.124174 -71.502105  L 90.867929 -70.464632  L 90.611684 -69.412678  L 90.355439 -68.348082  L 90.099194 -67.272669  L 89.842949 -66.188245  L 89.586704 -65.096596  L 89.330459 -63.9995  L 89.074214 -62.898673  L 88.817969 -61.795832  L 88.561724 -60.692619  L 88.305479 -59.590661  L 88.049234 -58.491538  L 87.792989 -57.396761  L 87.536745 -56.307821  L 87.2805 -55.226131  L 87.024255 -54.153059  L 86.76801 -53.089908  L 86.511765 -52.037934  L 86.25552 -50.998312  L 85.999275 -49.972169  L 85.74303 -48.960564  L 85.486785 -47.964497  L 85.23054 -46.984893  L 84.974295 -46.022623  L 84.71805 -45.078491  L 84.461805 -44.153229  L 84.20556 -43.247515  L 83.949316 -42.361966  L 83.693071 -41.497127  L 83.436826 -40.653497  L 83.180581 -39.831501  L 82.924336 -39.031506  L 82.668091 -38.253851  z " style="stroke: #808080; stroke-opacity: 0.5"/>
    </defs>
    <g clip-path="url(#p9edb60ccd6)">
     <use xlink:href="#mad519085d7" x="0" y="103.7585" style="fill: #808080; fill-opacity: 0.5; stroke: #808080; stroke-opacity: 0.5"/>
    </g>
   </g>
   <g id="PathCollection_1">
    <defs>
     <path id="mddf008a612" d="M 0 1.118034  C 0.296506 1.118034 0.580908 1.000231 0.790569 0.790569  C 1.000231 0.580908 1.118034 0.296506 1.118034 0  C 1.118034 -0.296506 1.000231 -0.580908 0.790569 -0.790569  C 0.580908 -1.000231 0.296506 -1.118034 0 -1.118034  C -0.296506 -1.118034 -0.580908 -1.000231 -0.790569 -0.790569  C -1.000231 -0.580908 -1.118034 -0.296506 -1.118034 0  C -1.118034 0.296506 -1.000231 0.580908 -0.790569 0.790569  C -0.580908 1.000231 -0.296506 1.118034 0 1.118034  z " style="stroke: #d7301f"/>
    </defs>
    <g clip-path="url(#p9edb60ccd6)">
     <use xlink:href="#mddf008a612" x="40.540597" y="82.959965" style="fill: #d7301f; stroke: #d7301f"/>
     <use xlink:href="#mddf008a612" x="40.291465" y="82.959965" style="fill: #d7301f; stroke: #d7301f"/>
     <use xlink:href="#mddf008a612" x="48.762746" y="82.959965" style="fill: #d7301f; stroke: #d7301f"/>
     <use xlink:href="#mddf008a612" x="47.040835" y="82.959965" style="fill: #d7301f; stroke: #d7301f"/>
     <use xlink:href="#mddf008a612" x="56.742129" y="82.959965" style="fill: #d7301f; stroke: #d7301f"/>
     <use xlink:href="#mddf008a612" x="47.909948" y="82.959965" style="fill: #d7301f; stroke: #d7301f"/>
     <use xlink:href="#mddf008a612" x="55.513936" y="82.959965" style="fill: #d7301f; stroke: #d7301f"/>
     <use xlink:href="#mddf008a612" x="49.635125" y="82.959965" style="fill: #d7301f; stroke: #d7301f"/>
     <use xlink:href="#mddf008a612" x="53.615918" y="82.959965" style="fill: #d7301f; stroke: #d7301f"/>
     <use xlink:href="#mddf008a612" x="60.006136" y="82.959965" style="fill: #d7301f; stroke: #d7301f"/>
     <use xlink:href="#mddf008a612" x="43.191218" y="82.959965" style="fill: #d7301f; stroke: #d7301f"/>
     <use xlink:href="#mddf008a612" x="59.870189" y="82.959965" style="fill: #d7301f; stroke: #d7301f"/>
     <use xlink:href="#mddf008a612" x="51.621468" y="82.959965" style="fill: #d7301f; stroke: #d7301f"/>
     <use xlink:href="#mddf008a612" x="102.21684" y="82.959965" style="fill: #d7301f; stroke: #d7301f"/>
     <use xlink:href="#mddf008a612" x="99.142348" y="82.959965" style="fill: #d7301f; stroke: #d7301f"/>
     <use xlink:href="#mddf008a612" x="104.105928" y="82.959965" style="fill: #d7301f; stroke: #d7301f"/>
     <use xlink:href="#mddf008a612" x="102.23056" y="82.959965" style="fill: #d7301f; stroke: #d7301f"/>
     <use xlink:href="#mddf008a612" x="96.058558" y="82.959965" style="fill: #d7301f; stroke: #d7301f"/>
     <use xlink:href="#mddf008a612" x="91.110911" y="82.959965" style="fill: #d7301f; stroke: #d7301f"/>
     <use xlink:href="#mddf008a612" x="103.372533" y="82.959965" style="fill: #d7301f; stroke: #d7301f"/>
     <use xlink:href="#mddf008a612" x="100.525287" y="82.959965" style="fill: #d7301f; stroke: #d7301f"/>
     <use xlink:href="#mddf008a612" x="102.998084" y="82.959965" style="fill: #d7301f; stroke: #d7301f"/>
     <use xlink:href="#mddf008a612" x="84.287663" y="82.959965" style="fill: #d7301f; stroke: #d7301f"/>
     <use xlink:href="#mddf008a612" x="83.181106" y="82.959965" style="fill: #d7301f; stroke: #d7301f"/>
     <use xlink:href="#mddf008a612" x="109.389374" y="82.959965" style="fill: #d7301f; stroke: #d7301f"/>
     <use xlink:href="#mddf008a612" x="98.880477" y="82.959965" style="fill: #d7301f; stroke: #d7301f"/>
     <use xlink:href="#mddf008a612" x="86.812327" y="82.959965" style="fill: #d7301f; stroke: #d7301f"/>
     <use xlink:href="#mddf008a612" x="98.041406" y="82.959965" style="fill: #d7301f; stroke: #d7301f"/>
     <use xlink:href="#mddf008a612" x="95.922606" y="82.959965" style="fill: #d7301f; stroke: #d7301f"/>
     <use xlink:href="#mddf008a612" x="94.406247" y="82.959965" style="fill: #d7301f; stroke: #d7301f"/>
     <use xlink:href="#mddf008a612" x="103.190041" y="82.959965" style="fill: #d7301f; stroke: #d7301f"/>
     <use xlink:href="#mddf008a612" x="94.374277" y="82.959965" style="fill: #d7301f; stroke: #d7301f"/>
     <use xlink:href="#mddf008a612" x="100.017059" y="82.959965" style="fill: #d7301f; stroke: #d7301f"/>
     <use xlink:href="#mddf008a612" x="93.855993" y="82.959965" style="fill: #d7301f; stroke: #d7301f"/>
     <use xlink:href="#mddf008a612" x="92.702911" y="82.959965" style="fill: #d7301f; stroke: #d7301f"/>
     <use xlink:href="#mddf008a612" x="92.86936" y="82.959965" style="fill: #d7301f; stroke: #d7301f"/>
     <use xlink:href="#mddf008a612" x="87.51253" y="82.959965" style="fill: #d7301f; stroke: #d7301f"/>
     <use xlink:href="#mddf008a612" x="95.108504" y="82.959965" style="fill: #d7301f; stroke: #d7301f"/>
     <use xlink:href="#mddf008a612" x="87.823783" y="82.959965" style="fill: #d7301f; stroke: #d7301f"/>
     <use xlink:href="#mddf008a612" x="97.286053" y="82.959965" style="fill: #d7301f; stroke: #d7301f"/>
     <use xlink:href="#mddf008a612" x="97.209456" y="82.959965" style="fill: #d7301f; stroke: #d7301f"/>
     <use xlink:href="#mddf008a612" x="104.540473" y="82.959965" style="fill: #d7301f; stroke: #d7301f"/>
     <use xlink:href="#mddf008a612" x="90.211279" y="82.959965" style="fill: #d7301f; stroke: #d7301f"/>
     <use xlink:href="#mddf008a612" x="98.094742" y="82.959965" style="fill: #d7301f; stroke: #d7301f"/>
     <use xlink:href="#mddf008a612" x="91.0369" y="82.959965" style="fill: #d7301f; stroke: #d7301f"/>
     <use xlink:href="#mddf008a612" x="99.828074" y="82.959965" style="fill: #d7301f; stroke: #d7301f"/>
     <use xlink:href="#mddf008a612" x="103.9213" y="82.959965" style="fill: #d7301f; stroke: #d7301f"/>
     <use xlink:href="#mddf008a612" x="104.081404" y="82.959965" style="fill: #d7301f; stroke: #d7301f"/>
     <use xlink:href="#mddf008a612" x="95.775445" y="82.959965" style="fill: #d7301f; stroke: #d7301f"/>
     <use xlink:href="#mddf008a612" x="97.619232" y="82.959965" style="fill: #d7301f; stroke: #d7301f"/>
    </g>
   </g>
   <g id="PathCollection_2">
    <defs>
     <path id="m40b7e4a66c" d="M 0 1.118034  C 0.296506 1.118034 0.580908 1.000231 0.790569 0.790569  C 1.000231 0.580908 1.118034 0.296506 1.118034 0  C 1.118034 -0.296506 1.000231 -0.580908 0.790569 -0.790569  C 0.580908 -1.000231 0.296506 -1.118034 0 -1.118034  C -0.296506 -1.118034 -0.580908 -1.000231 -0.790569 -0.790569  C -1.000231 -0.580908 -1.118034 -0.296506 -1.118034 0  C -1.118034 0.296506 -1.000231 0.580908 -0.790569 0.790569  C -0.580908 1.000231 -0.296506 1.118034 0 1.118034  z " style="stroke: #0570b0"/>
    </defs>
    <g clip-path="url(#p9edb60ccd6)">
     <use xlink:href="#m40b7e4a66c" x="36.508197" y="82.959965" style="fill: #0570b0; stroke: #0570b0"/>
     <use xlink:href="#m40b7e4a66c" x="68.523694" y="82.959965" style="fill: #0570b0; stroke: #0570b0"/>
     <use xlink:href="#m40b7e4a66c" x="64.678323" y="82.959965" style="fill: #0570b0; stroke: #0570b0"/>
     <use xlink:href="#m40b7e4a66c" x="64.168288" y="82.959965" style="fill: #0570b0; stroke: #0570b0"/>
     <use xlink:href="#m40b7e4a66c" x="66.018594" y="82.959965" style="fill: #0570b0; stroke: #0570b0"/>
     <use xlink:href="#m40b7e4a66c" x="62.943723" y="82.959965" style="fill: #0570b0; stroke: #0570b0"/>
     <use xlink:href="#m40b7e4a66c" x="69.951333" y="82.959965" style="fill: #0570b0; stroke: #0570b0"/>
     <use xlink:href="#m40b7e4a66c" x="119.713139" y="82.959965" style="fill: #0570b0; stroke: #0570b0"/>
     <use xlink:href="#m40b7e4a66c" x="119.716064" y="82.959965" style="fill: #0570b0; stroke: #0570b0"/>
     <use xlink:href="#m40b7e4a66c" x="80.409889" y="82.959965" style="fill: #0570b0; stroke: #0570b0"/>
    </g>
   </g>
   <g id="matplotlib.axis_1">
    <g id="text_1">
     <!-- $\theta$ -->
     <g transform="translate(74.47 94.89475)">
      <text>
       <tspan style="font: 8px 'DejaVu Sans'" x="0" y="-0.859375">&#952;</tspan>
      </text>
     </g>
    </g>
   </g>
   <g id="matplotlib.axis_2"/>
   <g id="line2d_1">
    <path d="M 13.540909 83.117405  L 20.14867 82.981729  L 23.198402 82.72213  L 25.485707 82.31488  L 27.26472 81.788578  L 28.789585 81.131513  L 30.314456 80.229687  L 31.839326 79.030071  L 33.11005 77.768012  L 34.634913 75.907176  L 36.159784 73.653368  L 37.684652 71.019473  L 39.717809 67.009444  L 45.817281 54.422964  L 47.088005 52.428831  L 48.104582 51.158222  L 49.121161 50.222626  L 49.883594 49.760419  L 50.646027 49.513861  L 51.408462 49.487786  L 52.170898 49.682682  L 52.933332 50.094705  L 53.94991 50.96726  L 54.966488 52.181006  L 56.237211 54.114975  L 57.762079 56.915711  L 60.049381 61.694781  L 63.607407 69.144145  L 65.386419 72.354102  L 66.911287 74.666967  L 68.18201 76.241206  L 69.452734 77.473052  L 70.469312 78.203104  L 71.485891 78.699919  L 72.50247 78.957145  L 73.519048 78.966643  L 74.535627 78.717717  L 75.552205 78.196787  L 76.568784 77.387555  L 77.585363 76.271708  L 78.601939 74.830153  L 79.618517 73.044712  L 80.889241 70.306851  L 82.159965 66.991961  L 83.684832 62.261373  L 85.209701 56.773607  L 87.242858 48.532369  L 92.325752 27.350639  L 93.596473 23.079557  L 94.613053 20.261653  L 95.62963 18.077569  L 96.392065 16.90069  L 97.154498 16.145164  L 97.662787 15.883227  L 98.171078 15.817604  L 98.679366 15.948885  L 99.187657 16.275912  L 99.950092 17.126774  L 100.712525 18.394625  L 101.474958 20.054975  L 102.491538 22.82384  L 103.762259 27.045843  L 105.287127 32.950658  L 108.082721 44.915563  L 110.624164 55.504474  L 112.403181 62.055497  L 113.928047 66.889347  L 115.452917 70.939836  L 116.723637 73.723146  L 117.994361 76.002494  L 119.265084 77.827361  L 120.535808 79.256427  L 121.806532 80.351547  L 123.077256 81.17307  L 124.602121 81.875495  L 126.381134 82.407454  L 128.414293 82.761589  L 131.209882 82.994326  L 135.784489 83.107263  L 140.359091 83.125999  L 140.359091 83.125999  " clip-path="url(#p9edb60ccd6)" style="fill: none; stroke: #000000; stroke-width: 1.5; stroke-linecap: square"/>
   </g>
   <g id="line2d_2">
    <path d="M 46.419697 83.128696  L 46.419697 7.2  " clip-path="url(#p9edb60ccd6)" style="fill: none; stroke: #008000; stroke-width: 1.5; stroke-linecap: square"/>
   </g>
  </g>
 </g>
 <defs>
  <clipPath id="p9edb60ccd6">
   <rect x="7.2" y="7.2" width="139.5" height="77.616"/>
  </clipPath>
 </defs>
</g>
      <text x="5" y="8.0" font-size="12pt" font-family="Arial" font-weight="800" letter-spacing="0" text-anchor="start" fill="black">a</text>
    </g>
    <g transform="translate(200, 5) scale(1) ">
      <g transform="translate(0, 0) scale(1) translate(0, 0) scale(1.25) "><metadata>
  <rdf:RDF xmlns:dc="http://purl.org/dc/elements/1.1/" xmlns:cc="http://creativecommons.org/ns#" xmlns:rdf="http://www.w3.org/1999/02/22-rdf-syntax-ns#">
   <cc:Work>
    <dc:type rdf:resource="http://purl.org/dc/dcmitype/StillImage"/>
    <dc:date>2022-04-13T18:54:35.988099</dc:date>
    <dc:format>image/svg+xml</dc:format>
    <dc:creator>
     <cc:Agent>
      <dc:title>Matplotlib v3.5.1, https://matplotlib.org/</dc:title>
     </cc:Agent>
    </dc:creator>
   </cc:Work>
  </rdf:RDF>
 </metadata>
 <defs>
  <style type="text/css">*{stroke-linejoin: round; stroke-linecap: butt}</style>
 </defs>
 <g id="figure_1">
  <g id="patch_1">
   <path d="M 0 101.084  L 114.84 101.084  L 114.84 0  L 0 0  z " style="fill: #ffffff"/>
  </g>
  <g id="axes_1">
   <g id="patch_2">
    <path d="M 7.2 82.044  L 107.64 82.044  L 107.64 7.2  L 7.2 7.2  z " style="fill: #ffffff"/>
   </g>
   <g id="matplotlib.axis_1">
    <g id="text_1">
     <!-- log(p($\theta$)) -->
     <g transform="translate(40.06 92.204)">
      <text>
       <tspan style="font: 8px 'DejaVu Sans'" x="0 2.222656 7.117188 12.195312 15.316406 20.394531 23.515625 28.410156 31.53125" y="-0.859375">log(p(&#952;))</tspan>
      </text>
     </g>
    </g>
   </g>
   <g id="matplotlib.axis_2"/>
   <g id="line2d_1">
    <path d="M 57.367988 82.044  L 57.367988 32.148  " clip-path="url(#pc2a2a648d3)" style="fill: none; stroke: #d7301f; stroke-width: 1.5; stroke-linecap: square"/>
   </g>
   <g id="line2d_2">
    <path d="M 56.327391 82.044  L 56.327391 32.148  " clip-path="url(#pc2a2a648d3)" style="fill: none; stroke: #d7301f; stroke-width: 1.5; stroke-linecap: square"/>
   </g>
   <g id="line2d_3">
    <path d="M 78.117023 82.044  L 78.117023 32.148  " clip-path="url(#pc2a2a648d3)" style="fill: none; stroke: #d7301f; stroke-width: 1.5; stroke-linecap: square"/>
   </g>
   <g id="line2d_4">
    <path d="M 75.956163 82.044  L 75.956163 32.148  " clip-path="url(#pc2a2a648d3)" style="fill: none; stroke: #d7301f; stroke-width: 1.5; stroke-linecap: square"/>
   </g>
   <g id="line2d_5">
    <path d="M 73.027187 82.044  L 73.027187 32.148  " clip-path="url(#pc2a2a648d3)" style="fill: none; stroke: #d7301f; stroke-width: 1.5; stroke-linecap: square"/>
   </g>
   <g id="line2d_6">
    <path d="M 77.19148 82.044  L 77.19148 32.148  " clip-path="url(#pc2a2a648d3)" style="fill: none; stroke: #d7301f; stroke-width: 1.5; stroke-linecap: square"/>
   </g>
   <g id="line2d_7">
    <path d="M 75.427238 82.044  L 75.427238 32.148  " clip-path="url(#pc2a2a648d3)" style="fill: none; stroke: #d7301f; stroke-width: 1.5; stroke-linecap: square"/>
   </g>
   <g id="line2d_8">
    <path d="M 78.770102 82.044  L 78.770102 32.148  " clip-path="url(#pc2a2a648d3)" style="fill: none; stroke: #d7301f; stroke-width: 1.5; stroke-linecap: square"/>
   </g>
   <g id="line2d_9">
    <path d="M 77.980259 82.044  L 77.980259 32.148  " clip-path="url(#pc2a2a648d3)" style="fill: none; stroke: #d7301f; stroke-width: 1.5; stroke-linecap: square"/>
   </g>
   <g id="line2d_10">
    <path d="M 63.804645 82.044  L 63.804645 32.148  " clip-path="url(#pc2a2a648d3)" style="fill: none; stroke: #d7301f; stroke-width: 1.5; stroke-linecap: square"/>
   </g>
   <g id="line2d_11">
    <path d="M 66.939223 82.044  L 66.939223 32.148  " clip-path="url(#pc2a2a648d3)" style="fill: none; stroke: #d7301f; stroke-width: 1.5; stroke-linecap: square"/>
   </g>
   <g id="line2d_12">
    <path d="M 64.270733 82.044  L 64.270733 32.148  " clip-path="url(#pc2a2a648d3)" style="fill: none; stroke: #d7301f; stroke-width: 1.5; stroke-linecap: square"/>
   </g>
   <g id="line2d_13">
    <path d="M 79.148976 82.044  L 79.148976 32.148  " clip-path="url(#pc2a2a648d3)" style="fill: none; stroke: #d7301f; stroke-width: 1.5; stroke-linecap: square"/>
   </g>
   <g id="line2d_14">
    <path d="M 99.744743 82.044  L 99.744743 32.148  " clip-path="url(#pc2a2a648d3)" style="fill: none; stroke: #d7301f; stroke-width: 1.5; stroke-linecap: square"/>
   </g>
   <g id="line2d_15">
    <path d="M 102.856898 82.044  L 102.856898 32.148  " clip-path="url(#pc2a2a648d3)" style="fill: none; stroke: #d7301f; stroke-width: 1.5; stroke-linecap: square"/>
   </g>
   <g id="line2d_16">
    <path d="M 96.002486 82.044  L 96.002486 32.148  " clip-path="url(#pc2a2a648d3)" style="fill: none; stroke: #d7301f; stroke-width: 1.5; stroke-linecap: square"/>
   </g>
   <g id="line2d_17">
    <path d="M 99.722582 82.044  L 99.722582 32.148  " clip-path="url(#pc2a2a648d3)" style="fill: none; stroke: #d7301f; stroke-width: 1.5; stroke-linecap: square"/>
   </g>
   <g id="line2d_18">
    <path d="M 102.272148 82.044  L 102.272148 32.148  " clip-path="url(#pc2a2a648d3)" style="fill: none; stroke: #d7301f; stroke-width: 1.5; stroke-linecap: square"/>
   </g>
   <g id="line2d_19">
    <path d="M 93.580751 82.044  L 93.580751 32.148  " clip-path="url(#pc2a2a648d3)" style="fill: none; stroke: #d7301f; stroke-width: 1.5; stroke-linecap: square"/>
   </g>
   <g id="line2d_20">
    <path d="M 97.620754 82.044  L 97.620754 32.148  " clip-path="url(#pc2a2a648d3)" style="fill: none; stroke: #d7301f; stroke-width: 1.5; stroke-linecap: square"/>
   </g>
   <g id="line2d_21">
    <path d="M 101.913573 82.044  L 101.913573 32.148  " clip-path="url(#pc2a2a648d3)" style="fill: none; stroke: #d7301f; stroke-width: 1.5; stroke-linecap: square"/>
   </g>
   <g id="line2d_22">
    <path d="M 98.366028 82.044  L 98.366028 32.148  " clip-path="url(#pc2a2a648d3)" style="fill: none; stroke: #d7301f; stroke-width: 1.5; stroke-linecap: square"/>
   </g>
   <g id="line2d_23">
    <path d="M 66.01253 82.044  L 66.01253 32.148  " clip-path="url(#pc2a2a648d3)" style="fill: none; stroke: #d7301f; stroke-width: 1.5; stroke-linecap: square"/>
   </g>
   <g id="line2d_24">
    <path d="M 59.892791 82.044  L 59.892791 32.148  " clip-path="url(#pc2a2a648d3)" style="fill: none; stroke: #d7301f; stroke-width: 1.5; stroke-linecap: square"/>
   </g>
   <g id="line2d_25">
    <path d="M 78.139973 82.044  L 78.139973 32.148  " clip-path="url(#pc2a2a648d3)" style="fill: none; stroke: #d7301f; stroke-width: 1.5; stroke-linecap: square"/>
   </g>
   <g id="line2d_26">
    <path d="M 102.95146 82.044  L 102.95146 32.148  " clip-path="url(#pc2a2a648d3)" style="fill: none; stroke: #d7301f; stroke-width: 1.5; stroke-linecap: square"/>
   </g>
   <g id="line2d_27">
    <path d="M 78.293543 82.044  L 78.293543 32.148  " clip-path="url(#pc2a2a648d3)" style="fill: none; stroke: #d7301f; stroke-width: 1.5; stroke-linecap: square"/>
   </g>
   <g id="line2d_28">
    <path d="M 103.07417 82.044  L 103.07417 32.148  " clip-path="url(#pc2a2a648d3)" style="fill: none; stroke: #d7301f; stroke-width: 1.5; stroke-linecap: square"/>
   </g>
   <g id="line2d_29">
    <path d="M 102.160944 82.044  L 102.160944 32.148  " clip-path="url(#pc2a2a648d3)" style="fill: none; stroke: #d7301f; stroke-width: 1.5; stroke-linecap: square"/>
   </g>
   <g id="line2d_30">
    <path d="M 100.431716 82.044  L 100.431716 32.148  " clip-path="url(#pc2a2a648d3)" style="fill: none; stroke: #d7301f; stroke-width: 1.5; stroke-linecap: square"/>
   </g>
   <g id="line2d_31">
    <path d="M 97.990804 82.044  L 97.990804 32.148  " clip-path="url(#pc2a2a648d3)" style="fill: none; stroke: #d7301f; stroke-width: 1.5; stroke-linecap: square"/>
   </g>
   <g id="line2d_32">
    <path d="M 100.385598 82.044  L 100.385598 32.148  " clip-path="url(#pc2a2a648d3)" style="fill: none; stroke: #d7301f; stroke-width: 1.5; stroke-linecap: square"/>
   </g>
   <g id="line2d_33">
    <path d="M 102.347007 82.044  L 102.347007 32.148  " clip-path="url(#pc2a2a648d3)" style="fill: none; stroke: #d7301f; stroke-width: 1.5; stroke-linecap: square"/>
   </g>
   <g id="line2d_34">
    <path d="M 99.58234 82.044  L 99.58234 32.148  " clip-path="url(#pc2a2a648d3)" style="fill: none; stroke: #d7301f; stroke-width: 1.5; stroke-linecap: square"/>
   </g>
   <g id="line2d_35">
    <path d="M 97.419292 82.044  L 97.419292 32.148  " clip-path="url(#pc2a2a648d3)" style="fill: none; stroke: #d7301f; stroke-width: 1.5; stroke-linecap: square"/>
   </g>
   <g id="line2d_36">
    <path d="M 97.763563 82.044  L 97.763563 32.148  " clip-path="url(#pc2a2a648d3)" style="fill: none; stroke: #d7301f; stroke-width: 1.5; stroke-linecap: square"/>
   </g>
   <g id="line2d_37">
    <path d="M 81.271183 82.044  L 81.271183 32.148  " clip-path="url(#pc2a2a648d3)" style="fill: none; stroke: #d7301f; stroke-width: 1.5; stroke-linecap: square"/>
   </g>
   <g id="line2d_38">
    <path d="M 101.34411 82.044  L 101.34411 32.148  " clip-path="url(#pc2a2a648d3)" style="fill: none; stroke: #d7301f; stroke-width: 1.5; stroke-linecap: square"/>
   </g>
   <g id="line2d_39">
    <path d="M 82.534216 82.044  L 82.534216 32.148  " clip-path="url(#pc2a2a648d3)" style="fill: none; stroke: #d7301f; stroke-width: 1.5; stroke-linecap: square"/>
   </g>
   <g id="line2d_40">
    <path d="M 102.949589 82.044  L 102.949589 32.148  " clip-path="url(#pc2a2a648d3)" style="fill: none; stroke: #d7301f; stroke-width: 1.5; stroke-linecap: square"/>
   </g>
   <g id="line2d_41">
    <path d="M 102.924523 82.044  L 102.924523 32.148  " clip-path="url(#pc2a2a648d3)" style="fill: none; stroke: #d7301f; stroke-width: 1.5; stroke-linecap: square"/>
   </g>
   <g id="line2d_42">
    <path d="M 94.94459 82.044  L 94.94459 32.148  " clip-path="url(#pc2a2a648d3)" style="fill: none; stroke: #d7301f; stroke-width: 1.5; stroke-linecap: square"/>
   </g>
   <g id="line2d_43">
    <path d="M 90.974898 82.044  L 90.974898 32.148  " clip-path="url(#pc2a2a648d3)" style="fill: none; stroke: #d7301f; stroke-width: 1.5; stroke-linecap: square"/>
   </g>
   <g id="line2d_44">
    <path d="M 103.074545 82.044  L 103.074545 32.148  " clip-path="url(#pc2a2a648d3)" style="fill: none; stroke: #d7301f; stroke-width: 1.5; stroke-linecap: square"/>
   </g>
   <g id="line2d_45">
    <path d="M 93.378274 82.044  L 93.378274 32.148  " clip-path="url(#pc2a2a648d3)" style="fill: none; stroke: #d7301f; stroke-width: 1.5; stroke-linecap: square"/>
   </g>
   <g id="line2d_46">
    <path d="M 102.482463 82.044  L 102.482463 32.148  " clip-path="url(#pc2a2a648d3)" style="fill: none; stroke: #d7301f; stroke-width: 1.5; stroke-linecap: square"/>
   </g>
   <g id="line2d_47">
    <path d="M 96.429654 82.044  L 96.429654 32.148  " clip-path="url(#pc2a2a648d3)" style="fill: none; stroke: #d7301f; stroke-width: 1.5; stroke-linecap: square"/>
   </g>
   <g id="line2d_48">
    <path d="M 96.059995 82.044  L 96.059995 32.148  " clip-path="url(#pc2a2a648d3)" style="fill: none; stroke: #d7301f; stroke-width: 1.5; stroke-linecap: square"/>
   </g>
   <g id="line2d_49">
    <path d="M 102.032442 82.044  L 102.032442 32.148  " clip-path="url(#pc2a2a648d3)" style="fill: none; stroke: #d7301f; stroke-width: 1.5; stroke-linecap: square"/>
   </g>
   <g id="line2d_50">
    <path d="M 103.031992 82.044  L 103.031992 32.148  " clip-path="url(#pc2a2a648d3)" style="fill: none; stroke: #d7301f; stroke-width: 1.5; stroke-linecap: square"/>
   </g>
   <g id="line2d_51">
    <path d="M 37.547678 82.044  L 37.547678 32.148  " clip-path="url(#pc2a2a648d3)" style="fill: none; stroke: #0570b0; stroke-width: 1.5; stroke-linecap: square"/>
   </g>
   <g id="line2d_52">
    <path d="M 22.671238 82.044  L 22.671238 32.148  " clip-path="url(#pc2a2a648d3)" style="fill: none; stroke: #0570b0; stroke-width: 1.5; stroke-linecap: square"/>
   </g>
   <g id="line2d_53">
    <path d="M 43.651481 82.044  L 43.651481 32.148  " clip-path="url(#pc2a2a648d3)" style="fill: none; stroke: #0570b0; stroke-width: 1.5; stroke-linecap: square"/>
   </g>
   <g id="line2d_54">
    <path d="M 46.218135 82.044  L 46.218135 32.148  " clip-path="url(#pc2a2a648d3)" style="fill: none; stroke: #0570b0; stroke-width: 1.5; stroke-linecap: square"/>
   </g>
   <g id="line2d_55">
    <path d="M 36.564947 82.044  L 36.564947 32.148  " clip-path="url(#pc2a2a648d3)" style="fill: none; stroke: #0570b0; stroke-width: 1.5; stroke-linecap: square"/>
   </g>
   <g id="line2d_56">
    <path d="M 52.036995 82.044  L 52.036995 32.148  " clip-path="url(#pc2a2a648d3)" style="fill: none; stroke: #0570b0; stroke-width: 1.5; stroke-linecap: square"/>
   </g>
   <g id="line2d_57">
    <path d="M 15.321237 82.044  L 15.321237 32.148  " clip-path="url(#pc2a2a648d3)" style="fill: none; stroke: #0570b0; stroke-width: 1.5; stroke-linecap: square"/>
   </g>
   <g id="line2d_58">
    <path d="M 11.790141 82.044  L 11.790141 32.148  " clip-path="url(#pc2a2a648d3)" style="fill: none; stroke: #0570b0; stroke-width: 1.5; stroke-linecap: square"/>
   </g>
   <g id="line2d_59">
    <path d="M 11.765455 82.044  L 11.765455 32.148  " clip-path="url(#pc2a2a648d3)" style="fill: none; stroke: #0570b0; stroke-width: 1.5; stroke-linecap: square"/>
   </g>
   <g id="line2d_60">
    <path d="M 42.865851 82.044  L 42.865851 32.148  " clip-path="url(#pc2a2a648d3)" style="fill: none; stroke: #0570b0; stroke-width: 1.5; stroke-linecap: square"/>
   </g>
   <g id="line2d_61">
    <path d="M 74.892649 82.044  L 74.892649 7.2  " clip-path="url(#pc2a2a648d3)" style="fill: none; stroke: #008000; stroke-width: 1.5; stroke-linecap: square"/>
   </g>
   <g id="patch_3">
    <path d="M 7.2 82.044  L 107.64 82.044  " style="fill: none; stroke: #000000; stroke-width: 1.5; stroke-linejoin: miter; stroke-linecap: square"/>
   </g>
  </g>
 </g>
 <defs>
  <clipPath id="pc2a2a648d3">
   <rect x="7.2" y="7.2" width="100.44" height="74.844"/>
  </clipPath>
 </defs>
</g>
      <text x="-10" y="8.0" font-size="12pt" font-family="Arial" font-weight="800" letter-spacing="0" text-anchor="start" fill="black">b</text>
    </g>
    <g transform="translate(380, 0) scale(1) ">
      <g transform="translate(0, 0) scale(1) translate(0, 0) scale(1.25) "><metadata>
  <rdf:RDF xmlns:dc="http://purl.org/dc/elements/1.1/" xmlns:cc="http://creativecommons.org/ns#" xmlns:rdf="http://www.w3.org/1999/02/22-rdf-syntax-ns#">
   <cc:Work>
    <dc:type rdf:resource="http://purl.org/dc/dcmitype/StillImage"/>
    <dc:date>2022-04-13T18:54:36.786294</dc:date>
    <dc:format>image/svg+xml</dc:format>
    <dc:creator>
     <cc:Agent>
      <dc:title>Matplotlib v3.5.1, https://matplotlib.org/</dc:title>
     </cc:Agent>
    </dc:creator>
   </cc:Work>
  </rdf:RDF>
 </metadata>
 <defs>
  <style type="text/css">*{stroke-linejoin: round; stroke-linecap: butt}</style>
 </defs>
 <g id="figure_1">
  <g id="patch_1">
   <path d="M -0 118.768375  L 116.1075 118.768375  L 116.1075 -0  L -0 -0  z " style="fill: #ffffff"/>
  </g>
  <g id="axes_1">
   <g id="patch_2">
    <path d="M 31.0325 85.083375  L 106.3625 85.083375  L 106.3625 10.239375  L 31.0325 10.239375  z " style="fill: #ffffff"/>
   </g>
   <g id="matplotlib.axis_1">
    <g id="xtick_1">
     <g id="line2d_1">
      <defs>
       <path id="m35b332f902" d="M 0 0  L 0 3.5  " style="stroke: #000000; stroke-width: 1.5"/>
      </defs>
      <g>
       <use xlink:href="#m35b332f902" x="31.0325" y="85.083375" style="stroke: #000000; stroke-width: 1.5"/>
      </g>
     </g>
     <g id="text_1">
      <text style="font: 8px 'serif'; text-anchor: middle" x="31.0325" y="98.162125" transform="rotate(-0, 31.0325, 98.162125)">0</text>
     </g>
    </g>
    <g id="xtick_2">
     <g id="line2d_2">
      <g>
       <use xlink:href="#m35b332f902" x="106.3625" y="85.083375" style="stroke: #000000; stroke-width: 1.5"/>
      </g>
     </g>
     <g id="text_2">
      <text style="font: 8px 'serif'; text-anchor: middle" x="106.3625" y="98.162125" transform="rotate(-0, 106.3625, 98.162125)">1</text>
     </g>
    </g>
    <g id="text_3">
     <text style="font: 8px 'serif'; text-anchor: middle" x="68.6975" y="109.904625" transform="rotate(-0, 68.6975, 109.904625)">Confidence level</text>
    </g>
   </g>
   <g id="matplotlib.axis_2">
    <g id="ytick_1">
     <g id="line2d_3">
      <defs>
       <path id="m5c58f37ba6" d="M 0 0  L -3.5 0  " style="stroke: #000000; stroke-width: 1.5"/>
      </defs>
      <g>
       <use xlink:href="#m5c58f37ba6" x="31.0325" y="85.083375" style="stroke: #000000; stroke-width: 1.5"/>
      </g>
     </g>
     <g id="text_4">
      <text style="font: 8px 'serif'; text-anchor: end" x="24.0325" y="88.12275" transform="rotate(-0, 24.0325, 88.12275)">0</text>
     </g>
    </g>
    <g id="ytick_2">
     <g id="line2d_4">
      <g>
       <use xlink:href="#m5c58f37ba6" x="31.0325" y="10.239375" style="stroke: #000000; stroke-width: 1.5"/>
      </g>
     </g>
     <g id="text_5">
      <text style="font: 8px 'serif'; text-anchor: end" x="24.0325" y="13.27875" transform="rotate(-0, 24.0325, 13.27875)">1</text>
     </g>
    </g>
    <g id="text_6">
     <text style="font: 8px 'serif'; text-anchor: middle" x="13.27875" y="47.661375" transform="rotate(-90, 13.27875, 47.661375)">Empirical coverage</text>
    </g>
   </g>
   <g id="line2d_5">
    <path d="M 31.0325 85.083375  L 106.3625 10.239375  " clip-path="url(#pe5dae38950)" style="fill: none; stroke: #808080; stroke-width: 1.5; stroke-linecap: square"/>
   </g>
   <g id="line2d_6">
    <path d="M 31.0325 84.739022  L 32.569847 84.365986  L 34.107194 83.963117  L 35.644541 83.52927  L 37.181888 83.063297  L 38.719234 82.56405  L 40.256582 82.030382  L 41.793928 81.461146  L 43.331275 80.855195  L 44.868623 80.21138  L 46.405969 79.528555  L 47.943316 78.805572  L 49.480663 78.041284  L 51.01801 77.234543  L 52.555356 76.384204  L 54.092702 75.489116  L 55.630051 74.548134  L 57.167397 73.56011  L 58.704745 72.523898  L 60.242091 71.438348  L 61.779438 70.302314  L 63.316784 69.114647  L 64.854132 67.874203  L 66.391478 66.579834  L 67.928827 65.230391  L 69.466173 63.824725  L 71.003519 62.361693  L 72.540866 60.840144  L 74.078216 59.258934  L 75.615562 57.616911  L 77.152909 55.912935  L 78.690255 54.14585  L 80.227601 52.314513  L 81.764947 50.417775  L 83.302293 48.454494  L 84.839644 46.423514  L 86.37699 44.323693  L 87.914337 42.153883  L 89.451683 39.912937  L 90.989029 37.599709  L 92.52638 35.213047  L 94.063726 32.75181  L 95.601072 30.214842  L 97.138423 27.601006  L 98.675769 24.909141  L 100.213115 22.138115  L 101.750461 19.286773  L 103.287808 16.353967  L 104.825154 13.338551  L 106.3625 10.239375  " clip-path="url(#pe5dae38950)" style="fill: none; stroke: #6e016b; stroke-width: 1.5; stroke-linecap: square"/>
   </g>
   <g id="line2d_7">
    <path d="M 31.0325 81.984201  L 32.569847 78.968785  L 34.107194 76.035978  L 35.644541 73.184635  L 37.181888 70.413606  L 38.719234 67.721747  L 40.256582 65.107906  L 41.793928 62.57094  L 43.331275 60.109701  L 44.868623 57.723039  L 46.405969 55.409813  L 47.943316 53.168867  L 49.480663 50.999057  L 51.01801 48.899236  L 52.555356 46.868258  L 54.092702 44.904972  L 55.630051 43.008241  L 57.167397 41.176904  L 58.704745 39.40982  L 60.242091 37.705837  L 61.779438 36.063818  L 63.316784 34.482603  L 64.854132 32.961055  L 66.391478 31.498023  L 67.928827 30.092359  L 69.466173 28.742914  L 71.003519 27.448545  L 72.540866 26.208101  L 74.078216 25.020435  L 75.615562 23.884402  L 77.152909 22.798855  L 78.690255 21.762638  L 80.227601 20.774613  L 81.764947 19.833635  L 83.302293 18.938547  L 84.839644 18.088204  L 86.37699 17.281464  L 87.914337 16.517174  L 89.451683 15.794194  L 90.989029 15.111368  L 92.52638 14.467554  L 94.063726 13.861605  L 95.601072 13.292366  L 97.138423 12.758699  L 98.675769 12.25945  L 100.213115 11.79348  L 101.750461 11.359629  L 103.287808 10.956765  L 104.825154 10.583728  L 106.3625 10.239375  " clip-path="url(#pe5dae38950)" style="fill: none; stroke: #8c6bb1; stroke-width: 1.5; stroke-linecap: square"/>
   </g>
   <g id="patch_3">
    <path d="M 31.0325 85.083375  L 31.0325 10.239375  " style="fill: none; stroke: #000000; stroke-width: 1.5; stroke-linejoin: miter; stroke-linecap: square"/>
   </g>
   <g id="patch_4">
    <path d="M 31.0325 85.083375  L 106.3625 85.083375  " style="fill: none; stroke: #000000; stroke-width: 1.5; stroke-linejoin: miter; stroke-linecap: square"/>
   </g>
  </g>
 </g>
 <defs>
  <clipPath id="pe5dae38950">
   <rect x="31.0325" y="10.239375" width="75.33" height="74.844"/>
  </clipPath>
 </defs>
</g>
      <text x="-10" y="13.0" font-size="12pt" font-family="Arial" font-weight="800" letter-spacing="0" text-anchor="start" fill="black">c</text>
      <text x="83" y="93.0" font-size="7.7pt" font-family="Arial" font-weight="normal" letter-spacing="0" text-anchor="start" fill="black">overconf.</text>
      <text x="50" y="25.0" font-size="7.7pt" font-family="Arial" font-weight="normal" letter-spacing="0" text-anchor="start" fill="black">underconf.</text>
    </g>
  </g>
</svg>
