<?xml version='1.0' encoding='ASCII' standalone='yes'?>
<svg xmlns="http://www.w3.org/2000/svg" xmlns:xlink="http://www.w3.org/1999/xlink" version="1.1" width="15.7cm" viewBox="0 0 15.7cm 3.8cm" height="3.8cm">
  <g>
    <g transform="translate(-5, 5) scale(1) ">
      <g transform="translate(0, 0) scale(1) translate(0, 0) scale(1.25) "><metadata>
  <rdf:RDF xmlns:dc="http://purl.org/dc/elements/1.1/" xmlns:cc="http://creativecommons.org/ns#" xmlns:rdf="http://www.w3.org/1999/02/22-rdf-syntax-ns#">
   <cc:Work>
    <dc:type rdf:resource="http://purl.org/dc/dcmitype/StillImage"/>
    <dc:date>2022-04-20T12:28:01.397166</dc:date>
    <dc:format>image/svg+xml</dc:format>
    <dc:creator>
     <cc:Agent>
      <dc:title>Matplotlib v3.5.1, https://matplotlib.org/</dc:title>
     </cc:Agent>
    </dc:creator>
   </cc:Work>
  </rdf:RDF>
 </metadata>
 <defs>
  <style type="text/css">*{stroke-linejoin: round; stroke-linecap: butt}</style>
 </defs>
 <g id="figure_1">
  <g id="patch_1">
   <path d="M 0 103.33225  L 153.9 103.33225  L 153.9 0  L 0 0  z " style="fill: #ffffff"/>
  </g>
  <g id="axes_1">
   <g id="patch_2">
    <path d="M 7.2 84.816  L 146.7 84.816  L 146.7 7.2  L 7.2 7.2  z " style="fill: #ffffff"/>
   </g>
   <g id="PolyCollection_1">
    <defs>
     <path id="m68e6095001" d="M 40.226273 -37.391475  L 40.226273 -20.203554  L 40.483401 -20.203554  L 40.74053 -20.203554  L 40.997659 -20.203554  L 41.254788 -20.203554  L 41.511916 -20.203554  L 41.769045 -20.203554  L 42.026174 -20.203554  L 42.283302 -20.203554  L 42.540431 -20.203554  L 42.79756 -20.203554  L 43.054688 -20.203554  L 43.311817 -20.203554  L 43.568946 -20.203554  L 43.826075 -20.203554  L 44.083203 -20.203554  L 44.340332 -20.203554  L 44.597461 -20.203554  L 44.854589 -20.203554  L 45.111718 -20.203554  L 45.368847 -20.203554  L 45.625975 -20.203554  L 45.883104 -20.203554  L 46.140233 -20.203554  L 46.397361 -20.203554  L 46.65449 -20.203554  L 46.911619 -20.203554  L 47.168748 -20.203554  L 47.425876 -20.203554  L 47.683005 -20.203554  L 47.940134 -20.203554  L 48.197262 -20.203554  L 48.454391 -20.203554  L 48.71152 -20.203554  L 48.968648 -20.203554  L 49.225777 -20.203554  L 49.482906 -20.203554  L 49.740035 -20.203554  L 49.997163 -20.203554  L 50.254292 -20.203554  L 50.511421 -20.203554  L 50.768549 -20.203554  L 51.025678 -20.203554  L 51.282807 -20.203554  L 51.539935 -20.203554  L 51.797064 -20.203554  L 52.054193 -20.203554  L 52.311322 -20.203554  L 52.56845 -20.203554  L 52.825579 -20.203554  L 53.082708 -20.203554  L 53.339836 -20.203554  L 53.596965 -20.203554  L 53.854094 -20.203554  L 54.111222 -20.203554  L 54.368351 -20.203554  L 54.62548 -20.203554  L 54.882609 -20.203554  L 55.139737 -20.203554  L 55.396866 -20.203554  L 55.653995 -20.203554  L 55.911123 -20.203554  L 56.168252 -20.203554  L 56.425381 -20.203554  L 56.682509 -20.203554  L 56.939638 -20.203554  L 57.196767 -20.203554  L 57.453896 -20.203554  L 57.711024 -20.203554  L 57.968153 -20.203554  L 58.225282 -20.203554  L 58.48241 -20.203554  L 58.739539 -20.203554  L 58.996668 -20.203554  L 59.253796 -20.203554  L 59.510925 -20.203554  L 59.768054 -20.203554  L 60.025183 -20.203554  L 60.282311 -20.203554  L 60.53944 -20.203554  L 60.796569 -20.203554  L 61.053697 -20.203554  L 61.310826 -20.203554  L 61.567955 -20.203554  L 61.825083 -20.203554  L 62.082212 -20.203554  L 62.082212 -37.811051  L 62.082212 -37.811051  L 61.825083 -38.350939  L 61.567955 -38.894362  L 61.310826 -39.44057  L 61.053697 -39.988792  L 60.796569 -40.538232  L 60.53944 -41.088068  L 60.282311 -41.637469  L 60.025183 -42.185575  L 59.768054 -42.731518  L 59.510925 -43.274401  L 59.253796 -43.813332  L 58.996668 -44.347395  L 58.739539 -44.875675  L 58.48241 -45.397247  L 58.225282 -45.911176  L 57.968153 -46.416539  L 57.711024 -46.912403  L 57.453896 -47.397852  L 57.196767 -47.871962  L 56.939638 -48.333828  L 56.682509 -48.782561  L 56.425381 -49.217275  L 56.168252 -49.63711  L 55.911123 -50.041227  L 55.653995 -50.428808  L 55.396866 -50.799076  L 55.139737 -51.151244  L 54.882609 -51.484605  L 54.62548 -51.798449  L 54.368351 -52.092117  L 54.111222 -52.36499  L 53.854094 -52.616485  L 53.596965 -52.846064  L 53.339836 -53.053233  L 53.082708 -53.237545  L 52.825579 -53.398597  L 52.56845 -53.536035  L 52.311322 -53.649568  L 52.054193 -53.738938  L 51.797064 -53.803952  L 51.539935 -53.844464  L 51.282807 -53.860392  L 51.025678 -53.851696  L 50.768549 -53.818389  L 50.511421 -53.76055  L 50.254292 -53.678303  L 49.997163 -53.571831  L 49.740035 -53.441363  L 49.482906 -53.287179  L 49.225777 -53.109624  L 48.968648 -52.909072  L 48.71152 -52.685962  L 48.454391 -52.440775  L 48.197262 -52.174028  L 47.940134 -51.886293  L 47.683005 -51.578173  L 47.425876 -51.250319  L 47.168748 -50.903419  L 46.911619 -50.538172  L 46.65449 -50.15535  L 46.397361 -49.755721  L 46.140233 -49.34009  L 45.883104 -48.909286  L 45.625975 -48.46416  L 45.368847 -48.005581  L 45.111718 -47.534433  L 44.854589 -47.051608  L 44.597461 -46.558015  L 44.340332 -46.054576  L 44.083203 -45.542196  L 43.826075 -45.0218  L 43.568946 -44.494309  L 43.311817 -43.960633  L 43.054688 -43.421683  L 42.79756 -42.878354  L 42.540431 -42.331539  L 42.283302 -41.782113  L 42.026174 -41.230931  L 41.769045 -40.678833  L 41.511916 -40.126649  L 41.254788 -39.57517  L 40.997659 -39.025175  L 40.74053 -38.477413  L 40.483401 -37.932615  L 40.226273 -37.391475  z " style="stroke: #808080; stroke-opacity: 0.5"/>
    </defs>
    <g clip-path="url(#pd291e77184)">
     <use xlink:href="#m68e6095001" x="0" y="103.33225" style="fill: #808080; fill-opacity: 0.5; stroke: #808080; stroke-opacity: 0.5"/>
    </g>
   </g>
   <g id="PolyCollection_2">
    <defs>
     <path id="mc72e2c1729" d="M 82.668091 -37.827601  L 82.668091 -20.203554  L 82.924336 -20.203554  L 83.180581 -20.203554  L 83.436826 -20.203554  L 83.693071 -20.203554  L 83.949316 -20.203554  L 84.20556 -20.203554  L 84.461805 -20.203554  L 84.71805 -20.203554  L 84.974295 -20.203554  L 85.23054 -20.203554  L 85.486785 -20.203554  L 85.74303 -20.203554  L 85.999275 -20.203554  L 86.25552 -20.203554  L 86.511765 -20.203554  L 86.76801 -20.203554  L 87.024255 -20.203554  L 87.2805 -20.203554  L 87.536745 -20.203554  L 87.792989 -20.203554  L 88.049234 -20.203554  L 88.305479 -20.203554  L 88.561724 -20.203554  L 88.817969 -20.203554  L 89.074214 -20.203554  L 89.330459 -20.203554  L 89.586704 -20.203554  L 89.842949 -20.203554  L 90.099194 -20.203554  L 90.355439 -20.203554  L 90.611684 -20.203554  L 90.867929 -20.203554  L 91.124174 -20.203554  L 91.380418 -20.203554  L 91.636663 -20.203554  L 91.892908 -20.203554  L 92.149153 -20.203554  L 92.405398 -20.203554  L 92.661643 -20.203554  L 92.917888 -20.203554  L 93.174133 -20.203554  L 93.430378 -20.203554  L 93.686623 -20.203554  L 93.942868 -20.203554  L 94.199113 -20.203554  L 94.455358 -20.203554  L 94.711603 -20.203554  L 94.967847 -20.203554  L 95.224092 -20.203554  L 95.480337 -20.203554  L 95.736582 -20.203554  L 95.992827 -20.203554  L 96.249072 -20.203554  L 96.505317 -20.203554  L 96.761562 -20.203554  L 97.017807 -20.203554  L 97.274052 -20.203554  L 97.530297 -20.203554  L 97.786542 -20.203554  L 98.042787 -20.203554  L 98.299032 -20.203554  L 98.555276 -20.203554  L 98.811521 -20.203554  L 99.067766 -20.203554  L 99.324011 -20.203554  L 99.580256 -20.203554  L 99.836501 -20.203554  L 100.092746 -20.203554  L 100.348991 -20.203554  L 100.605236 -20.203554  L 100.861481 -20.203554  L 101.117726 -20.203554  L 101.373971 -20.203554  L 101.630216 -20.203554  L 101.886461 -20.203554  L 102.142705 -20.203554  L 102.39895 -20.203554  L 102.655195 -20.203554  L 102.91144 -20.203554  L 103.167685 -20.203554  L 103.42393 -20.203554  L 103.680175 -20.203554  L 103.93642 -20.203554  L 104.192665 -20.203554  L 104.44891 -20.203554  L 104.705155 -20.203554  L 104.9614 -20.203554  L 105.217645 -20.203554  L 105.47389 -20.203554  L 105.730134 -20.203554  L 105.986379 -20.203554  L 106.242624 -20.203554  L 106.498869 -20.203554  L 106.755114 -20.203554  L 107.011359 -20.203554  L 107.267604 -20.203554  L 107.523849 -20.203554  L 107.780094 -20.203554  L 108.036339 -20.203554  L 108.292584 -20.203554  L 108.548829 -20.203554  L 108.805074 -20.203554  L 109.061319 -20.203554  L 109.317563 -20.203554  L 109.573808 -20.203554  L 109.830053 -20.203554  L 110.086298 -20.203554  L 110.342543 -20.203554  L 110.598788 -20.203554  L 110.855033 -20.203554  L 111.111278 -20.203554  L 111.367523 -20.203554  L 111.623768 -20.203554  L 111.880013 -20.203554  L 112.136258 -20.203554  L 112.392503 -20.203554  L 112.648748 -20.203554  L 112.904992 -20.203554  L 113.161237 -20.203554  L 113.417482 -20.203554  L 113.673727 -20.203554  L 113.673727 -37.968371  L 113.673727 -37.968371  L 113.417482 -38.763646  L 113.161237 -39.580324  L 112.904992 -40.418151  L 112.648748 -41.276753  L 112.392503 -42.155778  L 112.136258 -43.054711  L 111.880013 -43.973074  L 111.623768 -44.910237  L 111.367523 -45.865575  L 111.111278 -46.838352  L 110.855033 -47.827776  L 110.598788 -48.832978  L 110.342543 -49.853064  L 110.086298 -50.887013  L 109.830053 -51.933811  L 109.573808 -52.992287  L 109.317563 -54.061301  L 109.061319 -55.139572  L 108.805074 -56.225824  L 108.548829 -57.318676  L 108.292584 -58.416687  L 108.036339 -59.518414  L 107.780094 -60.62229  L 107.523849 -61.726776  L 107.267604 -62.830225  L 107.011359 -63.930987  L 106.755114 -65.027348  L 106.498869 -66.11758  L 106.242624 -67.199917  L 105.986379 -68.272579  L 105.730134 -69.333746  L 105.47389 -70.381592  L 105.217645 -71.414297  L 104.9614 -72.430025  L 104.705155 -73.426917  L 104.44891 -74.403156  L 104.192665 -75.356923  L 103.93642 -76.286407  L 103.680175 -77.189828  L 103.42393 -78.065441  L 103.167685 -78.911521  L 102.91144 -79.726394  L 102.655195 -80.50841  L 102.39895 -81.256011  L 102.142705 -81.967653  L 101.886461 -82.641877  L 101.630216 -83.277275  L 101.373971 -83.872521  L 101.117726 -84.426361  L 100.861481 -84.937625  L 100.605236 -85.405216  L 100.348991 -85.828143  L 100.092746 -86.205476  L 99.836501 -86.53642  L 99.580256 -86.820247  L 99.324011 -87.056338  L 99.067766 -87.244185  L 98.811521 -87.383365  L 98.555276 -87.473588  L 98.299032 -87.514646  L 98.042787 -87.506449  L 97.786542 -87.449023  L 97.530297 -87.342493  L 97.274052 -87.187086  L 97.017807 -86.983147  L 96.761562 -86.731121  L 96.505317 -86.43156  L 96.249072 -86.085117  L 95.992827 -85.692543  L 95.736582 -85.254681  L 95.480337 -84.772482  L 95.224092 -84.246973  L 94.967847 -83.679279  L 94.711603 -83.070597  L 94.455358 -82.422209  L 94.199113 -81.735474  L 93.942868 -81.011804  L 93.686623 -80.252693  L 93.430378 -79.459704  L 93.174133 -78.634427  L 92.917888 -77.778511  L 92.661643 -76.893666  L 92.405398 -75.981611  L 92.149153 -75.044117  L 91.892908 -74.082973  L 91.636663 -73.09999  L 91.380418 -72.097004  L 91.124174 -71.075855  L 90.867929 -70.038382  L 90.611684 -68.986428  L 90.355439 -67.921832  L 90.099194 -66.846419  L 89.842949 -65.761995  L 89.586704 -64.670346  L 89.330459 -63.57325  L 89.074214 -62.472423  L 88.817969 -61.369582  L 88.561724 -60.266369  L 88.305479 -59.164411  L 88.049234 -58.065288  L 87.792989 -56.970511  L 87.536745 -55.881571  L 87.2805 -54.799881  L 87.024255 -53.726809  L 86.76801 -52.663658  L 86.511765 -51.611684  L 86.25552 -50.572062  L 85.999275 -49.545919  L 85.74303 -48.534314  L 85.486785 -47.538247  L 85.23054 -46.558643  L 84.974295 -45.596373  L 84.71805 -44.652241  L 84.461805 -43.726979  L 84.20556 -42.821265  L 83.949316 -41.935716  L 83.693071 -41.070877  L 83.436826 -40.227247  L 83.180581 -39.405251  L 82.924336 -38.605256  L 82.668091 -37.827601  z " style="stroke: #808080; stroke-opacity: 0.5"/>
    </defs>
    <g clip-path="url(#pd291e77184)">
     <use xlink:href="#mc72e2c1729" x="0" y="103.33225" style="fill: #808080; fill-opacity: 0.5; stroke: #808080; stroke-opacity: 0.5"/>
    </g>
   </g>
   <g id="PathCollection_1">
    <defs>
     <path id="m0ff7de772f" d="M 0 1.118034  C 0.296506 1.118034 0.580908 1.000231 0.790569 0.790569  C 1.000231 0.580908 1.118034 0.296506 1.118034 0  C 1.118034 -0.296506 1.000231 -0.580908 0.790569 -0.790569  C 0.580908 -1.000231 0.296506 -1.118034 0 -1.118034  C -0.296506 -1.118034 -0.580908 -1.000231 -0.790569 -0.790569  C -1.000231 -0.580908 -1.118034 -0.296506 -1.118034 0  C -1.118034 0.296506 -1.000231 0.580908 -0.790569 0.790569  C -0.580908 1.000231 -0.296506 1.118034 0 1.118034  z " style="stroke: #d7301f"/>
    </defs>
    <g clip-path="url(#pd291e77184)">
     <use xlink:href="#m0ff7de772f" x="40.540597" y="82.959965" style="fill: #d7301f; stroke: #d7301f"/>
     <use xlink:href="#m0ff7de772f" x="40.291465" y="82.959965" style="fill: #d7301f; stroke: #d7301f"/>
     <use xlink:href="#m0ff7de772f" x="48.762746" y="82.959965" style="fill: #d7301f; stroke: #d7301f"/>
     <use xlink:href="#m0ff7de772f" x="47.040835" y="82.959965" style="fill: #d7301f; stroke: #d7301f"/>
     <use xlink:href="#m0ff7de772f" x="56.742129" y="82.959965" style="fill: #d7301f; stroke: #d7301f"/>
     <use xlink:href="#m0ff7de772f" x="47.909948" y="82.959965" style="fill: #d7301f; stroke: #d7301f"/>
     <use xlink:href="#m0ff7de772f" x="55.513936" y="82.959965" style="fill: #d7301f; stroke: #d7301f"/>
     <use xlink:href="#m0ff7de772f" x="49.635125" y="82.959965" style="fill: #d7301f; stroke: #d7301f"/>
     <use xlink:href="#m0ff7de772f" x="53.615918" y="82.959965" style="fill: #d7301f; stroke: #d7301f"/>
     <use xlink:href="#m0ff7de772f" x="60.006136" y="82.959965" style="fill: #d7301f; stroke: #d7301f"/>
     <use xlink:href="#m0ff7de772f" x="43.191218" y="82.959965" style="fill: #d7301f; stroke: #d7301f"/>
     <use xlink:href="#m0ff7de772f" x="59.870189" y="82.959965" style="fill: #d7301f; stroke: #d7301f"/>
     <use xlink:href="#m0ff7de772f" x="51.621468" y="82.959965" style="fill: #d7301f; stroke: #d7301f"/>
     <use xlink:href="#m0ff7de772f" x="102.21684" y="82.959965" style="fill: #d7301f; stroke: #d7301f"/>
     <use xlink:href="#m0ff7de772f" x="99.142348" y="82.959965" style="fill: #d7301f; stroke: #d7301f"/>
     <use xlink:href="#m0ff7de772f" x="104.105928" y="82.959965" style="fill: #d7301f; stroke: #d7301f"/>
     <use xlink:href="#m0ff7de772f" x="102.23056" y="82.959965" style="fill: #d7301f; stroke: #d7301f"/>
     <use xlink:href="#m0ff7de772f" x="96.058558" y="82.959965" style="fill: #d7301f; stroke: #d7301f"/>
     <use xlink:href="#m0ff7de772f" x="91.110911" y="82.959965" style="fill: #d7301f; stroke: #d7301f"/>
     <use xlink:href="#m0ff7de772f" x="103.372533" y="82.959965" style="fill: #d7301f; stroke: #d7301f"/>
     <use xlink:href="#m0ff7de772f" x="100.525287" y="82.959965" style="fill: #d7301f; stroke: #d7301f"/>
     <use xlink:href="#m0ff7de772f" x="102.998084" y="82.959965" style="fill: #d7301f; stroke: #d7301f"/>
     <use xlink:href="#m0ff7de772f" x="84.287663" y="82.959965" style="fill: #d7301f; stroke: #d7301f"/>
     <use xlink:href="#m0ff7de772f" x="83.181106" y="82.959965" style="fill: #d7301f; stroke: #d7301f"/>
     <use xlink:href="#m0ff7de772f" x="109.389374" y="82.959965" style="fill: #d7301f; stroke: #d7301f"/>
     <use xlink:href="#m0ff7de772f" x="98.880477" y="82.959965" style="fill: #d7301f; stroke: #d7301f"/>
     <use xlink:href="#m0ff7de772f" x="86.812327" y="82.959965" style="fill: #d7301f; stroke: #d7301f"/>
     <use xlink:href="#m0ff7de772f" x="98.041406" y="82.959965" style="fill: #d7301f; stroke: #d7301f"/>
     <use xlink:href="#m0ff7de772f" x="95.922606" y="82.959965" style="fill: #d7301f; stroke: #d7301f"/>
     <use xlink:href="#m0ff7de772f" x="94.406247" y="82.959965" style="fill: #d7301f; stroke: #d7301f"/>
     <use xlink:href="#m0ff7de772f" x="103.190041" y="82.959965" style="fill: #d7301f; stroke: #d7301f"/>
     <use xlink:href="#m0ff7de772f" x="94.374277" y="82.959965" style="fill: #d7301f; stroke: #d7301f"/>
     <use xlink:href="#m0ff7de772f" x="100.017059" y="82.959965" style="fill: #d7301f; stroke: #d7301f"/>
     <use xlink:href="#m0ff7de772f" x="93.855993" y="82.959965" style="fill: #d7301f; stroke: #d7301f"/>
     <use xlink:href="#m0ff7de772f" x="92.702911" y="82.959965" style="fill: #d7301f; stroke: #d7301f"/>
     <use xlink:href="#m0ff7de772f" x="92.86936" y="82.959965" style="fill: #d7301f; stroke: #d7301f"/>
     <use xlink:href="#m0ff7de772f" x="87.51253" y="82.959965" style="fill: #d7301f; stroke: #d7301f"/>
     <use xlink:href="#m0ff7de772f" x="95.108504" y="82.959965" style="fill: #d7301f; stroke: #d7301f"/>
     <use xlink:href="#m0ff7de772f" x="87.823783" y="82.959965" style="fill: #d7301f; stroke: #d7301f"/>
     <use xlink:href="#m0ff7de772f" x="97.286053" y="82.959965" style="fill: #d7301f; stroke: #d7301f"/>
     <use xlink:href="#m0ff7de772f" x="97.209456" y="82.959965" style="fill: #d7301f; stroke: #d7301f"/>
     <use xlink:href="#m0ff7de772f" x="104.540473" y="82.959965" style="fill: #d7301f; stroke: #d7301f"/>
     <use xlink:href="#m0ff7de772f" x="90.211279" y="82.959965" style="fill: #d7301f; stroke: #d7301f"/>
     <use xlink:href="#m0ff7de772f" x="98.094742" y="82.959965" style="fill: #d7301f; stroke: #d7301f"/>
     <use xlink:href="#m0ff7de772f" x="91.0369" y="82.959965" style="fill: #d7301f; stroke: #d7301f"/>
     <use xlink:href="#m0ff7de772f" x="99.828074" y="82.959965" style="fill: #d7301f; stroke: #d7301f"/>
     <use xlink:href="#m0ff7de772f" x="103.9213" y="82.959965" style="fill: #d7301f; stroke: #d7301f"/>
     <use xlink:href="#m0ff7de772f" x="104.081404" y="82.959965" style="fill: #d7301f; stroke: #d7301f"/>
     <use xlink:href="#m0ff7de772f" x="95.775445" y="82.959965" style="fill: #d7301f; stroke: #d7301f"/>
     <use xlink:href="#m0ff7de772f" x="97.619232" y="82.959965" style="fill: #d7301f; stroke: #d7301f"/>
    </g>
   </g>
   <g id="PathCollection_2">
    <defs>
     <path id="m9bed71a71d" d="M 0 1.118034  C 0.296506 1.118034 0.580908 1.000231 0.790569 0.790569  C 1.000231 0.580908 1.118034 0.296506 1.118034 0  C 1.118034 -0.296506 1.000231 -0.580908 0.790569 -0.790569  C 0.580908 -1.000231 0.296506 -1.118034 0 -1.118034  C -0.296506 -1.118034 -0.580908 -1.000231 -0.790569 -0.790569  C -1.000231 -0.580908 -1.118034 -0.296506 -1.118034 0  C -1.118034 0.296506 -1.000231 0.580908 -0.790569 0.790569  C -0.580908 1.000231 -0.296506 1.118034 0 1.118034  z " style="stroke: #0570b0"/>
    </defs>
    <g clip-path="url(#pd291e77184)">
     <use xlink:href="#m9bed71a71d" x="36.508197" y="82.959965" style="fill: #0570b0; stroke: #0570b0"/>
     <use xlink:href="#m9bed71a71d" x="68.523694" y="82.959965" style="fill: #0570b0; stroke: #0570b0"/>
     <use xlink:href="#m9bed71a71d" x="64.678323" y="82.959965" style="fill: #0570b0; stroke: #0570b0"/>
     <use xlink:href="#m9bed71a71d" x="64.168288" y="82.959965" style="fill: #0570b0; stroke: #0570b0"/>
     <use xlink:href="#m9bed71a71d" x="66.018594" y="82.959965" style="fill: #0570b0; stroke: #0570b0"/>
     <use xlink:href="#m9bed71a71d" x="62.943723" y="82.959965" style="fill: #0570b0; stroke: #0570b0"/>
     <use xlink:href="#m9bed71a71d" x="69.951333" y="82.959965" style="fill: #0570b0; stroke: #0570b0"/>
     <use xlink:href="#m9bed71a71d" x="119.713139" y="82.959965" style="fill: #0570b0; stroke: #0570b0"/>
     <use xlink:href="#m9bed71a71d" x="119.716064" y="82.959965" style="fill: #0570b0; stroke: #0570b0"/>
     <use xlink:href="#m9bed71a71d" x="80.409889" y="82.959965" style="fill: #0570b0; stroke: #0570b0"/>
    </g>
   </g>
   <g id="matplotlib.axis_1">
    <g id="text_1">
     <!-- $\theta$ -->
     <g transform="translate(74.71 94.54225)">
      <text>
       <tspan style="font: 8px 'Arial'" x="0" y="-0.171875">&#952;</tspan>
      </text>
     </g>
    </g>
   </g>
   <g id="matplotlib.axis_2"/>
   <g id="line2d_1">
    <path d="M 13.540909 83.117405  L 20.14867 82.981729  L 23.198402 82.72213  L 25.485707 82.31488  L 27.26472 81.788578  L 28.789585 81.131513  L 30.314456 80.229687  L 31.839326 79.030071  L 33.11005 77.768012  L 34.634913 75.907176  L 36.159784 73.653368  L 37.684652 71.019473  L 39.717809 67.009444  L 45.817281 54.422964  L 47.088005 52.428831  L 48.104582 51.158222  L 49.121161 50.222626  L 49.883594 49.760419  L 50.646027 49.513861  L 51.408462 49.487786  L 52.170898 49.682682  L 52.933332 50.094705  L 53.94991 50.96726  L 54.966488 52.181006  L 56.237211 54.114975  L 57.762079 56.915711  L 60.049381 61.694781  L 63.607407 69.144145  L 65.386419 72.354102  L 66.911287 74.666967  L 68.18201 76.241206  L 69.452734 77.473052  L 70.469312 78.203104  L 71.485891 78.699919  L 72.50247 78.957145  L 73.519048 78.966643  L 74.535627 78.717717  L 75.552205 78.196787  L 76.568784 77.387555  L 77.585363 76.271708  L 78.601939 74.830153  L 79.618517 73.044712  L 80.889241 70.306851  L 82.159965 66.991961  L 83.684832 62.261373  L 85.209701 56.773607  L 87.242858 48.532369  L 92.325752 27.350639  L 93.596473 23.079557  L 94.613053 20.261653  L 95.62963 18.077569  L 96.392065 16.90069  L 97.154498 16.145164  L 97.662787 15.883227  L 98.171078 15.817604  L 98.679366 15.948885  L 99.187657 16.275912  L 99.950092 17.126774  L 100.712525 18.394625  L 101.474958 20.054975  L 102.491538 22.82384  L 103.762259 27.045843  L 105.287127 32.950658  L 108.082721 44.915563  L 110.624164 55.504474  L 112.403181 62.055497  L 113.928047 66.889347  L 115.452917 70.939836  L 116.723637 73.723146  L 117.994361 76.002494  L 119.265084 77.827361  L 120.535808 79.256427  L 121.806532 80.351547  L 123.077256 81.17307  L 124.602121 81.875495  L 126.381134 82.407454  L 128.414293 82.761589  L 131.209882 82.994326  L 135.784489 83.107263  L 140.359091 83.125999  L 140.359091 83.125999  " clip-path="url(#pd291e77184)" style="fill: none; stroke: #000000; stroke-width: 1.5; stroke-linecap: square"/>
   </g>
   <g id="line2d_2">
    <path d="M 46.419697 83.128696  L 46.419697 7.2  " clip-path="url(#pd291e77184)" style="fill: none; stroke: #008000; stroke-width: 1.5; stroke-linecap: square"/>
   </g>
  </g>
 </g>
 <defs>
  <clipPath id="pd291e77184">
   <rect x="7.2" y="7.2" width="139.5" height="77.616"/>
  </clipPath>
 </defs>
</g>
      <text x="5" y="8.0" font-size="12pt" font-family="Arial" font-weight="800" letter-spacing="0" text-anchor="start" fill="black">a</text>
    </g>
    <g transform="translate(200, 5) scale(1) ">
      <g transform="translate(0, 0) scale(1) translate(0, 0) scale(1.25) "><metadata>
  <rdf:RDF xmlns:dc="http://purl.org/dc/elements/1.1/" xmlns:cc="http://creativecommons.org/ns#" xmlns:rdf="http://www.w3.org/1999/02/22-rdf-syntax-ns#">
   <cc:Work>
    <dc:type rdf:resource="http://purl.org/dc/dcmitype/StillImage"/>
    <dc:date>2022-04-20T12:28:02.886176</dc:date>
    <dc:format>image/svg+xml</dc:format>
    <dc:creator>
     <cc:Agent>
      <dc:title>Matplotlib v3.5.1, https://matplotlib.org/</dc:title>
     </cc:Agent>
    </dc:creator>
   </cc:Work>
  </rdf:RDF>
 </metadata>
 <defs>
  <style type="text/css">*{stroke-linejoin: round; stroke-linecap: butt}</style>
 </defs>
 <g id="figure_1">
  <g id="patch_1">
   <path d="M 0 100.844  L 114.84 100.844  L 114.84 0  L 0 0  z " style="fill: #ffffff"/>
  </g>
  <g id="axes_1">
   <g id="patch_2">
    <path d="M 7.2 82.044  L 107.64 82.044  L 107.64 7.2  L 7.2 7.2  z " style="fill: #ffffff"/>
   </g>
   <g id="matplotlib.axis_1">
    <g id="text_1">
     <!-- log(p($\theta$)) -->
     <g transform="translate(42.3 91.884)">
      <text>
       <tspan style="font: 8px 'Arial'" x="0 1.777344 6.226562 10.675781 13.339844 17.789062 20.453125 24.902344 27.566406" y="-0.171875">log(p(&#952;))</tspan>
      </text>
     </g>
    </g>
   </g>
   <g id="matplotlib.axis_2"/>
   <g id="line2d_1">
    <path d="M 57.367988 82.044  L 57.367988 32.148  " clip-path="url(#p3c704a78b3)" style="fill: none; stroke: #d7301f; stroke-width: 1.5; stroke-linecap: square"/>
   </g>
   <g id="line2d_2">
    <path d="M 56.327391 82.044  L 56.327391 32.148  " clip-path="url(#p3c704a78b3)" style="fill: none; stroke: #d7301f; stroke-width: 1.5; stroke-linecap: square"/>
   </g>
   <g id="line2d_3">
    <path d="M 78.117023 82.044  L 78.117023 32.148  " clip-path="url(#p3c704a78b3)" style="fill: none; stroke: #d7301f; stroke-width: 1.5; stroke-linecap: square"/>
   </g>
   <g id="line2d_4">
    <path d="M 75.956163 82.044  L 75.956163 32.148  " clip-path="url(#p3c704a78b3)" style="fill: none; stroke: #d7301f; stroke-width: 1.5; stroke-linecap: square"/>
   </g>
   <g id="line2d_5">
    <path d="M 73.027187 82.044  L 73.027187 32.148  " clip-path="url(#p3c704a78b3)" style="fill: none; stroke: #d7301f; stroke-width: 1.5; stroke-linecap: square"/>
   </g>
   <g id="line2d_6">
    <path d="M 77.19148 82.044  L 77.19148 32.148  " clip-path="url(#p3c704a78b3)" style="fill: none; stroke: #d7301f; stroke-width: 1.5; stroke-linecap: square"/>
   </g>
   <g id="line2d_7">
    <path d="M 75.427238 82.044  L 75.427238 32.148  " clip-path="url(#p3c704a78b3)" style="fill: none; stroke: #d7301f; stroke-width: 1.5; stroke-linecap: square"/>
   </g>
   <g id="line2d_8">
    <path d="M 78.770102 82.044  L 78.770102 32.148  " clip-path="url(#p3c704a78b3)" style="fill: none; stroke: #d7301f; stroke-width: 1.5; stroke-linecap: square"/>
   </g>
   <g id="line2d_9">
    <path d="M 77.980259 82.044  L 77.980259 32.148  " clip-path="url(#p3c704a78b3)" style="fill: none; stroke: #d7301f; stroke-width: 1.5; stroke-linecap: square"/>
   </g>
   <g id="line2d_10">
    <path d="M 63.804645 82.044  L 63.804645 32.148  " clip-path="url(#p3c704a78b3)" style="fill: none; stroke: #d7301f; stroke-width: 1.5; stroke-linecap: square"/>
   </g>
   <g id="line2d_11">
    <path d="M 66.939223 82.044  L 66.939223 32.148  " clip-path="url(#p3c704a78b3)" style="fill: none; stroke: #d7301f; stroke-width: 1.5; stroke-linecap: square"/>
   </g>
   <g id="line2d_12">
    <path d="M 64.270733 82.044  L 64.270733 32.148  " clip-path="url(#p3c704a78b3)" style="fill: none; stroke: #d7301f; stroke-width: 1.5; stroke-linecap: square"/>
   </g>
   <g id="line2d_13">
    <path d="M 79.148976 82.044  L 79.148976 32.148  " clip-path="url(#p3c704a78b3)" style="fill: none; stroke: #d7301f; stroke-width: 1.5; stroke-linecap: square"/>
   </g>
   <g id="line2d_14">
    <path d="M 99.744743 82.044  L 99.744743 32.148  " clip-path="url(#p3c704a78b3)" style="fill: none; stroke: #d7301f; stroke-width: 1.5; stroke-linecap: square"/>
   </g>
   <g id="line2d_15">
    <path d="M 102.856898 82.044  L 102.856898 32.148  " clip-path="url(#p3c704a78b3)" style="fill: none; stroke: #d7301f; stroke-width: 1.5; stroke-linecap: square"/>
   </g>
   <g id="line2d_16">
    <path d="M 96.002486 82.044  L 96.002486 32.148  " clip-path="url(#p3c704a78b3)" style="fill: none; stroke: #d7301f; stroke-width: 1.5; stroke-linecap: square"/>
   </g>
   <g id="line2d_17">
    <path d="M 99.722582 82.044  L 99.722582 32.148  " clip-path="url(#p3c704a78b3)" style="fill: none; stroke: #d7301f; stroke-width: 1.5; stroke-linecap: square"/>
   </g>
   <g id="line2d_18">
    <path d="M 102.272148 82.044  L 102.272148 32.148  " clip-path="url(#p3c704a78b3)" style="fill: none; stroke: #d7301f; stroke-width: 1.5; stroke-linecap: square"/>
   </g>
   <g id="line2d_19">
    <path d="M 93.580751 82.044  L 93.580751 32.148  " clip-path="url(#p3c704a78b3)" style="fill: none; stroke: #d7301f; stroke-width: 1.5; stroke-linecap: square"/>
   </g>
   <g id="line2d_20">
    <path d="M 97.620754 82.044  L 97.620754 32.148  " clip-path="url(#p3c704a78b3)" style="fill: none; stroke: #d7301f; stroke-width: 1.5; stroke-linecap: square"/>
   </g>
   <g id="line2d_21">
    <path d="M 101.913573 82.044  L 101.913573 32.148  " clip-path="url(#p3c704a78b3)" style="fill: none; stroke: #d7301f; stroke-width: 1.5; stroke-linecap: square"/>
   </g>
   <g id="line2d_22">
    <path d="M 98.366028 82.044  L 98.366028 32.148  " clip-path="url(#p3c704a78b3)" style="fill: none; stroke: #d7301f; stroke-width: 1.5; stroke-linecap: square"/>
   </g>
   <g id="line2d_23">
    <path d="M 66.01253 82.044  L 66.01253 32.148  " clip-path="url(#p3c704a78b3)" style="fill: none; stroke: #d7301f; stroke-width: 1.5; stroke-linecap: square"/>
   </g>
   <g id="line2d_24">
    <path d="M 59.892791 82.044  L 59.892791 32.148  " clip-path="url(#p3c704a78b3)" style="fill: none; stroke: #d7301f; stroke-width: 1.5; stroke-linecap: square"/>
   </g>
   <g id="line2d_25">
    <path d="M 78.139973 82.044  L 78.139973 32.148  " clip-path="url(#p3c704a78b3)" style="fill: none; stroke: #d7301f; stroke-width: 1.5; stroke-linecap: square"/>
   </g>
   <g id="line2d_26">
    <path d="M 102.95146 82.044  L 102.95146 32.148  " clip-path="url(#p3c704a78b3)" style="fill: none; stroke: #d7301f; stroke-width: 1.5; stroke-linecap: square"/>
   </g>
   <g id="line2d_27">
    <path d="M 78.293543 82.044  L 78.293543 32.148  " clip-path="url(#p3c704a78b3)" style="fill: none; stroke: #d7301f; stroke-width: 1.5; stroke-linecap: square"/>
   </g>
   <g id="line2d_28">
    <path d="M 103.07417 82.044  L 103.07417 32.148  " clip-path="url(#p3c704a78b3)" style="fill: none; stroke: #d7301f; stroke-width: 1.5; stroke-linecap: square"/>
   </g>
   <g id="line2d_29">
    <path d="M 102.160944 82.044  L 102.160944 32.148  " clip-path="url(#p3c704a78b3)" style="fill: none; stroke: #d7301f; stroke-width: 1.5; stroke-linecap: square"/>
   </g>
   <g id="line2d_30">
    <path d="M 100.431716 82.044  L 100.431716 32.148  " clip-path="url(#p3c704a78b3)" style="fill: none; stroke: #d7301f; stroke-width: 1.5; stroke-linecap: square"/>
   </g>
   <g id="line2d_31">
    <path d="M 97.990804 82.044  L 97.990804 32.148  " clip-path="url(#p3c704a78b3)" style="fill: none; stroke: #d7301f; stroke-width: 1.5; stroke-linecap: square"/>
   </g>
   <g id="line2d_32">
    <path d="M 100.385598 82.044  L 100.385598 32.148  " clip-path="url(#p3c704a78b3)" style="fill: none; stroke: #d7301f; stroke-width: 1.5; stroke-linecap: square"/>
   </g>
   <g id="line2d_33">
    <path d="M 102.347007 82.044  L 102.347007 32.148  " clip-path="url(#p3c704a78b3)" style="fill: none; stroke: #d7301f; stroke-width: 1.5; stroke-linecap: square"/>
   </g>
   <g id="line2d_34">
    <path d="M 99.58234 82.044  L 99.58234 32.148  " clip-path="url(#p3c704a78b3)" style="fill: none; stroke: #d7301f; stroke-width: 1.5; stroke-linecap: square"/>
   </g>
   <g id="line2d_35">
    <path d="M 97.419292 82.044  L 97.419292 32.148  " clip-path="url(#p3c704a78b3)" style="fill: none; stroke: #d7301f; stroke-width: 1.5; stroke-linecap: square"/>
   </g>
   <g id="line2d_36">
    <path d="M 97.763563 82.044  L 97.763563 32.148  " clip-path="url(#p3c704a78b3)" style="fill: none; stroke: #d7301f; stroke-width: 1.5; stroke-linecap: square"/>
   </g>
   <g id="line2d_37">
    <path d="M 81.271183 82.044  L 81.271183 32.148  " clip-path="url(#p3c704a78b3)" style="fill: none; stroke: #d7301f; stroke-width: 1.5; stroke-linecap: square"/>
   </g>
   <g id="line2d_38">
    <path d="M 101.34411 82.044  L 101.34411 32.148  " clip-path="url(#p3c704a78b3)" style="fill: none; stroke: #d7301f; stroke-width: 1.5; stroke-linecap: square"/>
   </g>
   <g id="line2d_39">
    <path d="M 82.534216 82.044  L 82.534216 32.148  " clip-path="url(#p3c704a78b3)" style="fill: none; stroke: #d7301f; stroke-width: 1.5; stroke-linecap: square"/>
   </g>
   <g id="line2d_40">
    <path d="M 102.949589 82.044  L 102.949589 32.148  " clip-path="url(#p3c704a78b3)" style="fill: none; stroke: #d7301f; stroke-width: 1.5; stroke-linecap: square"/>
   </g>
   <g id="line2d_41">
    <path d="M 102.924523 82.044  L 102.924523 32.148  " clip-path="url(#p3c704a78b3)" style="fill: none; stroke: #d7301f; stroke-width: 1.5; stroke-linecap: square"/>
   </g>
   <g id="line2d_42">
    <path d="M 94.94459 82.044  L 94.94459 32.148  " clip-path="url(#p3c704a78b3)" style="fill: none; stroke: #d7301f; stroke-width: 1.5; stroke-linecap: square"/>
   </g>
   <g id="line2d_43">
    <path d="M 90.974898 82.044  L 90.974898 32.148  " clip-path="url(#p3c704a78b3)" style="fill: none; stroke: #d7301f; stroke-width: 1.5; stroke-linecap: square"/>
   </g>
   <g id="line2d_44">
    <path d="M 103.074545 82.044  L 103.074545 32.148  " clip-path="url(#p3c704a78b3)" style="fill: none; stroke: #d7301f; stroke-width: 1.5; stroke-linecap: square"/>
   </g>
   <g id="line2d_45">
    <path d="M 93.378274 82.044  L 93.378274 32.148  " clip-path="url(#p3c704a78b3)" style="fill: none; stroke: #d7301f; stroke-width: 1.5; stroke-linecap: square"/>
   </g>
   <g id="line2d_46">
    <path d="M 102.482463 82.044  L 102.482463 32.148  " clip-path="url(#p3c704a78b3)" style="fill: none; stroke: #d7301f; stroke-width: 1.5; stroke-linecap: square"/>
   </g>
   <g id="line2d_47">
    <path d="M 96.429654 82.044  L 96.429654 32.148  " clip-path="url(#p3c704a78b3)" style="fill: none; stroke: #d7301f; stroke-width: 1.5; stroke-linecap: square"/>
   </g>
   <g id="line2d_48">
    <path d="M 96.059995 82.044  L 96.059995 32.148  " clip-path="url(#p3c704a78b3)" style="fill: none; stroke: #d7301f; stroke-width: 1.5; stroke-linecap: square"/>
   </g>
   <g id="line2d_49">
    <path d="M 102.032442 82.044  L 102.032442 32.148  " clip-path="url(#p3c704a78b3)" style="fill: none; stroke: #d7301f; stroke-width: 1.5; stroke-linecap: square"/>
   </g>
   <g id="line2d_50">
    <path d="M 103.031992 82.044  L 103.031992 32.148  " clip-path="url(#p3c704a78b3)" style="fill: none; stroke: #d7301f; stroke-width: 1.5; stroke-linecap: square"/>
   </g>
   <g id="line2d_51">
    <path d="M 37.547678 82.044  L 37.547678 32.148  " clip-path="url(#p3c704a78b3)" style="fill: none; stroke: #0570b0; stroke-width: 1.5; stroke-linecap: square"/>
   </g>
   <g id="line2d_52">
    <path d="M 22.671238 82.044  L 22.671238 32.148  " clip-path="url(#p3c704a78b3)" style="fill: none; stroke: #0570b0; stroke-width: 1.5; stroke-linecap: square"/>
   </g>
   <g id="line2d_53">
    <path d="M 43.651481 82.044  L 43.651481 32.148  " clip-path="url(#p3c704a78b3)" style="fill: none; stroke: #0570b0; stroke-width: 1.5; stroke-linecap: square"/>
   </g>
   <g id="line2d_54">
    <path d="M 46.218135 82.044  L 46.218135 32.148  " clip-path="url(#p3c704a78b3)" style="fill: none; stroke: #0570b0; stroke-width: 1.5; stroke-linecap: square"/>
   </g>
   <g id="line2d_55">
    <path d="M 36.564947 82.044  L 36.564947 32.148  " clip-path="url(#p3c704a78b3)" style="fill: none; stroke: #0570b0; stroke-width: 1.5; stroke-linecap: square"/>
   </g>
   <g id="line2d_56">
    <path d="M 52.036995 82.044  L 52.036995 32.148  " clip-path="url(#p3c704a78b3)" style="fill: none; stroke: #0570b0; stroke-width: 1.5; stroke-linecap: square"/>
   </g>
   <g id="line2d_57">
    <path d="M 15.321237 82.044  L 15.321237 32.148  " clip-path="url(#p3c704a78b3)" style="fill: none; stroke: #0570b0; stroke-width: 1.5; stroke-linecap: square"/>
   </g>
   <g id="line2d_58">
    <path d="M 11.790141 82.044  L 11.790141 32.148  " clip-path="url(#p3c704a78b3)" style="fill: none; stroke: #0570b0; stroke-width: 1.5; stroke-linecap: square"/>
   </g>
   <g id="line2d_59">
    <path d="M 11.765455 82.044  L 11.765455 32.148  " clip-path="url(#p3c704a78b3)" style="fill: none; stroke: #0570b0; stroke-width: 1.5; stroke-linecap: square"/>
   </g>
   <g id="line2d_60">
    <path d="M 42.865851 82.044  L 42.865851 32.148  " clip-path="url(#p3c704a78b3)" style="fill: none; stroke: #0570b0; stroke-width: 1.5; stroke-linecap: square"/>
   </g>
   <g id="line2d_61">
    <path d="M 74.892649 82.044  L 74.892649 7.2  " clip-path="url(#p3c704a78b3)" style="fill: none; stroke: #008000; stroke-width: 1.5; stroke-linecap: square"/>
   </g>
   <g id="patch_3">
    <path d="M 7.2 82.044  L 107.64 82.044  " style="fill: none; stroke: #000000; stroke-width: 1.5; stroke-linejoin: miter; stroke-linecap: square"/>
   </g>
  </g>
 </g>
 <defs>
  <clipPath id="p3c704a78b3">
   <rect x="7.2" y="7.2" width="100.44" height="74.844"/>
  </clipPath>
 </defs>
</g>
      <text x="-10" y="8.0" font-size="12pt" font-family="Arial" font-weight="800" letter-spacing="0" text-anchor="start" fill="black">b</text>
    </g>
    <g transform="translate(380, 0) scale(1) ">
      <g transform="translate(0, 0) scale(1) translate(0, 0) scale(1.25) "><metadata>
  <rdf:RDF xmlns:dc="http://purl.org/dc/elements/1.1/" xmlns:cc="http://creativecommons.org/ns#" xmlns:rdf="http://www.w3.org/1999/02/22-rdf-syntax-ns#">
   <cc:Work>
    <dc:type rdf:resource="http://purl.org/dc/dcmitype/StillImage"/>
    <dc:date>2022-04-20T12:28:06.793335</dc:date>
    <dc:format>image/svg+xml</dc:format>
    <dc:creator>
     <cc:Agent>
      <dc:title>Matplotlib v3.5.1, https://matplotlib.org/</dc:title>
     </cc:Agent>
    </dc:creator>
   </cc:Work>
  </rdf:RDF>
 </metadata>
 <defs>
  <style type="text/css">*{stroke-linejoin: round; stroke-linecap: butt}</style>
 </defs>
 <g id="figure_1">
  <g id="patch_1">
   <path d="M 0 117.739625  L 114.813125 117.739625  L 114.813125 0  L 0 0  z " style="fill: #ffffff"/>
  </g>
  <g id="axes_1">
   <g id="patch_2">
    <path d="M 30.05875 84.907125  L 105.38875 84.907125  L 105.38875 10.063125  L 30.05875 10.063125  z " style="fill: #ffffff"/>
   </g>
   <g id="matplotlib.axis_1">
    <g id="xtick_1">
     <g id="line2d_1">
      <defs>
       <path id="m40e72bb734" d="M 0 0  L 0 3.5  " style="stroke: #000000; stroke-width: 1.5"/>
      </defs>
      <g>
       <use xlink:href="#m40e72bb734" x="30.05875" y="84.907125" style="stroke: #000000; stroke-width: 1.5"/>
      </g>
     </g>
     <g id="text_1">
      <text style="font: 8px 'Arial'; text-anchor: middle" x="30.05875" y="97.633375" transform="rotate(-0, 30.05875, 97.633375)">0</text>
     </g>
    </g>
    <g id="xtick_2">
     <g id="line2d_2">
      <g>
       <use xlink:href="#m40e72bb734" x="105.38875" y="84.907125" style="stroke: #000000; stroke-width: 1.5"/>
      </g>
     </g>
     <g id="text_2">
      <text style="font: 8px 'Arial'; text-anchor: middle" x="105.38875" y="97.633375" transform="rotate(-0, 105.38875, 97.633375)">1</text>
     </g>
    </g>
    <g id="text_3">
     <text style="font: 8px 'Arial'; text-anchor: middle" x="67.72375" y="108.949625" transform="rotate(-0, 67.72375, 108.949625)">Confidence level</text>
    </g>
   </g>
   <g id="matplotlib.axis_2">
    <g id="ytick_1">
     <g id="line2d_3">
      <defs>
       <path id="mc5e7045857" d="M 0 0  L -3.5 0  " style="stroke: #000000; stroke-width: 1.5"/>
      </defs>
      <g>
       <use xlink:href="#mc5e7045857" x="30.05875" y="84.907125" style="stroke: #000000; stroke-width: 1.5"/>
      </g>
     </g>
     <g id="text_4">
      <text style="font: 8px 'Arial'; text-anchor: end" x="23.05875" y="87.77025" transform="rotate(-0, 23.05875, 87.77025)">0</text>
     </g>
    </g>
    <g id="ytick_2">
     <g id="line2d_4">
      <g>
       <use xlink:href="#mc5e7045857" x="30.05875" y="10.063125" style="stroke: #000000; stroke-width: 1.5"/>
      </g>
     </g>
     <g id="text_5">
      <text style="font: 8px 'Arial'; text-anchor: end" x="23.05875" y="12.92625" transform="rotate(-0, 23.05875, 12.92625)">1</text>
     </g>
    </g>
    <g id="text_6">
     <text style="font: 8px 'Arial'; text-anchor: middle" x="12.92625" y="47.485125" transform="rotate(-90, 12.92625, 47.485125)">Empirical coverage</text>
    </g>
   </g>
   <g id="line2d_5">
    <path d="M 30.05875 84.907125  L 105.38875 10.063125  " clip-path="url(#pc679e50591)" style="fill: none; stroke: #808080; stroke-width: 1.5; stroke-linecap: square"/>
   </g>
   <g id="line2d_6">
    <path d="M 30.05875 84.562772  L 31.596097 84.189736  L 33.133444 83.786867  L 34.670791 83.35302  L 36.208138 82.887047  L 37.745484 82.3878  L 39.282832 81.854132  L 40.820178 81.284896  L 42.357525 80.678945  L 43.894873 80.03513  L 45.432219 79.352305  L 46.969566 78.629322  L 48.506913 77.865034  L 50.04426 77.058293  L 51.581606 76.207954  L 53.118952 75.312866  L 54.656301 74.371884  L 56.193647 73.38386  L 57.730995 72.347648  L 59.268341 71.262098  L 60.805688 70.126064  L 62.343034 68.938397  L 63.880382 67.697953  L 65.417728 66.403584  L 66.955077 65.054141  L 68.492423 63.648475  L 70.029769 62.185443  L 71.567116 60.663894  L 73.104466 59.082684  L 74.641812 57.440661  L 76.179159 55.736685  L 77.716505 53.9696  L 79.253851 52.138263  L 80.791197 50.241525  L 82.328543 48.278244  L 83.865894 46.247264  L 85.40324 44.147443  L 86.940587 41.977633  L 88.477933 39.736687  L 90.015279 37.423459  L 91.55263 35.036797  L 93.089976 32.57556  L 94.627322 30.038592  L 96.164673 27.424756  L 97.702019 24.732891  L 99.239365 21.961865  L 100.776711 19.110523  L 102.314058 16.177717  L 103.851404 13.162301  L 105.38875 10.063125  " clip-path="url(#pc679e50591)" style="fill: none; stroke: #6e016b; stroke-width: 1.5; stroke-linecap: square"/>
   </g>
   <g id="line2d_7">
    <path d="M 30.05875 81.807951  L 31.596097 78.792535  L 33.133444 75.859728  L 34.670791 73.008385  L 36.208138 70.237356  L 37.745484 67.545497  L 39.282832 64.931656  L 40.820178 62.39469  L 42.357525 59.933451  L 43.894873 57.546789  L 45.432219 55.233563  L 46.969566 52.992617  L 48.506913 50.822807  L 50.04426 48.722986  L 51.581606 46.692008  L 53.118952 44.728722  L 54.656301 42.831991  L 56.193647 41.000654  L 57.730995 39.23357  L 59.268341 37.529587  L 60.805688 35.887568  L 62.343034 34.306353  L 63.880382 32.784805  L 65.417728 31.321773  L 66.955077 29.916109  L 68.492423 28.566664  L 70.029769 27.272295  L 71.567116 26.031851  L 73.104466 24.844185  L 74.641812 23.708152  L 76.179159 22.622605  L 77.716505 21.586388  L 79.253851 20.598363  L 80.791197 19.657385  L 82.328543 18.762297  L 83.865894 17.911954  L 85.40324 17.105214  L 86.940587 16.340924  L 88.477933 15.617944  L 90.015279 14.935118  L 91.55263 14.291304  L 93.089976 13.685355  L 94.627322 13.116116  L 96.164673 12.582449  L 97.702019 12.0832  L 99.239365 11.61723  L 100.776711 11.183379  L 102.314058 10.780515  L 103.851404 10.407478  L 105.38875 10.063125  " clip-path="url(#pc679e50591)" style="fill: none; stroke: #8c6bb1; stroke-width: 1.5; stroke-linecap: square"/>
   </g>
   <g id="patch_3">
    <path d="M 30.05875 84.907125  L 30.05875 10.063125  " style="fill: none; stroke: #000000; stroke-width: 1.5; stroke-linejoin: miter; stroke-linecap: square"/>
   </g>
   <g id="patch_4">
    <path d="M 30.05875 84.907125  L 105.38875 84.907125  " style="fill: none; stroke: #000000; stroke-width: 1.5; stroke-linejoin: miter; stroke-linecap: square"/>
   </g>
  </g>
 </g>
 <defs>
  <clipPath id="pc679e50591">
   <rect x="30.05875" y="10.063125" width="75.33" height="74.844"/>
  </clipPath>
 </defs>
</g>
      <text x="-10" y="13.0" font-size="12pt" font-family="Arial" font-weight="800" letter-spacing="0" text-anchor="start" fill="black">c</text>
      <text x="83" y="93.0" font-size="7.7pt" font-family="Arial" font-weight="normal" letter-spacing="0" text-anchor="start" fill="black">overconf.</text>
      <text x="50" y="25.0" font-size="7.7pt" font-family="Arial" font-weight="normal" letter-spacing="0" text-anchor="start" fill="black">underconf.</text>
    </g>
  </g>
</svg>
