<?xml version="1.0" encoding="utf-8" standalone="no"?>
<!DOCTYPE svg PUBLIC "-//W3C//DTD SVG 1.1//EN"
  "http://www.w3.org/Graphics/SVG/1.1/DTD/svg11.dtd">
<svg xmlns:xlink="http://www.w3.org/1999/xlink" width="116.1075pt" height="118.768375pt" viewBox="0 0 116.1075 118.768375" xmlns="http://www.w3.org/2000/svg" version="1.1">
 <metadata>
  <rdf:RDF xmlns:dc="http://purl.org/dc/elements/1.1/" xmlns:cc="http://creativecommons.org/ns#" xmlns:rdf="http://www.w3.org/1999/02/22-rdf-syntax-ns#">
   <cc:Work>
    <dc:type rdf:resource="http://purl.org/dc/dcmitype/StillImage"/>
    <dc:date>2022-04-13T18:54:36.786294</dc:date>
    <dc:format>image/svg+xml</dc:format>
    <dc:creator>
     <cc:Agent>
      <dc:title>Matplotlib v3.5.1, https://matplotlib.org/</dc:title>
     </cc:Agent>
    </dc:creator>
   </cc:Work>
  </rdf:RDF>
 </metadata>
 <defs>
  <style type="text/css">*{stroke-linejoin: round; stroke-linecap: butt}</style>
 </defs>
 <g id="figure_1">
  <g id="patch_1">
   <path d="M -0 118.768375 
L 116.1075 118.768375 
L 116.1075 -0 
L -0 -0 
z
" style="fill: #ffffff"/>
  </g>
  <g id="axes_1">
   <g id="patch_2">
    <path d="M 31.0325 85.083375 
L 106.3625 85.083375 
L 106.3625 10.239375 
L 31.0325 10.239375 
z
" style="fill: #ffffff"/>
   </g>
   <g id="matplotlib.axis_1">
    <g id="xtick_1">
     <g id="line2d_1">
      <defs>
       <path id="m35b332f902" d="M 0 0 
L 0 3.5 
" style="stroke: #000000; stroke-width: 1.5"/>
      </defs>
      <g>
       <use xlink:href="#m35b332f902" x="31.0325" y="85.083375" style="stroke: #000000; stroke-width: 1.5"/>
      </g>
     </g>
     <g id="text_1">
      <text style="font: 8px 'serif'; text-anchor: middle" x="31.0325" y="98.162125" transform="rotate(-0, 31.0325, 98.162125)">0</text>
     </g>
    </g>
    <g id="xtick_2">
     <g id="line2d_2">
      <g>
       <use xlink:href="#m35b332f902" x="106.3625" y="85.083375" style="stroke: #000000; stroke-width: 1.5"/>
      </g>
     </g>
     <g id="text_2">
      <text style="font: 8px 'serif'; text-anchor: middle" x="106.3625" y="98.162125" transform="rotate(-0, 106.3625, 98.162125)">1</text>
     </g>
    </g>
    <g id="text_3">
     <text style="font: 8px 'serif'; text-anchor: middle" x="68.6975" y="109.904625" transform="rotate(-0, 68.6975, 109.904625)">Confidence level</text>
    </g>
   </g>
   <g id="matplotlib.axis_2">
    <g id="ytick_1">
     <g id="line2d_3">
      <defs>
       <path id="m5c58f37ba6" d="M 0 0 
L -3.5 0 
" style="stroke: #000000; stroke-width: 1.5"/>
      </defs>
      <g>
       <use xlink:href="#m5c58f37ba6" x="31.0325" y="85.083375" style="stroke: #000000; stroke-width: 1.5"/>
      </g>
     </g>
     <g id="text_4">
      <text style="font: 8px 'serif'; text-anchor: end" x="24.0325" y="88.12275" transform="rotate(-0, 24.0325, 88.12275)">0</text>
     </g>
    </g>
    <g id="ytick_2">
     <g id="line2d_4">
      <g>
       <use xlink:href="#m5c58f37ba6" x="31.0325" y="10.239375" style="stroke: #000000; stroke-width: 1.5"/>
      </g>
     </g>
     <g id="text_5">
      <text style="font: 8px 'serif'; text-anchor: end" x="24.0325" y="13.27875" transform="rotate(-0, 24.0325, 13.27875)">1</text>
     </g>
    </g>
    <g id="text_6">
     <text style="font: 8px 'serif'; text-anchor: middle" x="13.27875" y="47.661375" transform="rotate(-90, 13.27875, 47.661375)">Empirical coverage</text>
    </g>
   </g>
   <g id="line2d_5">
    <path d="M 31.0325 85.083375 
L 106.3625 10.239375 
" clip-path="url(#pe5dae38950)" style="fill: none; stroke: #808080; stroke-width: 1.5; stroke-linecap: square"/>
   </g>
   <g id="line2d_6">
    <path d="M 31.0325 84.739022 
L 32.569847 84.365986 
L 34.107194 83.963117 
L 35.644541 83.52927 
L 37.181888 83.063297 
L 38.719234 82.56405 
L 40.256582 82.030382 
L 41.793928 81.461146 
L 43.331275 80.855195 
L 44.868623 80.21138 
L 46.405969 79.528555 
L 47.943316 78.805572 
L 49.480663 78.041284 
L 51.01801 77.234543 
L 52.555356 76.384204 
L 54.092702 75.489116 
L 55.630051 74.548134 
L 57.167397 73.56011 
L 58.704745 72.523898 
L 60.242091 71.438348 
L 61.779438 70.302314 
L 63.316784 69.114647 
L 64.854132 67.874203 
L 66.391478 66.579834 
L 67.928827 65.230391 
L 69.466173 63.824725 
L 71.003519 62.361693 
L 72.540866 60.840144 
L 74.078216 59.258934 
L 75.615562 57.616911 
L 77.152909 55.912935 
L 78.690255 54.14585 
L 80.227601 52.314513 
L 81.764947 50.417775 
L 83.302293 48.454494 
L 84.839644 46.423514 
L 86.37699 44.323693 
L 87.914337 42.153883 
L 89.451683 39.912937 
L 90.989029 37.599709 
L 92.52638 35.213047 
L 94.063726 32.75181 
L 95.601072 30.214842 
L 97.138423 27.601006 
L 98.675769 24.909141 
L 100.213115 22.138115 
L 101.750461 19.286773 
L 103.287808 16.353967 
L 104.825154 13.338551 
L 106.3625 10.239375 
" clip-path="url(#pe5dae38950)" style="fill: none; stroke: #6e016b; stroke-width: 1.5; stroke-linecap: square"/>
   </g>
   <g id="line2d_7">
    <path d="M 31.0325 81.984201 
L 32.569847 78.968785 
L 34.107194 76.035978 
L 35.644541 73.184635 
L 37.181888 70.413606 
L 38.719234 67.721747 
L 40.256582 65.107906 
L 41.793928 62.57094 
L 43.331275 60.109701 
L 44.868623 57.723039 
L 46.405969 55.409813 
L 47.943316 53.168867 
L 49.480663 50.999057 
L 51.01801 48.899236 
L 52.555356 46.868258 
L 54.092702 44.904972 
L 55.630051 43.008241 
L 57.167397 41.176904 
L 58.704745 39.40982 
L 60.242091 37.705837 
L 61.779438 36.063818 
L 63.316784 34.482603 
L 64.854132 32.961055 
L 66.391478 31.498023 
L 67.928827 30.092359 
L 69.466173 28.742914 
L 71.003519 27.448545 
L 72.540866 26.208101 
L 74.078216 25.020435 
L 75.615562 23.884402 
L 77.152909 22.798855 
L 78.690255 21.762638 
L 80.227601 20.774613 
L 81.764947 19.833635 
L 83.302293 18.938547 
L 84.839644 18.088204 
L 86.37699 17.281464 
L 87.914337 16.517174 
L 89.451683 15.794194 
L 90.989029 15.111368 
L 92.52638 14.467554 
L 94.063726 13.861605 
L 95.601072 13.292366 
L 97.138423 12.758699 
L 98.675769 12.25945 
L 100.213115 11.79348 
L 101.750461 11.359629 
L 103.287808 10.956765 
L 104.825154 10.583728 
L 106.3625 10.239375 
" clip-path="url(#pe5dae38950)" style="fill: none; stroke: #8c6bb1; stroke-width: 1.5; stroke-linecap: square"/>
   </g>
   <g id="patch_3">
    <path d="M 31.0325 85.083375 
L 31.0325 10.239375 
" style="fill: none; stroke: #000000; stroke-width: 1.5; stroke-linejoin: miter; stroke-linecap: square"/>
   </g>
   <g id="patch_4">
    <path d="M 31.0325 85.083375 
L 106.3625 85.083375 
" style="fill: none; stroke: #000000; stroke-width: 1.5; stroke-linejoin: miter; stroke-linecap: square"/>
   </g>
  </g>
 </g>
 <defs>
  <clipPath id="pe5dae38950">
   <rect x="31.0325" y="10.239375" width="75.33" height="74.844"/>
  </clipPath>
 </defs>
</svg>
