<?xml version="1.0" encoding="utf-8" standalone="no"?>
<!DOCTYPE svg PUBLIC "-//W3C//DTD SVG 1.1//EN"
  "http://www.w3.org/Graphics/SVG/1.1/DTD/svg11.dtd">
<svg xmlns:xlink="http://www.w3.org/1999/xlink" width="114.813125pt" height="117.739625pt" viewBox="0 0 114.813125 117.739625" xmlns="http://www.w3.org/2000/svg" version="1.1">
 <metadata>
  <rdf:RDF xmlns:dc="http://purl.org/dc/elements/1.1/" xmlns:cc="http://creativecommons.org/ns#" xmlns:rdf="http://www.w3.org/1999/02/22-rdf-syntax-ns#">
   <cc:Work>
    <dc:type rdf:resource="http://purl.org/dc/dcmitype/StillImage"/>
    <dc:date>2022-04-20T12:28:06.793335</dc:date>
    <dc:format>image/svg+xml</dc:format>
    <dc:creator>
     <cc:Agent>
      <dc:title>Matplotlib v3.5.1, https://matplotlib.org/</dc:title>
     </cc:Agent>
    </dc:creator>
   </cc:Work>
  </rdf:RDF>
 </metadata>
 <defs>
  <style type="text/css">*{stroke-linejoin: round; stroke-linecap: butt}</style>
 </defs>
 <g id="figure_1">
  <g id="patch_1">
   <path d="M 0 117.739625 
L 114.813125 117.739625 
L 114.813125 0 
L 0 0 
z
" style="fill: #ffffff"/>
  </g>
  <g id="axes_1">
   <g id="patch_2">
    <path d="M 30.05875 84.907125 
L 105.38875 84.907125 
L 105.38875 10.063125 
L 30.05875 10.063125 
z
" style="fill: #ffffff"/>
   </g>
   <g id="matplotlib.axis_1">
    <g id="xtick_1">
     <g id="line2d_1">
      <defs>
       <path id="m40e72bb734" d="M 0 0 
L 0 3.5 
" style="stroke: #000000; stroke-width: 1.5"/>
      </defs>
      <g>
       <use xlink:href="#m40e72bb734" x="30.05875" y="84.907125" style="stroke: #000000; stroke-width: 1.5"/>
      </g>
     </g>
     <g id="text_1">
      <text style="font: 8px 'Arial'; text-anchor: middle" x="30.05875" y="97.633375" transform="rotate(-0, 30.05875, 97.633375)">0</text>
     </g>
    </g>
    <g id="xtick_2">
     <g id="line2d_2">
      <g>
       <use xlink:href="#m40e72bb734" x="105.38875" y="84.907125" style="stroke: #000000; stroke-width: 1.5"/>
      </g>
     </g>
     <g id="text_2">
      <text style="font: 8px 'Arial'; text-anchor: middle" x="105.38875" y="97.633375" transform="rotate(-0, 105.38875, 97.633375)">1</text>
     </g>
    </g>
    <g id="text_3">
     <text style="font: 8px 'Arial'; text-anchor: middle" x="67.72375" y="108.949625" transform="rotate(-0, 67.72375, 108.949625)">Confidence level</text>
    </g>
   </g>
   <g id="matplotlib.axis_2">
    <g id="ytick_1">
     <g id="line2d_3">
      <defs>
       <path id="mc5e7045857" d="M 0 0 
L -3.5 0 
" style="stroke: #000000; stroke-width: 1.5"/>
      </defs>
      <g>
       <use xlink:href="#mc5e7045857" x="30.05875" y="84.907125" style="stroke: #000000; stroke-width: 1.5"/>
      </g>
     </g>
     <g id="text_4">
      <text style="font: 8px 'Arial'; text-anchor: end" x="23.05875" y="87.77025" transform="rotate(-0, 23.05875, 87.77025)">0</text>
     </g>
    </g>
    <g id="ytick_2">
     <g id="line2d_4">
      <g>
       <use xlink:href="#mc5e7045857" x="30.05875" y="10.063125" style="stroke: #000000; stroke-width: 1.5"/>
      </g>
     </g>
     <g id="text_5">
      <text style="font: 8px 'Arial'; text-anchor: end" x="23.05875" y="12.92625" transform="rotate(-0, 23.05875, 12.92625)">1</text>
     </g>
    </g>
    <g id="text_6">
     <text style="font: 8px 'Arial'; text-anchor: middle" x="12.92625" y="47.485125" transform="rotate(-90, 12.92625, 47.485125)">Empirical coverage</text>
    </g>
   </g>
   <g id="line2d_5">
    <path d="M 30.05875 84.907125 
L 105.38875 10.063125 
" clip-path="url(#pc679e50591)" style="fill: none; stroke: #808080; stroke-width: 1.5; stroke-linecap: square"/>
   </g>
   <g id="line2d_6">
    <path d="M 30.05875 84.562772 
L 31.596097 84.189736 
L 33.133444 83.786867 
L 34.670791 83.35302 
L 36.208138 82.887047 
L 37.745484 82.3878 
L 39.282832 81.854132 
L 40.820178 81.284896 
L 42.357525 80.678945 
L 43.894873 80.03513 
L 45.432219 79.352305 
L 46.969566 78.629322 
L 48.506913 77.865034 
L 50.04426 77.058293 
L 51.581606 76.207954 
L 53.118952 75.312866 
L 54.656301 74.371884 
L 56.193647 73.38386 
L 57.730995 72.347648 
L 59.268341 71.262098 
L 60.805688 70.126064 
L 62.343034 68.938397 
L 63.880382 67.697953 
L 65.417728 66.403584 
L 66.955077 65.054141 
L 68.492423 63.648475 
L 70.029769 62.185443 
L 71.567116 60.663894 
L 73.104466 59.082684 
L 74.641812 57.440661 
L 76.179159 55.736685 
L 77.716505 53.9696 
L 79.253851 52.138263 
L 80.791197 50.241525 
L 82.328543 48.278244 
L 83.865894 46.247264 
L 85.40324 44.147443 
L 86.940587 41.977633 
L 88.477933 39.736687 
L 90.015279 37.423459 
L 91.55263 35.036797 
L 93.089976 32.57556 
L 94.627322 30.038592 
L 96.164673 27.424756 
L 97.702019 24.732891 
L 99.239365 21.961865 
L 100.776711 19.110523 
L 102.314058 16.177717 
L 103.851404 13.162301 
L 105.38875 10.063125 
" clip-path="url(#pc679e50591)" style="fill: none; stroke: #6e016b; stroke-width: 1.5; stroke-linecap: square"/>
   </g>
   <g id="line2d_7">
    <path d="M 30.05875 81.807951 
L 31.596097 78.792535 
L 33.133444 75.859728 
L 34.670791 73.008385 
L 36.208138 70.237356 
L 37.745484 67.545497 
L 39.282832 64.931656 
L 40.820178 62.39469 
L 42.357525 59.933451 
L 43.894873 57.546789 
L 45.432219 55.233563 
L 46.969566 52.992617 
L 48.506913 50.822807 
L 50.04426 48.722986 
L 51.581606 46.692008 
L 53.118952 44.728722 
L 54.656301 42.831991 
L 56.193647 41.000654 
L 57.730995 39.23357 
L 59.268341 37.529587 
L 60.805688 35.887568 
L 62.343034 34.306353 
L 63.880382 32.784805 
L 65.417728 31.321773 
L 66.955077 29.916109 
L 68.492423 28.566664 
L 70.029769 27.272295 
L 71.567116 26.031851 
L 73.104466 24.844185 
L 74.641812 23.708152 
L 76.179159 22.622605 
L 77.716505 21.586388 
L 79.253851 20.598363 
L 80.791197 19.657385 
L 82.328543 18.762297 
L 83.865894 17.911954 
L 85.40324 17.105214 
L 86.940587 16.340924 
L 88.477933 15.617944 
L 90.015279 14.935118 
L 91.55263 14.291304 
L 93.089976 13.685355 
L 94.627322 13.116116 
L 96.164673 12.582449 
L 97.702019 12.0832 
L 99.239365 11.61723 
L 100.776711 11.183379 
L 102.314058 10.780515 
L 103.851404 10.407478 
L 105.38875 10.063125 
" clip-path="url(#pc679e50591)" style="fill: none; stroke: #8c6bb1; stroke-width: 1.5; stroke-linecap: square"/>
   </g>
   <g id="patch_3">
    <path d="M 30.05875 84.907125 
L 30.05875 10.063125 
" style="fill: none; stroke: #000000; stroke-width: 1.5; stroke-linejoin: miter; stroke-linecap: square"/>
   </g>
   <g id="patch_4">
    <path d="M 30.05875 84.907125 
L 105.38875 84.907125 
" style="fill: none; stroke: #000000; stroke-width: 1.5; stroke-linejoin: miter; stroke-linecap: square"/>
   </g>
  </g>
 </g>
 <defs>
  <clipPath id="pc679e50591">
   <rect x="30.05875" y="10.063125" width="75.33" height="74.844"/>
  </clipPath>
 </defs>
</svg>
