<?xml version="1.0" encoding="utf-8" standalone="no"?>
<!DOCTYPE svg PUBLIC "-//W3C//DTD SVG 1.1//EN"
  "http://www.w3.org/Graphics/SVG/1.1/DTD/svg11.dtd">
<svg xmlns:xlink="http://www.w3.org/1999/xlink" width="238.6225pt" height="92.750875pt" viewBox="0 0 238.6225 92.750875" xmlns="http://www.w3.org/2000/svg" version="1.1">
 <metadata>
  <rdf:RDF xmlns:dc="http://purl.org/dc/elements/1.1/" xmlns:cc="http://creativecommons.org/ns#" xmlns:rdf="http://www.w3.org/1999/02/22-rdf-syntax-ns#">
   <cc:Work>
    <dc:type rdf:resource="http://purl.org/dc/dcmitype/StillImage"/>
    <dc:date>2022-04-18T11:50:28.931064</dc:date>
    <dc:format>image/svg+xml</dc:format>
    <dc:creator>
     <cc:Agent>
      <dc:title>Matplotlib v3.5.1, https://matplotlib.org/</dc:title>
     </cc:Agent>
    </dc:creator>
   </cc:Work>
  </rdf:RDF>
 </metadata>
 <defs>
  <style type="text/css">*{stroke-linejoin: round; stroke-linecap: butt}</style>
 </defs>
 <g id="figure_1">
  <g id="patch_1">
   <path d="M 0 92.750875 
L 238.6225 92.750875 
L 238.6225 0 
L 0 0 
z
" style="fill: #ffffff"/>
  </g>
  <g id="axes_1">
   <g id="patch_2">
    <path d="M 31.0325 59.065875 
L 100.7825 59.065875 
L 100.7825 20.257875 
L 31.0325 20.257875 
z
" style="fill: #ffffff"/>
   </g>
   <g id="matplotlib.axis_1">
    <g id="xtick_1">
     <g id="line2d_1">
      <defs>
       <path id="m70d4022f6b" d="M 0 0 
L 0 3.5 
" style="stroke: #000000; stroke-width: 1.5"/>
      </defs>
      <g>
       <use xlink:href="#m70d4022f6b" x="31.0325" y="59.065875" style="stroke: #000000; stroke-width: 1.5"/>
      </g>
     </g>
     <g id="text_1">
      <text style="font: 8px 'serif'; text-anchor: middle" x="31.0325" y="72.144625" transform="rotate(-0, 31.0325, 72.144625)">1</text>
     </g>
    </g>
    <g id="xtick_2">
     <g id="line2d_2">
      <g>
       <use xlink:href="#m70d4022f6b" x="38.7825" y="59.065875" style="stroke: #000000; stroke-width: 1.5"/>
      </g>
     </g>
     <g id="text_2">
      <text style="font: 8px 'serif'; text-anchor: middle" x="38.7825" y="72.144625" transform="rotate(-0, 38.7825, 72.144625)">2</text>
     </g>
    </g>
    <g id="xtick_3">
     <g id="line2d_3">
      <g>
       <use xlink:href="#m70d4022f6b" x="46.5325" y="59.065875" style="stroke: #000000; stroke-width: 1.5"/>
      </g>
     </g>
     <g id="text_3">
      <text style="font: 8px 'serif'; text-anchor: middle" x="46.5325" y="72.144625" transform="rotate(-0, 46.5325, 72.144625)">3</text>
     </g>
    </g>
    <g id="xtick_4">
     <g id="line2d_4">
      <g>
       <use xlink:href="#m70d4022f6b" x="54.2825" y="59.065875" style="stroke: #000000; stroke-width: 1.5"/>
      </g>
     </g>
     <g id="text_4">
      <text style="font: 8px 'serif'; text-anchor: middle" x="54.2825" y="72.144625" transform="rotate(-0, 54.2825, 72.144625)">4</text>
     </g>
    </g>
    <g id="xtick_5">
     <g id="line2d_5">
      <g>
       <use xlink:href="#m70d4022f6b" x="62.0325" y="59.065875" style="stroke: #000000; stroke-width: 1.5"/>
      </g>
     </g>
     <g id="text_5">
      <text style="font: 8px 'serif'; text-anchor: middle" x="62.0325" y="72.144625" transform="rotate(-0, 62.0325, 72.144625)">5</text>
     </g>
    </g>
    <g id="xtick_6">
     <g id="line2d_6">
      <g>
       <use xlink:href="#m70d4022f6b" x="69.7825" y="59.065875" style="stroke: #000000; stroke-width: 1.5"/>
      </g>
     </g>
     <g id="text_6">
      <text style="font: 8px 'serif'; text-anchor: middle" x="69.7825" y="72.144625" transform="rotate(-0, 69.7825, 72.144625)">6</text>
     </g>
    </g>
    <g id="xtick_7">
     <g id="line2d_7">
      <g>
       <use xlink:href="#m70d4022f6b" x="77.5325" y="59.065875" style="stroke: #000000; stroke-width: 1.5"/>
      </g>
     </g>
     <g id="text_7">
      <text style="font: 8px 'serif'; text-anchor: middle" x="77.5325" y="72.144625" transform="rotate(-0, 77.5325, 72.144625)">7</text>
     </g>
    </g>
    <g id="xtick_8">
     <g id="line2d_8">
      <g>
       <use xlink:href="#m70d4022f6b" x="85.2825" y="59.065875" style="stroke: #000000; stroke-width: 1.5"/>
      </g>
     </g>
     <g id="text_8">
      <text style="font: 8px 'serif'; text-anchor: middle" x="85.2825" y="72.144625" transform="rotate(-0, 85.2825, 72.144625)">8</text>
     </g>
    </g>
    <g id="xtick_9">
     <g id="line2d_9">
      <g>
       <use xlink:href="#m70d4022f6b" x="93.0325" y="59.065875" style="stroke: #000000; stroke-width: 1.5"/>
      </g>
     </g>
     <g id="text_9">
      <text style="font: 8px 'serif'; text-anchor: middle" x="93.0325" y="72.144625" transform="rotate(-0, 93.0325, 72.144625)">9</text>
     </g>
    </g>
    <g id="xtick_10">
     <g id="line2d_10">
      <g>
       <use xlink:href="#m70d4022f6b" x="100.7825" y="59.065875" style="stroke: #000000; stroke-width: 1.5"/>
      </g>
     </g>
     <g id="text_10">
      <text style="font: 8px 'serif'; text-anchor: middle" x="100.7825" y="72.144625" transform="rotate(-0, 100.7825, 72.144625)">10</text>
     </g>
    </g>
    <g id="text_11">
     <text style="font: 8px 'serif'; text-anchor: middle" x="65.9075" y="83.887125" transform="rotate(-0, 65.9075, 83.887125)">Round</text>
    </g>
   </g>
   <g id="matplotlib.axis_2">
    <g id="ytick_1">
     <g id="line2d_11">
      <defs>
       <path id="med9bc045ae" d="M 0 0 
L -3.5 0 
" style="stroke: #000000; stroke-width: 1.5"/>
      </defs>
      <g>
       <use xlink:href="#med9bc045ae" x="31.0325" y="59.065875" style="stroke: #000000; stroke-width: 1.5"/>
      </g>
     </g>
     <g id="text_12">
      <text style="font: 8px 'serif'; text-anchor: end" x="24.0325" y="62.10525" transform="rotate(-0, 24.0325, 62.10525)">0</text>
     </g>
    </g>
    <g id="ytick_2">
     <g id="line2d_12">
      <g>
       <use xlink:href="#med9bc045ae" x="31.0325" y="20.642113" style="stroke: #000000; stroke-width: 1.5"/>
      </g>
     </g>
     <g id="text_13">
      <text style="font: 8px 'serif'; text-anchor: end" x="24.0325" y="23.681488" transform="rotate(-0, 24.0325, 23.681488)">1</text>
     </g>
    </g>
    <g id="text_14">
     <text style="font: 8px 'serif'; text-anchor: middle" x="13.27875" y="39.661875" transform="rotate(-90, 13.27875, 39.661875)">acceptance rate</text>
    </g>
   </g>
   <g id="line2d_13">
    <path d="M 31.0325 20.642113 
L 38.7825 21.335855 
L 46.5325 21.589452 
L 54.2825 24.639721 
L 62.0325 31.283703 
L 69.7825 34.400189 
L 77.5325 39.847366 
L 85.2825 42.008126 
L 93.0325 45.343392 
L 100.7825 46.163035 
" clip-path="url(#pc425b40efd)" style="fill: none; stroke: #000000; stroke-opacity: 0.3; stroke-width: 1.5; stroke-linecap: square"/>
   </g>
   <g id="line2d_14">
    <path d="M 31.0325 20.642113 
L 38.7825 44.190327 
L 46.5325 48.337039 
L 54.2825 53.026513 
L 62.0325 54.418411 
L 69.7825 55.449393 
L 77.5325 56.510013 
L 85.2825 57.31103 
L 93.0325 57.326433 
L 100.7825 57.406795 
" clip-path="url(#pc425b40efd)" style="fill: none; stroke: #000000; stroke-opacity: 0.55; stroke-width: 1.5; stroke-linecap: square"/>
   </g>
   <g id="line2d_15">
    <path d="M 31.0325 20.642113 
L 38.7825 57.288876 
L 46.5325 57.528007 
L 54.2825 57.574359 
L 62.0325 57.719897 
L 69.7825 57.639561 
L 77.5325 57.644031 
L 85.2825 57.653437 
L 93.0325 57.660166 
L 100.7825 57.675268 
" clip-path="url(#pc425b40efd)" style="fill: none; stroke: #000000; stroke-width: 1.5; stroke-linecap: square"/>
   </g>
   <g id="patch_3">
    <path d="M 31.0325 59.065875 
L 31.0325 20.257875 
" style="fill: none; stroke: #000000; stroke-width: 1.5; stroke-linejoin: miter; stroke-linecap: square"/>
   </g>
   <g id="patch_4">
    <path d="M 31.0325 59.065875 
L 100.7825 59.065875 
" style="fill: none; stroke: #000000; stroke-width: 1.5; stroke-linejoin: miter; stroke-linecap: square"/>
   </g>
  </g>
  <g id="axes_2">
   <g id="patch_5">
    <path d="M 156.5825 59.065875 
L 226.3325 59.065875 
L 226.3325 20.257875 
L 156.5825 20.257875 
z
" style="fill: #ffffff"/>
   </g>
   <g id="matplotlib.axis_3">
    <g id="xtick_11">
     <g id="line2d_16">
      <g>
       <use xlink:href="#m70d4022f6b" x="156.5825" y="59.065875" style="stroke: #000000; stroke-width: 1.5"/>
      </g>
     </g>
     <g id="text_15">
      <text style="font: 8px 'serif'; text-anchor: middle" x="156.5825" y="72.144625" transform="rotate(-0, 156.5825, 72.144625)">1</text>
     </g>
    </g>
    <g id="xtick_12">
     <g id="line2d_17">
      <g>
       <use xlink:href="#m70d4022f6b" x="164.3325" y="59.065875" style="stroke: #000000; stroke-width: 1.5"/>
      </g>
     </g>
     <g id="text_16">
      <text style="font: 8px 'serif'; text-anchor: middle" x="164.3325" y="72.144625" transform="rotate(-0, 164.3325, 72.144625)">2</text>
     </g>
    </g>
    <g id="xtick_13">
     <g id="line2d_18">
      <g>
       <use xlink:href="#m70d4022f6b" x="172.0825" y="59.065875" style="stroke: #000000; stroke-width: 1.5"/>
      </g>
     </g>
     <g id="text_17">
      <text style="font: 8px 'serif'; text-anchor: middle" x="172.0825" y="72.144625" transform="rotate(-0, 172.0825, 72.144625)">3</text>
     </g>
    </g>
    <g id="xtick_14">
     <g id="line2d_19">
      <g>
       <use xlink:href="#m70d4022f6b" x="179.8325" y="59.065875" style="stroke: #000000; stroke-width: 1.5"/>
      </g>
     </g>
     <g id="text_18">
      <text style="font: 8px 'serif'; text-anchor: middle" x="179.8325" y="72.144625" transform="rotate(-0, 179.8325, 72.144625)">4</text>
     </g>
    </g>
    <g id="xtick_15">
     <g id="line2d_20">
      <g>
       <use xlink:href="#m70d4022f6b" x="187.5825" y="59.065875" style="stroke: #000000; stroke-width: 1.5"/>
      </g>
     </g>
     <g id="text_19">
      <text style="font: 8px 'serif'; text-anchor: middle" x="187.5825" y="72.144625" transform="rotate(-0, 187.5825, 72.144625)">5</text>
     </g>
    </g>
    <g id="xtick_16">
     <g id="line2d_21">
      <g>
       <use xlink:href="#m70d4022f6b" x="195.3325" y="59.065875" style="stroke: #000000; stroke-width: 1.5"/>
      </g>
     </g>
     <g id="text_20">
      <text style="font: 8px 'serif'; text-anchor: middle" x="195.3325" y="72.144625" transform="rotate(-0, 195.3325, 72.144625)">6</text>
     </g>
    </g>
    <g id="xtick_17">
     <g id="line2d_22">
      <g>
       <use xlink:href="#m70d4022f6b" x="203.0825" y="59.065875" style="stroke: #000000; stroke-width: 1.5"/>
      </g>
     </g>
     <g id="text_21">
      <text style="font: 8px 'serif'; text-anchor: middle" x="203.0825" y="72.144625" transform="rotate(-0, 203.0825, 72.144625)">7</text>
     </g>
    </g>
    <g id="xtick_18">
     <g id="line2d_23">
      <g>
       <use xlink:href="#m70d4022f6b" x="210.8325" y="59.065875" style="stroke: #000000; stroke-width: 1.5"/>
      </g>
     </g>
     <g id="text_22">
      <text style="font: 8px 'serif'; text-anchor: middle" x="210.8325" y="72.144625" transform="rotate(-0, 210.8325, 72.144625)">8</text>
     </g>
    </g>
    <g id="xtick_19">
     <g id="line2d_24">
      <g>
       <use xlink:href="#m70d4022f6b" x="218.5825" y="59.065875" style="stroke: #000000; stroke-width: 1.5"/>
      </g>
     </g>
     <g id="text_23">
      <text style="font: 8px 'serif'; text-anchor: middle" x="218.5825" y="72.144625" transform="rotate(-0, 218.5825, 72.144625)">9</text>
     </g>
    </g>
    <g id="xtick_20">
     <g id="line2d_25">
      <g>
       <use xlink:href="#m70d4022f6b" x="226.3325" y="59.065875" style="stroke: #000000; stroke-width: 1.5"/>
      </g>
     </g>
     <g id="text_24">
      <text style="font: 8px 'serif'; text-anchor: middle" x="226.3325" y="72.144625" transform="rotate(-0, 226.3325, 72.144625)">10</text>
     </g>
    </g>
    <g id="text_25">
     <text style="font: 8px 'serif'; text-anchor: middle" x="191.4575" y="83.887125" transform="rotate(-0, 191.4575, 83.887125)">Round</text>
    </g>
   </g>
   <g id="matplotlib.axis_4">
    <g id="ytick_3">
     <g id="line2d_26">
      <g>
       <use xlink:href="#med9bc045ae" x="156.5825" y="59.065875" style="stroke: #000000; stroke-width: 1.5"/>
      </g>
     </g>
     <g id="text_26">
      <text style="font: 8px 'serif'; text-anchor: end" x="149.5825" y="62.10525" transform="rotate(-0, 149.5825, 62.10525)">0.95</text>
     </g>
    </g>
    <g id="ytick_4">
     <g id="line2d_27">
      <g>
       <use xlink:href="#med9bc045ae" x="156.5825" y="20.335336" style="stroke: #000000; stroke-width: 1.5"/>
      </g>
     </g>
     <g id="text_27">
      <text style="font: 8px 'serif'; text-anchor: end" x="149.5825" y="23.374711" transform="rotate(-0, 149.5825, 23.374711)">1.00</text>
     </g>
    </g>
    <g id="text_28">
     <text style="font: 8px 'serif'; text-anchor: middle" x="126.10625" y="39.661875" transform="rotate(-90, 126.10625, 39.661875)">gt in support</text>
    </g>
   </g>
   <g id="line2d_28">
    <path d="M 156.5825 20.335336 
L 164.3325 24.037971 
L 172.0825 23.418291 
L 179.8325 24.928783 
L 187.5825 26.447014 
L 195.3325 29.475746 
L 203.0825 29.529968 
L 210.8325 27.763853 
L 218.5825 28.073698 
L 226.3325 26.849813 
" clip-path="url(#pc845d8b1a3)" style="fill: none; stroke: #000000; stroke-opacity: 0.3; stroke-width: 1.5; stroke-linecap: square"/>
   </g>
   <g id="line2d_29">
    <path d="M 156.5825 20.335336 
L 164.3325 27.376548 
L 172.0825 23.929526 
L 179.8325 23.302089 
L 187.5825 22.674661 
L 195.3325 22.364816 
L 203.0825 22.697899 
L 210.8325 22.333831 
L 218.5825 21.714146 
L 226.3325 21.768368 
" clip-path="url(#pc845d8b1a3)" style="fill: none; stroke: #000000; stroke-opacity: 0.55; stroke-width: 1.5; stroke-linecap: square"/>
   </g>
   <g id="line2d_30">
    <path d="M 156.5825 20.335336 
L 164.3325 22.395801 
L 172.0825 21.590206 
L 179.8325 21.388806 
L 187.5825 21.373316 
L 195.3325 21.055724 
L 203.0825 20.916294 
L 210.8325 20.846581 
L 218.5825 20.761373 
L 226.3325 20.699404 
" clip-path="url(#pc845d8b1a3)" style="fill: none; stroke: #000000; stroke-width: 1.5; stroke-linecap: square"/>
   </g>
   <g id="patch_6">
    <path d="M 156.5825 59.065875 
L 156.5825 20.257875 
" style="fill: none; stroke: #000000; stroke-width: 1.5; stroke-linejoin: miter; stroke-linecap: square"/>
   </g>
   <g id="patch_7">
    <path d="M 156.5825 59.065875 
L 226.3325 59.065875 
" style="fill: none; stroke: #000000; stroke-width: 1.5; stroke-linejoin: miter; stroke-linecap: square"/>
   </g>
  </g>
 </g>
 <defs>
  <clipPath id="pc425b40efd">
   <rect x="31.0325" y="20.257875" width="69.75" height="38.808"/>
  </clipPath>
  <clipPath id="pc845d8b1a3">
   <rect x="156.5825" y="20.257875" width="69.75" height="38.808"/>
  </clipPath>
 </defs>
</svg>
